# 3ds Max Wavefront OBJ Exporter v0.97b - (c)2007 guruware
# File Created: 23.04.2014 14:53:25

mtllib 2pir_szafa_1d.mtl

#
# object Rectangle11
#

v  -23.3112 106.5751 26.9166
v  23.3176 106.5751 26.9167
v  23.3176 106.5751 -29.0217
v  -23.3112 106.5751 -29.0217
v  -23.3112 -108.5783 26.9165
v  -23.3112 -108.5783 -29.0218
v  23.3176 -108.5783 26.9166
v  23.3176 -108.5783 -29.0218
# 8 vertices

vn -0.0000 1.0000 0.0000
vn -1.0000 0.0000 -0.0000
vn 0.0000 -1.0000 -0.0000
vn 1.0000 -0.0000 0.0000
vn 0.0000 0.0000 -1.0000
vn -0.0000 -0.0000 1.0000
# 6 vertex normals

vt 0.9995 0.9995 0.9995
vt 0.0005 0.9995 0.9995
vt 0.0005 0.0005 0.9995
vt 0.9995 0.0005 0.9995
vt 0.9995 0.9995 0.0005
vt 0.0005 0.9995 0.0005
vt 0.0005 0.0005 0.0005
vt 0.9995 0.0005 0.0005
# 8 texture coords

g Rectangle11
usemtl Material__37
s 1
f 1/1/1 2/2/1 3/3/1 4/4/1 
s 4
f 5/5/2 1/6/2 4/7/2 6/8/2 
s 2
f 7/5/3 5/6/3 6/7/3 8/8/3 
s 4
f 2/1/4 7/2/4 8/3/4 3/4/4 
s 16
f 6/8/5 4/5/5 3/6/5 8/7/5 
f 2/1/6 1/2/6 5/3/6 7/4/6 
# 6 polygons

#
# object Rectangle10
#

v  -21.2598 108.4930 29.0218
v  -20.5206 108.5783 29.0218
v  -20.5206 108.5783 27.0218
v  -21.2598 108.4930 27.0218
v  -21.9385 108.2502 29.0218
v  -21.9385 108.2502 27.0218
v  -22.5375 107.8691 29.0218
v  -22.5375 107.8691 27.0218
v  -23.0372 107.3694 29.0218
v  -23.0372 107.3694 27.0218
v  -23.4183 106.7704 29.0218
v  -23.4183 106.7704 27.0218
v  -23.6611 106.0916 29.0218
v  -23.6611 106.0916 27.0218
v  -23.7464 105.3525 29.0218
v  -23.7464 105.3525 27.0218
v  -23.7464 -104.9222 27.0217
v  -23.7464 -104.9222 29.0217
v  -21.2598 -108.0627 29.0217
v  -21.2598 -108.0627 27.0217
v  -20.5206 -108.1480 27.0217
v  -20.5206 -108.1480 29.0217
v  -21.9385 -107.8199 29.0217
v  -21.9385 -107.8199 27.0217
v  -22.5375 -107.4388 29.0217
v  -22.5375 -107.4388 27.0217
v  -23.0372 -106.9391 29.0217
v  -23.0372 -106.9391 27.0217
v  -23.4182 -106.3401 29.0217
v  -23.4182 -106.3401 27.0217
v  -23.6611 -105.6614 29.0217
v  -23.6611 -105.6614 27.0217
v  21.2598 108.4930 29.0218
v  21.2598 108.4930 27.0218
v  20.5206 108.5783 27.0218
v  20.5206 108.5783 29.0218
v  21.9386 108.2502 29.0218
v  21.9386 108.2502 27.0218
v  22.5375 107.8691 29.0218
v  22.5375 107.8691 27.0218
v  23.0372 107.3694 29.0218
v  23.0372 107.3694 27.0218
v  23.4183 106.7704 29.0218
v  23.4183 106.7704 27.0218
v  23.6611 106.0916 29.0218
v  23.6611 106.0916 27.0218
v  23.7464 105.3525 29.0218
v  23.7464 105.3525 27.0218
v  23.7464 -104.9222 27.0217
v  23.7464 -104.9222 29.0217
v  23.6611 -105.6614 27.0217
v  23.4183 -106.3401 27.0217
v  22.5375 -107.4388 27.0217
v  23.0372 -106.9391 27.0217
v  21.9386 -107.8199 27.0217
v  21.2598 -108.0627 27.0217
v  20.5206 -108.1480 27.0217
v  20.5206 -108.1480 29.0217
v  21.2598 -108.0627 29.0217
v  22.5375 -107.4388 29.0217
v  21.9385 -107.8199 29.0217
v  23.0372 -106.9391 29.0217
v  23.4183 -106.3401 29.0217
v  23.6611 -105.6614 29.0217
# 64 vertices

vn -0.2272 0.9738 0.0000
vn -0.1146 0.9934 0.0000
vn -0.4395 0.8982 0.0000
vn -0.6257 0.7801 0.0000
vn -0.7801 0.6256 0.0000
vn -0.8982 0.4395 0.0000
vn -0.9738 0.2272 -0.0000
vn -0.9934 0.1146 -0.0000
vn -1.0000 -0.0000 -0.0000
vn -0.2272 -0.9738 -0.0000
vn -0.1146 -0.9934 -0.0000
vn -0.4395 -0.8982 -0.0000
vn -0.6257 -0.7801 -0.0000
vn -0.7801 -0.6257 -0.0000
vn -0.8982 -0.4395 -0.0000
vn -0.9738 -0.2272 -0.0000
vn -0.9934 -0.1146 -0.0000
vn 0.2272 0.9738 0.0000
vn 0.1146 0.9934 0.0000
vn 0.4395 0.8982 0.0000
vn 0.6257 0.7801 0.0000
vn 0.7801 0.6256 0.0000
vn 0.8982 0.4395 0.0000
vn 0.9738 0.2272 0.0000
vn 0.9934 0.1146 0.0000
vn 1.0000 -0.0000 0.0000
vn 0.0000 0.0000 -1.0000
vn -0.0000 0.0000 -1.0000
vn 0.0000 -0.0000 -1.0000
vn -0.0000 0.0000 1.0000
vn 0.0000 0.0000 1.0000
vn -0.0000 -0.0000 1.0000
vn 0.0000 -0.0000 1.0000
vn 0.2272 -0.9738 0.0000
vn 0.1146 -0.9934 -0.0000
vn 0.4395 -0.8982 0.0000
vn 0.6257 -0.7801 0.0000
vn 0.7801 -0.6257 0.0000
vn 0.8982 -0.4395 0.0000
vn 0.9738 -0.2272 0.0000
vn 0.9934 -0.1146 0.0000
vn 0.0000 1.0000 0.0000
vn 0.0000 -1.0000 -0.0000
# 43 vertex normals

vt 0.4766 0.9991 0.9995
vt 0.4797 0.9995 0.9995
vt 0.4797 0.9995 0.0005
vt 0.4766 0.9991 0.0005
vt 0.4738 0.9980 0.9995
vt 0.4738 0.9980 0.0005
vt 0.4714 0.9962 0.9995
vt 0.4714 0.9962 0.0005
vt 0.4693 0.9939 0.9995
vt 0.4693 0.9939 0.0005
vt 0.4678 0.9912 0.9995
vt 0.4678 0.9912 0.0005
vt 0.4668 0.9880 0.9995
vt 0.4668 0.9880 0.0005
vt 0.4664 0.9846 0.9995
vt 0.4664 0.9846 0.0005
vt 0.4664 0.0154 0.0005
vt 0.4664 0.0154 0.9995
vt 0.4766 0.0009 0.9995
vt 0.4766 0.0009 0.0005
vt 0.4797 0.0005 0.0005
vt 0.4797 0.0005 0.9995
vt 0.4738 0.0020 0.9995
vt 0.4738 0.0020 0.0005
vt 0.4714 0.0038 0.9995
vt 0.4714 0.0038 0.0005
vt 0.4693 0.0061 0.9995
vt 0.4693 0.0061 0.0005
vt 0.4678 0.0088 0.9995
vt 0.4678 0.0088 0.0005
vt 0.4668 0.0120 0.9995
vt 0.4668 0.0120 0.0005
vt 0.6512 0.9991 0.9995
vt 0.6512 0.9991 0.0005
vt 0.6482 0.9995 0.0005
vt 0.6482 0.9995 0.9995
vt 0.6540 0.9980 0.9995
vt 0.6540 0.9980 0.0005
vt 0.6564 0.9962 0.9995
vt 0.6564 0.9962 0.0005
vt 0.6585 0.9939 0.9995
vt 0.6585 0.9939 0.0005
vt 0.6601 0.9912 0.9995
vt 0.6601 0.9912 0.0005
vt 0.6611 0.9880 0.9995
vt 0.6611 0.9880 0.0005
vt 0.6614 0.9846 0.9995
vt 0.6614 0.9846 0.0005
vt 0.6614 0.0154 0.0005
vt 0.6614 0.0154 0.9995
vt 0.6611 0.0120 0.0005
vt 0.6601 0.0088 0.0005
vt 0.6564 0.0038 0.0005
vt 0.6585 0.0061 0.0005
vt 0.6540 0.0020 0.0005
vt 0.6512 0.0009 0.0005
vt 0.6482 0.0005 0.0005
vt 0.6482 0.0005 0.9995
vt 0.6512 0.0009 0.9995
vt 0.6564 0.0038 0.9995
vt 0.6540 0.0020 0.9995
vt 0.6585 0.0061 0.9995
vt 0.6601 0.0088 0.9995
vt 0.6611 0.0120 0.9995
# 64 texture coords

g Rectangle10
usemtl kolor_1_
s 2
f 9/9/7 10/10/8 11/11/8 12/12/7 
f 13/13/9 9/9/7 12/12/7 14/14/9 
f 15/15/10 13/13/9 14/14/9 16/16/10 
f 17/17/11 15/15/10 16/16/10 18/18/11 
f 19/19/12 17/17/11 18/18/11 20/20/12 
f 21/21/13 19/19/12 20/20/12 22/22/13 
f 23/23/14 21/21/13 22/22/13 24/24/14 
s 4
f 25/25/15 26/26/15 23/23/15 24/24/15 
s 2
f 27/27/16 28/28/16 29/29/17 30/30/17 
f 31/31/18 32/32/18 28/28/16 27/27/16 
f 33/33/19 34/34/19 32/32/18 31/31/18 
f 35/35/20 36/36/20 34/34/19 33/33/19 
f 37/37/21 38/38/21 36/36/20 35/35/20 
f 39/39/22 40/40/22 38/38/21 37/37/21 
f 26/26/23 25/25/23 40/40/22 39/39/22 
f 41/41/24 42/42/24 43/43/25 44/44/25 
f 45/45/26 46/46/26 42/42/24 41/41/24 
f 47/47/27 48/48/27 46/46/26 45/45/26 
f 49/49/28 50/50/28 48/48/27 47/47/27 
f 51/51/29 52/52/29 50/50/28 49/49/28 
f 53/53/30 54/54/30 52/52/29 51/51/29 
f 55/55/31 56/56/31 54/54/30 53/53/30 
s 4
f 57/57/32 56/56/32 55/55/32 58/58/32 
s 16
f 54/54/33 56/56/33 57/57/33 46/46/33 
f 57/57/33 59/59/33 60/60/33 61/61/33 
f 60/60/33 62/62/33 61/61/33 
f 61/61/33 63/63/33 64/64/33 29/29/33 
f 64/64/33 65/65/33 29/29/33 
f 57/57/33 61/61/33 29/29/33 46/46/33 
f 28/28/33 32/32/33 34/34/33 29/29/33 
f 34/34/33 36/36/33 38/38/33 25/25/33 
f 38/38/33 40/40/34 25/25/33 
f 29/29/33 34/34/33 25/25/33 14/14/33 
f 25/25/33 24/24/33 22/22/33 14/14/33 
f 22/22/33 20/20/33 18/18/33 14/14/33 
f 18/18/33 16/16/33 14/14/33 
f 14/14/33 12/12/35 11/11/33 29/29/33 
f 29/29/33 11/11/33 43/43/33 46/46/33 
f 43/43/33 42/42/35 46/46/33 
f 46/46/33 48/48/33 50/50/33 54/54/33 
f 52/52/33 54/54/33 50/50/33 
f 49/49/36 47/47/37 45/45/36 58/58/38 
f 45/45/36 41/41/37 44/44/38 30/30/38 
f 10/10/38 9/9/36 13/13/36 30/30/38 
f 13/13/36 15/15/36 17/17/36 26/26/38 
f 17/17/36 19/19/36 21/21/38 26/26/38 
f 21/21/38 23/23/39 26/26/38 
f 26/26/38 39/39/38 37/37/38 33/33/36 
f 37/37/38 35/35/37 33/33/36 
f 33/33/36 31/31/37 27/27/38 30/30/38 
f 26/26/38 33/33/36 30/30/38 13/13/36 
f 44/44/38 10/10/38 30/30/38 
f 30/30/38 66/66/36 67/67/38 68/68/36 
f 67/67/38 69/69/36 68/68/36 
f 68/68/36 70/70/36 71/71/38 58/58/38 
f 71/71/38 72/72/38 58/58/38 
f 30/30/38 68/68/36 58/58/38 45/45/36 
f 58/58/38 55/55/38 53/53/39 49/49/36 
f 51/51/37 49/49/36 53/53/39 
s 2
f 67/67/40 66/66/41 65/65/41 64/64/40 
f 69/69/42 67/67/40 64/64/40 63/63/42 
f 68/68/43 69/69/42 63/63/42 61/61/43 
f 70/70/44 68/68/43 61/61/43 62/62/44 
f 71/71/45 70/70/44 62/62/44 60/60/45 
f 72/72/46 71/71/45 60/60/45 59/59/46 
f 58/58/47 72/72/46 59/59/46 57/57/47 
s 4
f 10/10/48 44/44/48 43/43/48 11/11/48 
f 29/29/49 65/65/49 66/66/49 30/30/49 
# 56 polygons - 12 triangles

