# 3ds Max Wavefront OBJ Exporter v0.97b - (c)2007 guruware
# File Created: 23.04.2014 16:15:18

mtllib 2pir_komoda.mtl

#
# object Plane068
#

v  -46.4600 -44.7919 26.5440
v  -23.1525 -44.7919 26.5440
v  -23.1525 -23.1001 26.5440
v  -46.4600 -23.1001 26.5440
v  0.1550 -44.7919 26.5440
v  0.1550 -23.1001 26.5440
v  23.4625 -44.7919 26.5440
v  23.4625 -23.1001 26.5440
v  46.7701 -44.7919 26.5440
v  46.7701 -23.1001 26.5440
v  -23.1525 -1.4083 26.5440
v  -46.4600 -1.4083 26.5440
v  0.1550 -1.4083 26.5440
v  23.4625 -1.4083 26.5440
v  46.7701 -1.4083 26.5440
v  -23.1525 20.2835 26.5440
v  -46.4600 20.2835 26.5440
v  0.1550 20.2835 26.5440
v  23.4625 20.2835 26.5440
v  46.7701 20.2835 26.5440
v  -23.1525 41.9753 26.5440
v  -46.4600 41.9753 26.5440
v  0.1550 41.9753 26.5440
v  23.4625 41.9753 26.5440
v  46.7701 41.9753 26.5440
# 25 vertices

vn 0.0000 -0.0000 1.0000
# 1 vertex normals

vt 0.0000 0.0000 0.0000
vt 0.2500 0.0000 0.0000
vt 0.2500 0.2500 0.0000
vt 0.0000 0.2500 0.0000
vt 0.5000 0.0000 0.0000
vt 0.5000 0.2500 0.0000
vt 0.7500 0.0000 0.0000
vt 0.7500 0.2500 0.0000
vt 1.0000 0.0000 0.0000
vt 1.0000 0.2500 0.0000
vt 0.2500 0.5000 0.0000
vt 0.0000 0.5000 0.0000
vt 0.5000 0.5000 0.0000
vt 0.7500 0.5000 0.0000
vt 1.0000 0.5000 0.0000
vt 0.2500 0.7500 0.0000
vt 0.0000 0.7500 0.0000
vt 0.5000 0.7500 0.0000
vt 0.7500 0.7500 0.0000
vt 1.0000 0.7500 0.0000
vt 0.2500 1.0000 0.0000
vt 0.0000 1.0000 0.0000
vt 0.5000 1.0000 0.0000
vt 0.7500 1.0000 0.0000
vt 1.0000 1.0000 0.0000
# 25 texture coords

g Plane068
usemtl szary_niezmienialny
s 1
f 1/1/1 2/2/1 3/3/1 4/4/1 
f 2/2/1 5/5/1 6/6/1 3/3/1 
f 5/5/1 7/7/1 8/8/1 6/6/1 
f 7/7/1 9/9/1 10/10/1 8/8/1 
f 4/4/1 3/3/1 11/11/1 12/12/1 
f 3/3/1 6/6/1 13/13/1 11/11/1 
f 6/6/1 8/8/1 14/14/1 13/13/1 
f 8/8/1 10/10/1 15/15/1 14/14/1 
f 12/12/1 11/11/1 16/16/1 17/17/1 
f 11/11/1 13/13/1 18/18/1 16/16/1 
f 13/13/1 14/14/1 19/19/1 18/18/1 
f 14/14/1 15/15/1 20/20/1 19/19/1 
f 17/17/1 16/16/1 21/21/1 22/22/1 
f 16/16/1 18/18/1 23/23/1 21/21/1 
f 18/18/1 19/19/1 24/24/1 23/23/1 
f 19/19/1 20/20/1 25/25/1 24/24/1 
# 16 polygons

#
# object Box002
#

v  -47.8472 41.3786 -28.6415
v  -47.8472 -43.9368 -28.6415
v  -47.8471 -43.9368 26.7724
v  -47.8471 41.3786 26.7724
v  -45.5154 41.3786 -28.6415
v  -45.5153 41.3786 26.7724
v  -45.5154 -43.9368 26.7724
v  -45.5154 -43.9368 -28.6415
# 8 vertices

vn -1.0000 0.0000 0.0000
vn 1.0000 -0.0000 -0.0000
vn 0.0000 -1.0000 -0.0000
vn -0.0000 0.0000 -1.0000
vn 0.0000 1.0000 -0.0000
vn 0.0000 -0.0000 1.0000
# 6 vertex normals

vt 0.0000 1.0000 0.0000
vt 0.0000 0.0000 0.0000
vt 1.0000 0.0000 0.0000
vt 1.0000 1.0000 0.0000
# 4 texture coords

g Box002
usemtl szary_niezmienialny
s 2
f 26/26/2 27/27/2 28/28/2 29/29/2 
s 4
f 30/29/3 31/26/3 32/27/3 33/28/3 
s 8
f 33/29/4 32/26/4 28/27/4 27/28/4 
s 16
f 30/29/5 33/26/5 27/27/5 26/28/5 
s 32
f 31/29/6 30/26/6 26/27/6 29/28/6 
s 64
f 32/29/7 31/26/7 29/27/7 28/28/7 
# 6 polygons

#
# object Box001
#

v  45.5465 41.3786 -28.6415
v  45.5465 -43.9368 -28.6415
v  45.5466 -43.9368 26.7724
v  45.5466 41.3786 26.7724
v  47.8783 41.3786 -28.6415
v  47.8784 41.3786 26.7724
v  47.8783 -43.9368 26.7724
v  47.8783 -43.9368 -28.6415
# 8 vertices

vn -1.0000 0.0000 0.0000
vn 1.0000 -0.0000 -0.0000
vn 0.0000 -1.0000 -0.0000
vn -0.0000 0.0000 -1.0000
vn 0.0000 1.0000 -0.0000
vn 0.0000 -0.0000 1.0000
# 6 vertex normals

vt 0.0000 1.0000 0.0000
vt 0.0000 0.0000 0.0000
vt 1.0000 0.0000 0.0000
vt 1.0000 1.0000 0.0000
# 4 texture coords

g Box001
usemtl szary_niezmienialny
s 2
f 34/30/8 35/31/8 36/32/8 37/33/8 
s 4
f 38/33/9 39/30/9 40/31/9 41/32/9 
s 8
f 41/33/10 40/30/10 36/31/10 35/32/10 
s 16
f 38/33/11 41/30/11 35/31/11 34/32/11 
s 32
f 39/33/12 38/30/12 34/31/12 37/32/12 
s 64
f 40/33/13 39/30/13 37/31/13 36/32/13 
# 6 polygons

#
# object Plane069
#

v  46.7701 41.9753 -28.4829
v  46.7701 -44.7919 -28.4829
v  -46.4600 -44.7919 -28.4829
v  -46.4600 41.9753 -28.4829
# 4 vertices

vn 0.0000 0.0000 -1.0000
# 1 vertex normals

vt 1.0000 1.0000 0.0000
vt 1.0000 0.0000 0.0000
vt 0.0000 0.0000 0.0000
vt 0.0000 1.0000 0.0000
# 4 texture coords

g Plane069
usemtl szary_niezmienialny
s 1
f 42/34/14 43/35/14 44/36/14 45/37/14 
# 1 polygons

#
# object Rectangle060
#

v  -48.2771 42.9422 26.6414
v  -48.3696 42.1402 26.6414
v  -48.3697 42.1402 28.6414
v  -48.2771 42.9422 28.6414
v  -48.0136 43.6786 26.6414
v  -48.0136 43.6786 28.6414
v  -47.6002 44.3285 26.6414
v  -47.6002 44.3285 28.6414
v  -47.0580 44.8707 26.6414
v  -47.0580 44.8707 28.6414
v  -46.4081 45.2841 26.6414
v  -46.4081 45.2841 28.6414
v  -45.6716 45.5477 26.6414
v  -45.6716 45.5477 28.6414
v  -44.8696 45.6402 26.6414
v  -44.8697 45.6402 28.6414
v  -0.0000 45.6402 28.6415
v  -0.0000 45.6402 26.6415
v  45.6716 45.5477 26.6416
v  44.8697 45.6402 26.6416
v  44.8697 45.6402 28.6416
v  45.6716 45.5477 28.6416
v  46.4081 45.2842 26.6416
v  46.4081 45.2842 28.6416
v  47.0580 44.8707 26.6416
v  47.0580 44.8707 28.6416
v  47.6002 44.3285 26.6416
v  47.6002 44.3285 28.6416
v  48.0136 43.6786 26.6416
v  48.0136 43.6786 28.6416
v  48.2771 42.9422 26.6416
v  48.2771 42.9422 28.6416
v  48.3697 42.1402 26.6416
v  48.3697 42.1402 28.6416
v  48.3697 15.5637 28.6416
v  48.3697 15.5637 26.6416
v  48.2771 -41.4650 26.6416
v  48.3697 -40.6631 26.6416
v  48.3697 -40.6631 28.6416
v  48.2771 -41.4650 28.6416
v  48.0136 -42.2015 26.6416
v  48.0136 -42.2015 28.6416
v  47.6002 -42.8514 26.6416
v  47.6002 -42.8514 28.6416
v  47.0580 -43.3936 26.6416
v  47.0580 -43.3936 28.6416
v  46.4081 -43.8070 26.6416
v  46.4081 -43.8070 28.6416
v  45.6716 -44.0705 26.6416
v  45.6716 -44.0705 28.6416
v  44.8697 -44.1631 26.6416
v  44.8697 -44.1631 28.6416
v  0.2707 -44.1631 28.6415
v  0.2707 -44.1631 26.6415
v  -45.6716 -44.0705 26.6414
v  -44.8696 -44.1631 26.6414
v  -44.8697 -44.1631 28.6414
v  -45.6716 -44.0705 28.6414
v  -46.4081 -43.8070 26.6414
v  -46.4081 -43.8070 28.6414
v  -47.0580 -43.3936 26.6414
v  -47.0580 -43.3936 28.6414
v  -47.6002 -42.8514 26.6414
v  -47.6002 -42.8514 28.6414
v  -48.0136 -42.2015 26.6414
v  -48.0136 -42.2015 28.6414
v  -48.2771 -41.4650 26.6414
v  -48.2771 -41.4650 28.6414
v  -48.3696 -40.6631 26.6414
v  -48.3697 -40.6631 28.6414
v  -48.3697 14.9414 28.6414
v  -48.3696 14.9413 26.6414
v  -0.2707 -44.1631 28.6415
v  -0.2707 14.9414 28.6415
v  -0.2707 -44.1631 26.6415
v  -0.2707 14.9414 26.6415
v  48.3697 14.9414 26.6416
v  48.3697 14.9414 28.6416
v  -48.3696 15.5636 26.6414
v  -48.3697 15.5637 28.6414
v  -0.0000 15.5637 28.6415
v  0.0000 15.5637 26.6415
v  0.2707 14.9414 28.6415
v  0.2707 14.9414 26.6415
# 84 vertices

vn -0.9738 0.2272 -0.0000
vn -0.9934 0.1146 -0.0000
vn -0.8982 0.4395 -0.0000
vn -0.7801 0.6257 -0.0000
vn -0.6257 0.7801 -0.0000
vn -0.4395 0.8982 -0.0000
vn -0.2272 0.9738 -0.0000
vn -0.1146 0.9934 -0.0000
vn 0.0000 1.0000 -0.0000
vn 0.2272 0.9738 0.0000
vn 0.1146 0.9934 0.0000
vn 0.4395 0.8982 0.0000
vn 0.6257 0.7801 0.0000
vn 0.7801 0.6257 0.0000
vn 0.8982 0.4395 0.0000
vn 0.9738 0.2272 0.0000
vn 0.9934 0.1146 0.0000
vn 1.0000 0.0000 0.0000
vn 0.9738 -0.2272 0.0000
vn 0.9934 -0.1146 0.0000
vn 0.8982 -0.4395 0.0000
vn 0.7801 -0.6257 0.0000
vn 0.6257 -0.7801 0.0000
vn 0.4395 -0.8982 0.0000
vn 0.2272 -0.9738 0.0000
vn 0.1146 -0.9934 0.0000
vn 0.0000 -1.0000 -0.0000
vn -0.2272 -0.9738 -0.0000
vn -0.1146 -0.9934 -0.0000
vn -0.4395 -0.8982 -0.0000
vn -0.6257 -0.7801 -0.0000
vn -0.7801 -0.6257 -0.0000
vn -0.8982 -0.4395 -0.0000
vn -0.9738 -0.2272 -0.0000
vn -0.9934 -0.1146 -0.0000
vn -1.0000 -0.0000 -0.0000
vn -0.0000 0.0000 1.0000
vn 0.0000 -0.0000 -1.0000
vn 0.0000 0.0000 -1.0000
vn 0.0000 -1.0000 0.0000
vn -0.0000 1.0000 -0.0000
# 41 vertex normals

vt 0.8078 0.4820 0.0005
vt 0.8076 0.4786 0.0005
vt 0.8076 0.4786 0.9995
vt 0.8078 0.4820 0.9995
vt 0.8083 0.4850 0.0005
vt 0.8083 0.4850 0.9995
vt 0.8090 0.4878 0.0005
vt 0.8090 0.4878 0.9995
vt 0.8100 0.4900 0.0005
vt 0.8100 0.4900 0.9995
vt 0.8111 0.4918 0.0005
vt 0.8111 0.4918 0.9995
vt 0.8125 0.4929 0.0005
vt 0.8125 0.4929 0.9995
vt 0.8139 0.4933 0.0005
vt 0.8139 0.4933 0.9995
vt 0.8944 0.4933 0.9995
vt 0.8944 0.4933 0.0005
vt 0.9764 0.4929 0.0005
vt 0.9750 0.4933 0.0005
vt 0.9750 0.4933 0.9995
vt 0.9764 0.4929 0.9995
vt 0.9777 0.4918 0.0005
vt 0.9777 0.4918 0.9995
vt 0.9789 0.4900 0.0005
vt 0.9789 0.4900 0.9995
vt 0.9799 0.4878 0.0005
vt 0.9799 0.4878 0.9995
vt 0.9806 0.4850 0.0005
vt 0.9806 0.4850 0.9995
vt 0.9811 0.4820 0.0005
vt 0.9811 0.4820 0.9995
vt 0.9812 0.4786 0.0005
vt 0.9812 0.4786 0.9995
vt 0.9812 0.3662 0.9995
vt 0.9812 0.3662 0.0005
vt 0.9811 0.1283 0.0005
vt 0.9812 0.1316 0.0005
vt 0.9812 0.1316 0.9995
vt 0.9811 0.1283 0.9995
vt 0.9806 0.1252 0.0005
vt 0.9806 0.1252 0.9995
vt 0.9799 0.1225 0.0005
vt 0.9799 0.1225 0.9995
vt 0.9789 0.1202 0.0005
vt 0.9789 0.1202 0.9995
vt 0.9777 0.1185 0.0005
vt 0.9777 0.1185 0.9995
vt 0.9764 0.1174 0.0005
vt 0.9764 0.1174 0.9995
vt 0.9750 0.1170 0.0005
vt 0.9750 0.1170 0.9995
vt 0.8946 0.1170 0.9995
vt 0.8946 0.1170 0.0005
vt 0.8125 0.1174 0.0005
vt 0.8139 0.1170 0.0005
vt 0.8139 0.1170 0.9995
vt 0.8125 0.1174 0.9995
vt 0.8111 0.1185 0.0005
vt 0.8111 0.1185 0.9995
vt 0.8100 0.1202 0.0005
vt 0.8100 0.1202 0.9995
vt 0.8090 0.1225 0.0005
vt 0.8090 0.1225 0.9995
vt 0.8083 0.1252 0.0005
vt 0.8083 0.1252 0.9995
vt 0.8078 0.1283 0.0005
vt 0.8078 0.1283 0.9995
vt 0.8076 0.1316 0.0005
vt 0.8076 0.1316 0.9995
vt 0.8076 0.3654 0.9995
vt 0.8076 0.3654 0.0005
vt 0.8943 0.1170 0.9995
vt 0.8943 0.3654 0.9995
vt 0.8943 0.1170 0.0005
vt 0.8943 0.3654 0.0005
vt 0.9812 0.3654 0.0005
vt 0.9812 0.3654 0.9995
vt 0.8076 0.3662 0.0005
vt 0.8076 0.3662 0.9995
vt 0.8944 0.3662 0.9995
vt 0.8944 0.3662 0.0005
vt 0.8946 0.3654 0.9995
vt 0.8946 0.3654 0.0005
# 84 texture coords

g Rectangle060
usemtl kolor_1_
s 1
f 46/38/15 47/39/16 48/40/16 49/41/15 
s 3
f 50/42/17 46/38/15 49/41/15 51/43/17 
s 2
f 52/44/18 50/42/17 51/43/17 53/45/18 
f 54/46/19 52/44/18 53/45/18 55/47/19 
f 56/48/20 54/46/19 55/47/19 57/49/20 
f 58/50/21 56/48/20 57/49/20 59/51/21 
f 60/52/22 58/50/21 59/51/21 61/53/22 
s 4
f 62/54/23 63/55/23 60/52/23 61/53/23 
s 2
f 64/56/24 65/57/25 66/58/25 67/59/24 
f 68/60/26 64/56/24 67/59/24 69/61/26 
f 70/62/27 68/60/26 69/61/26 71/63/27 
f 72/64/28 70/62/27 71/63/27 73/65/28 
f 74/66/29 72/64/28 73/65/28 75/67/29 
f 76/68/30 74/66/29 75/67/29 77/69/30 
f 78/70/31 76/68/30 77/69/30 79/71/31 
s 4
f 80/72/32 81/73/32 78/70/32 79/71/32 
s 2
f 82/74/33 83/75/34 84/76/34 85/77/33 
f 86/78/35 82/74/33 85/77/33 87/79/35 
f 88/80/36 86/78/35 87/79/35 89/81/36 
f 90/82/37 88/80/36 89/81/36 91/83/37 
f 92/84/38 90/82/37 91/83/37 93/85/38 
f 94/86/39 92/84/38 93/85/38 95/87/39 
f 96/88/40 94/86/39 95/87/39 97/89/40 
s 4
f 98/90/41 99/91/41 96/88/41 97/89/41 
s 2
f 100/92/42 101/93/43 102/94/43 103/95/42 
f 104/96/44 100/92/42 103/95/42 105/97/44 
f 106/98/45 104/96/44 105/97/44 107/99/45 
f 108/100/46 106/98/45 107/99/45 109/101/46 
f 110/102/47 108/100/46 109/101/46 111/103/47 
f 112/104/48 110/102/47 111/103/47 113/105/48 
f 114/106/49 112/104/48 113/105/48 115/107/49 
s 4
f 116/108/50 117/109/50 114/106/50 115/107/50 
s 16
f 109/101/51 107/99/51 105/97/51 102/94/51 
f 105/97/51 103/95/51 102/94/51 
f 102/94/51 118/110/51 119/111/51 115/107/51 
f 119/111/51 116/108/51 115/107/51 
f 109/101/51 102/94/51 115/107/51 113/105/51 
f 111/103/51 109/101/51 113/105/51 
f 112/104/52 114/106/52 117/109/52 120/112/52 
f 117/109/52 121/113/52 120/112/52 
f 120/112/52 101/93/52 100/92/52 112/104/52 
f 100/92/52 104/96/52 106/98/52 112/104/52 
f 112/104/52 106/98/52 108/100/52 110/102/52 
s 4
f 84/76/32 83/75/32 122/114/32 123/115/32 
f 48/40/50 47/39/50 124/116/50 125/117/50 
s 16
f 79/71/51 77/69/51 75/67/51 71/63/51 
f 75/67/51 73/65/51 71/63/51 
f 71/63/51 69/61/51 67/59/51 79/71/51 
f 67/59/51 66/58/51 62/54/51 79/71/51 
f 79/71/51 62/54/51 126/118/51 80/72/51 
f 47/39/52 46/38/52 50/42/52 54/46/52 
f 50/42/52 52/44/52 54/46/52 
f 54/46/52 56/48/52 58/50/52 47/39/52 
f 58/50/52 60/52/53 63/55/52 47/39/52 
f 47/39/52 63/55/52 127/119/52 124/116/52 
s 4
f 66/58/23 65/57/23 63/55/23 62/54/23 
f 102/94/41 101/93/41 120/112/41 118/110/41 
s 16
f 97/89/51 95/87/51 93/85/51 89/81/51 
f 93/85/51 91/83/51 89/81/51 
f 89/81/51 87/79/51 85/77/51 97/89/51 
f 85/77/51 84/76/51 123/115/51 97/89/51 
f 97/89/51 123/115/51 128/120/51 98/90/51 
f 122/114/52 83/75/52 82/74/52 88/80/52 
f 82/74/52 86/78/52 88/80/52 
f 88/80/52 90/82/52 92/84/52 96/88/52 
f 92/84/52 94/86/52 96/88/52 
f 122/114/52 88/80/52 96/88/52 99/91/52 
f 129/121/52 122/114/52 99/91/52 
f 61/53/51 59/51/51 57/49/51 53/45/51 
f 57/49/51 55/47/51 53/45/51 
f 53/45/51 51/43/51 49/41/51 61/53/51 
f 49/41/51 48/40/51 125/117/51 61/53/51 
f 61/53/51 125/117/51 126/118/51 62/54/51 
f 65/57/52 64/56/52 68/60/52 72/64/52 
f 68/60/52 70/62/52 72/64/52 
f 72/64/52 74/66/52 76/68/52 65/57/52 
f 76/68/52 78/70/52 81/73/52 65/57/52 
f 65/57/52 81/73/52 127/119/52 63/55/52 
s off
f 126/118/54 125/117/54 124/116/54 80/72/54 
f 80/72/54 124/116/54 127/119/54 81/73/54 
f 119/111/55 121/113/55 117/109/55 116/108/55 
f 123/115/55 122/114/55 129/121/55 128/120/55 
f 128/120/50 129/121/50 99/91/50 98/90/50 
f 120/112/32 121/113/32 119/111/32 118/110/32 
# 72 polygons - 12 triangles

#
# object Box003
#

v  47.9208 -45.6402 26.6689
v  -48.0275 -45.6402 26.6688
v  -48.0275 -45.6402 -28.5083
v  47.9208 -45.6402 -28.5082
v  47.9208 -43.6402 26.6689
v  47.9208 -43.6402 -28.5082
v  -48.0275 -43.6402 -28.5083
v  -48.0275 -43.6402 26.6688
# 8 vertices

vn 0.0000 -1.0000 -0.0000
vn 0.0000 1.0000 -0.0000
vn -1.0000 0.0000 -0.0000
vn -0.0000 0.0000 1.0000
vn 1.0000 0.0000 0.0000
vn 0.0000 0.0000 -1.0000
# 6 vertex normals

vt 0.0000 1.0000 0.0000
vt 0.0000 0.0000 0.0000
vt 1.0000 0.0000 0.0000
vt 1.0000 1.0000 0.0000
# 4 texture coords

g Box003
usemtl szary_niezmienialny
s 2
f 130/122/56 131/123/56 132/124/56 133/125/56 
s 4
f 134/125/57 135/122/57 136/123/57 137/124/57 
s 8
f 137/125/58 136/122/58 132/123/58 131/124/58 
s 16
f 134/125/59 137/122/59 131/123/59 130/124/59 
s 32
f 135/125/60 134/122/60 130/123/60 133/124/60 
s 64
f 136/125/61 135/122/61 133/123/61 132/124/61 
# 6 polygons

#
# object Box004
#

v  47.9208 41.2312 26.6689
v  -48.0275 41.2312 26.6688
v  -48.0275 41.2312 -28.5083
v  47.9208 41.2312 -28.5082
v  47.9208 43.2312 26.6689
v  47.9208 43.2312 -28.5082
v  -48.0275 43.2312 -28.5083
v  -48.0275 43.2312 26.6688
# 8 vertices

vn 0.0000 -1.0000 -0.0000
vn 0.0000 1.0000 -0.0000
vn -1.0000 0.0000 -0.0000
vn -0.0000 0.0000 1.0000
vn 1.0000 0.0000 0.0000
vn 0.0000 0.0000 -1.0000
# 6 vertex normals

vt 0.0000 1.0000 0.0000
vt 0.0000 0.0000 0.0000
vt 1.0000 0.0000 0.0000
vt 1.0000 1.0000 0.0000
# 4 texture coords

g Box004
usemtl szary_niezmienialny
s 2
f 138/126/62 139/127/62 140/128/62 141/129/62 
s 4
f 142/129/63 143/126/63 144/127/63 145/128/63 
s 8
f 145/129/64 144/126/64 140/127/64 139/128/64 
s 16
f 142/129/65 145/126/65 139/127/65 138/128/65 
s 32
f 143/129/66 142/126/66 138/127/66 141/128/66 
s 64
f 144/129/67 143/126/67 141/127/67 140/128/67 
# 6 polygons

