# 3ds Max Wavefront OBJ Exporter v0.97b - (c)2007 guruware
# File Created: 23.04.2014 14:53:21

mtllib 2pir_polka_wiszaca.mtl

#
# object Rectangle15
#

v  -42.6641 14.9226 -13.0776
v  -41.9250 15.0078 -13.0776
v  -41.9250 15.0078 -15.0776
v  -42.6641 14.9226 -15.0776
v  -43.3429 14.6797 -13.0776
v  -43.3429 14.6797 -15.0776
v  -43.9419 14.2987 -13.0776
v  -43.9419 14.2987 -15.0776
v  -44.4416 13.7989 -13.0776
v  -44.4416 13.7989 -15.0776
v  -44.8226 13.1999 -13.0776
v  -44.8226 13.1999 -15.0776
v  -45.0655 12.5212 -13.0776
v  -45.0655 12.5212 -15.0776
v  -45.1508 11.7820 -13.0776
v  -45.1508 11.7820 -15.0776
v  -45.1508 -11.7820 -15.0776
v  -45.1508 -11.7820 -13.0776
v  -42.6641 -14.9226 -13.0776
v  -42.6641 -14.9226 -15.0776
v  -41.9250 -15.0078 -15.0776
v  -41.9250 -15.0078 -13.0776
v  -43.3429 -14.6797 -13.0776
v  -43.3429 -14.6797 -15.0776
v  -43.9419 -14.2987 -13.0776
v  -43.9419 -14.2987 -15.0776
v  -44.4416 -13.7989 -13.0776
v  -44.4416 -13.7989 -15.0776
v  -44.8226 -13.1999 -13.0776
v  -44.8226 -13.1999 -15.0776
v  -45.0655 -12.5212 -13.0776
v  -45.0655 -12.5212 -15.0776
v  42.6641 14.9226 -13.0775
v  42.6641 14.9226 -15.0775
v  41.9250 15.0078 -15.0775
v  41.9250 15.0078 -13.0775
v  43.3429 14.6797 -13.0775
v  43.3429 14.6797 -15.0775
v  43.9419 14.2987 -13.0775
v  43.9419 14.2987 -15.0775
v  44.4416 13.7989 -13.0775
v  44.4416 13.7989 -15.0775
v  44.8226 13.1999 -13.0775
v  44.8226 13.1999 -15.0775
v  45.0655 12.5212 -13.0775
v  45.0655 12.5212 -15.0775
v  45.1508 11.7820 -13.0775
v  45.1508 11.7820 -15.0775
v  45.1508 -11.7820 -15.0775
v  45.1508 -11.7820 -13.0775
v  45.0655 -12.5211 -15.0775
v  44.8226 -13.1999 -15.0775
v  43.9419 -14.2986 -15.0775
v  44.4416 -13.7989 -15.0775
v  43.3429 -14.6797 -15.0775
v  42.6641 -14.9225 -15.0775
v  41.9250 -15.0078 -15.0775
v  41.9250 -15.0078 -13.0775
v  42.6641 -14.9225 -13.0775
v  43.9419 -14.2986 -13.0775
v  43.3429 -14.6797 -13.0775
v  44.4416 -13.7989 -13.0775
v  44.8227 -13.1999 -13.0775
v  45.0655 -12.5211 -13.0775
# 64 vertices

vn -0.2272 0.9738 -0.0000
vn -0.1146 0.9934 -0.0000
vn -0.4395 0.8982 -0.0000
vn -0.6257 0.7801 -0.0000
vn -0.7801 0.6256 -0.0000
vn -0.8982 0.4395 -0.0000
vn -0.9738 0.2272 -0.0000
vn -0.9934 0.1146 -0.0000
vn -1.0000 -0.0000 -0.0000
vn -0.2272 -0.9738 -0.0000
vn -0.1146 -0.9934 -0.0000
vn -0.4395 -0.8982 -0.0000
vn -0.6257 -0.7801 -0.0000
vn -0.7801 -0.6257 -0.0000
vn -0.8982 -0.4395 -0.0000
vn -0.9738 -0.2272 -0.0000
vn -0.9934 -0.1146 -0.0000
vn 0.2272 0.9738 0.0000
vn 0.1146 0.9934 0.0000
vn 0.4395 0.8982 0.0000
vn 0.6257 0.7801 0.0000
vn 0.7801 0.6257 0.0000
vn 0.7801 0.6256 0.0000
vn 0.8982 0.4396 0.0000
vn 0.8982 0.4395 0.0000
vn 0.9738 0.2273 -0.0000
vn 0.9738 0.2272 -0.0000
vn 0.9934 0.1146 -0.0000
vn 1.0000 -0.0000 -0.0000
vn 0.0000 0.0000 -1.0000
vn 0.0000 -0.0000 -1.0000
vn -0.0000 0.0000 -1.0000
vn -0.0000 -0.0000 -1.0000
vn -0.0000 0.0000 1.0000
vn 0.0000 0.0000 1.0000
vn -0.0000 -0.0000 1.0000
vn 0.0000 -0.0000 1.0000
vn 0.2272 -0.9738 0.0000
vn 0.1146 -0.9934 0.0000
vn 0.2272 -0.9738 -0.0000
vn 0.4395 -0.8982 -0.0000
vn 0.6257 -0.7801 -0.0000
vn 0.7801 -0.6257 -0.0000
vn 0.8982 -0.4395 -0.0000
vn 0.8982 -0.4396 -0.0000
vn 0.9738 -0.2272 -0.0000
vn 0.9934 -0.1146 -0.0000
vn -0.0000 1.0000 0.0000
vn 0.0000 -1.0000 -0.0000
vn 0.0000 -1.0000 0.0000
# 50 vertex normals

vt 0.4481 0.1017 0.9995
vt 0.4472 0.1086 0.9995
vt 0.4472 0.1086 0.0005
vt 0.4481 0.1017 0.0005
vt 0.4508 0.0953 0.9995
vt 0.4508 0.0953 0.0005
vt 0.4550 0.0897 0.9995
vt 0.4550 0.0897 0.0005
vt 0.4605 0.0851 0.9995
vt 0.4605 0.0851 0.0005
vt 0.4672 0.0815 0.9995
vt 0.4672 0.0815 0.0005
vt 0.4747 0.0792 0.9995
vt 0.4747 0.0792 0.0005
vt 0.4828 0.0784 0.9995
vt 0.4828 0.0784 0.0005
vt 0.7435 0.0784 0.0005
vt 0.7435 0.0784 0.9995
vt 0.7783 0.1017 0.9995
vt 0.7783 0.1017 0.0005
vt 0.7792 0.1086 0.0005
vt 0.7792 0.1086 0.9995
vt 0.7756 0.0953 0.9995
vt 0.7756 0.0953 0.0005
vt 0.7714 0.0897 0.9995
vt 0.7714 0.0897 0.0005
vt 0.7658 0.0851 0.9995
vt 0.7658 0.0851 0.0005
vt 0.7592 0.0815 0.9995
vt 0.7592 0.0815 0.0005
vt 0.7517 0.0792 0.9995
vt 0.7517 0.0792 0.0005
vt 0.4481 0.8983 0.9995
vt 0.4481 0.8983 0.0005
vt 0.4472 0.8914 0.0005
vt 0.4472 0.8914 0.9995
vt 0.4508 0.9047 0.9995
vt 0.4508 0.9047 0.0005
vt 0.4550 0.9103 0.9995
vt 0.4550 0.9103 0.0005
vt 0.4605 0.9149 0.9995
vt 0.4605 0.9149 0.0005
vt 0.4672 0.9185 0.9995
vt 0.4672 0.9185 0.0005
vt 0.4747 0.9208 0.9995
vt 0.4747 0.9208 0.0005
vt 0.4828 0.9216 0.9995
vt 0.4828 0.9216 0.0005
vt 0.7435 0.9216 0.0005
vt 0.7435 0.9216 0.9995
vt 0.7517 0.9208 0.0005
vt 0.7592 0.9185 0.0005
vt 0.7714 0.9103 0.0005
vt 0.7658 0.9149 0.0005
vt 0.7756 0.9047 0.0005
vt 0.7783 0.8983 0.0005
vt 0.7792 0.8914 0.0005
vt 0.7792 0.8914 0.9995
vt 0.7783 0.8983 0.9995
vt 0.7714 0.9103 0.9995
vt 0.7756 0.9047 0.9995
vt 0.7658 0.9149 0.9995
vt 0.7592 0.9185 0.9995
vt 0.7517 0.9208 0.9995
# 64 texture coords

g Rectangle15
usemtl kolor_1_
s 2
f 1/1/1 2/2/2 3/3/2 4/4/1 
f 5/5/3 1/1/1 4/4/1 6/6/3 
f 7/7/4 5/5/3 6/6/3 8/8/4 
f 9/9/5 7/7/4 8/8/4 10/10/5 
f 11/11/6 9/9/5 10/10/5 12/12/6 
f 13/13/7 11/11/6 12/12/6 14/14/7 
f 15/15/8 13/13/7 14/14/7 16/16/8 
s 4
f 17/17/9 18/18/9 15/15/9 16/16/9 
s 2
f 19/19/10 20/20/10 21/21/11 22/22/11 
f 23/23/12 24/24/12 20/20/10 19/19/10 
f 25/25/13 26/26/13 24/24/12 23/23/12 
f 27/27/14 28/28/14 26/26/13 25/25/13 
f 29/29/15 30/30/15 28/28/14 27/27/14 
f 31/31/16 32/32/16 30/30/15 29/29/15 
f 18/18/17 17/17/17 32/32/16 31/31/16 
f 33/33/18 34/34/18 35/35/19 36/36/19 
f 37/37/20 38/38/20 34/34/18 33/33/18 
f 39/39/21 40/40/21 38/38/20 37/37/20 
f 41/41/22 42/42/23 40/40/21 39/39/21 
f 43/43/24 44/44/25 42/42/23 41/41/22 
f 45/45/26 46/46/27 44/44/25 43/43/24 
f 47/47/28 48/48/28 46/46/27 45/45/26 
s 4
f 49/49/29 48/48/29 47/47/29 50/50/29 
s 16
f 46/46/30 48/48/30 49/49/30 38/38/31 
f 49/49/30 51/51/30 52/52/30 53/53/30 
f 52/52/30 54/54/30 53/53/30 
f 53/53/30 55/55/30 56/56/30 21/21/30 
f 56/56/30 57/57/30 21/21/30 
f 49/49/30 53/53/30 21/21/30 38/38/31 
f 20/20/31 24/24/30 26/26/30 21/21/30 
f 26/26/30 28/28/30 30/30/30 17/17/30 
f 30/30/30 32/32/30 17/17/30 
f 21/21/30 26/26/30 17/17/30 6/6/30 
f 17/17/30 16/16/32 14/14/30 6/6/30 
f 14/14/30 12/12/31 10/10/30 6/6/30 
f 10/10/30 8/8/31 6/6/30 
f 6/6/30 4/4/31 3/3/30 21/21/30 
f 21/21/30 3/3/30 35/35/31 38/38/31 
f 35/35/31 34/34/31 38/38/31 
f 38/38/31 40/40/33 42/42/30 46/46/30 
f 44/44/31 46/46/30 42/42/30 
f 41/41/34 39/39/35 37/37/34 50/50/36 
f 37/37/34 33/33/34 36/36/34 22/22/36 
f 2/2/36 1/1/34 5/5/34 22/22/36 
f 5/5/34 7/7/34 9/9/36 18/18/36 
f 9/9/36 11/11/34 13/13/36 18/18/36 
f 13/13/36 15/15/37 18/18/36 
f 18/18/36 31/31/35 29/29/34 25/25/34 
f 29/29/34 27/27/35 25/25/34 
f 25/25/34 23/23/35 19/19/36 22/22/36 
f 18/18/36 25/25/34 22/22/36 5/5/34 
f 36/36/34 2/2/36 22/22/36 
f 22/22/36 58/58/36 59/59/36 60/60/36 
f 59/59/36 61/61/34 60/60/36 
f 60/60/36 62/62/34 63/63/36 50/50/36 
f 63/63/36 64/64/36 50/50/36 
f 22/22/36 60/60/36 50/50/36 37/37/34 
f 50/50/36 47/47/36 45/45/36 41/41/34 
f 43/43/35 41/41/34 45/45/36 
s 2
f 59/59/38 58/58/39 57/57/39 56/56/40 
f 61/61/41 59/59/38 56/56/40 55/55/41 
f 60/60/42 61/61/41 55/55/41 53/53/42 
f 62/62/43 60/60/42 53/53/42 54/54/43 
f 63/63/44 62/62/43 54/54/43 52/52/45 
f 64/64/46 63/63/44 52/52/45 51/51/46 
f 50/50/47 64/64/46 51/51/46 49/49/47 
s 4
f 2/2/48 36/36/48 35/35/48 3/3/48 
f 21/21/49 57/57/50 58/58/50 22/22/49 
# 56 polygons - 12 triangles

#
# object Rectangle16
#

v  -42.6642 -10.2234 14.9922
v  -41.9250 -10.2234 15.0774
v  -41.9250 -8.2234 15.0774
v  -42.6642 -8.2234 14.9922
v  -43.3429 -10.2234 14.7493
v  -43.3429 -8.2234 14.7493
v  -43.9419 -10.2234 14.3683
v  -43.9419 -8.2234 14.3683
v  -44.4416 -10.2234 13.8685
v  -44.4416 -8.2234 13.8685
v  -44.8226 -10.2234 13.2695
v  -44.8226 -8.2234 13.2695
v  -45.0655 -10.2234 12.5908
v  -45.0655 -8.2234 12.5908
v  -45.1508 -10.2234 11.8516
v  -45.1508 -8.2234 11.8516
v  -45.1508 -8.2234 -14.2250
v  -45.1508 -10.2234 -14.2250
v  42.6641 -10.2234 14.9923
v  42.6641 -8.2234 14.9923
v  41.9250 -8.2234 15.0776
v  41.9250 -10.2234 15.0776
v  43.3429 -10.2234 14.7494
v  43.3429 -8.2234 14.7494
v  43.9419 -10.2234 14.3684
v  43.9419 -8.2234 14.3684
v  44.4416 -10.2234 13.8687
v  44.4416 -8.2234 13.8687
v  44.8226 -10.2234 13.2697
v  44.8226 -8.2234 13.2697
v  45.0655 -10.2234 12.5909
v  45.0655 -8.2234 12.5909
v  45.1508 -10.2234 11.8518
v  45.1508 -8.2234 11.8518
v  45.1508 -10.2234 -14.2250
v  45.1508 -8.2234 -14.2250
# 36 vertices

vn -0.2272 0.0000 0.9738
vn -0.1146 0.0000 0.9934
vn -0.4395 0.0000 0.8982
vn -0.6257 0.0000 0.7801
vn -0.7801 0.0000 0.6256
vn -0.8982 0.0000 0.4395
vn -0.9738 0.0000 0.2272
vn -0.9934 0.0000 0.1146
vn -1.0000 0.0000 -0.0000
vn 0.2272 -0.0000 0.9738
vn 0.1146 -0.0000 0.9934
vn 0.4395 -0.0000 0.8982
vn 0.6257 -0.0000 0.7801
vn 0.7801 -0.0000 0.6257
vn 0.8982 -0.0000 0.4396
vn 0.9738 0.0000 0.2273
vn 0.9738 0.0000 0.2272
vn 0.9934 0.0000 0.1146
vn 1.0000 0.0000 0.0000
vn -0.0000 1.0000 0.0000
vn 0.0000 1.0000 0.0000
vn 0.0000 1.0000 -0.0000
vn -0.0000 1.0000 -0.0000
vn -0.0000 -1.0000 -0.0000
vn 0.0000 -1.0000 0.0000
vn 0.0000 -1.0000 -0.0000
vn -0.0000 -1.0000 0.0000
vn -0.0000 0.0000 1.0000
vn 0.0000 0.0000 -1.0000
# 29 vertex normals

vt 0.0280 0.0005 0.0034
vt 0.0362 0.0005 0.0005
vt 0.0362 0.0900 0.0005
vt 0.0280 0.0900 0.0034
vt 0.0205 0.0005 0.0117
vt 0.0205 0.0900 0.0117
vt 0.0139 0.0005 0.0247
vt 0.0139 0.0900 0.0247
vt 0.0083 0.0005 0.0417
vt 0.0083 0.0900 0.0417
vt 0.0041 0.0005 0.0621
vt 0.0041 0.0900 0.0621
vt 0.0014 0.0005 0.0853
vt 0.0014 0.0900 0.0853
vt 0.8895 0.0005 0.0005
vt 0.9147 0.0005 0.0014
vt 0.9147 0.0900 0.0014
vt 0.8895 0.0900 0.0005
vt 0.0005 0.0900 0.0005
vt 0.0005 0.0005 0.0005
vt 0.9720 0.0005 0.0034
vt 0.9720 0.0900 0.0034
vt 0.9638 0.0900 0.0005
vt 0.9638 0.0005 0.0005
vt 0.9795 0.0005 0.0117
vt 0.9795 0.0900 0.0117
vt 0.9861 0.0005 0.0247
vt 0.9861 0.0900 0.0247
vt 0.9917 0.0005 0.0417
vt 0.9917 0.0900 0.0417
vt 0.9959 0.0005 0.0621
vt 0.9959 0.0900 0.0621
vt 0.9986 0.0005 0.0853
vt 0.9986 0.0900 0.0853
vt 0.1105 0.0005 0.9995
vt 0.1105 0.0900 0.9995
vt 0.0853 0.0900 0.9986
vt 0.0853 0.0005 0.9986
vt 0.9995 0.0005 0.9995
vt 0.9995 0.0900 0.9995
vt 0.9986 0.0853 0.0900
vt 0.9995 0.1105 0.0900
vt 0.9995 0.9995 0.0900
vt 0.9917 0.0417 0.0900
vt 0.0005 0.9995 0.0900
vt 0.0005 0.1105 0.0900
vt 0.0041 0.0621 0.0900
vt 0.0014 0.0853 0.0900
vt 0.0083 0.0417 0.0900
vt 0.0139 0.0247 0.0900
vt 0.0280 0.0034 0.0900
vt 0.0205 0.0117 0.0900
vt 0.0362 0.0005 0.0900
vt 0.9638 0.0005 0.0900
vt 0.9795 0.0117 0.0900
vt 0.9720 0.0034 0.0900
vt 0.9861 0.0247 0.0900
vt 0.9959 0.0621 0.0900
vt 0.0083 0.0417 0.0005
vt 0.0139 0.0247 0.0005
vt 0.0205 0.0117 0.0005
vt 0.0014 0.0853 0.0005
vt 0.0280 0.0034 0.0005
vt 0.9720 0.0034 0.0005
vt 0.9795 0.0117 0.0005
vt 0.9861 0.0247 0.0005
vt 0.9959 0.0621 0.0005
vt 0.9917 0.0417 0.0005
vt 0.0005 0.9995 0.0005
vt 0.9986 0.0853 0.0005
vt 0.9995 0.1105 0.0005
vt 0.9995 0.9995 0.0005
vt 0.0005 0.1105 0.0005
vt 0.0041 0.0621 0.0005
vt 0.0005 0.0900 0.9995
vt 0.0005 0.0005 0.9995
# 76 texture coords

g Rectangle16
usemtl Material__37
s 2
f 65/65/51 66/66/52 67/67/52 68/68/51 
f 69/69/53 65/65/51 68/68/51 70/70/53 
f 71/71/54 69/69/53 70/70/53 72/72/54 
f 73/73/55 71/71/54 72/72/54 74/74/55 
f 75/75/56 73/73/55 74/74/55 76/76/56 
f 77/77/57 75/75/56 76/76/56 78/78/57 
f 79/79/58 77/80/57 78/81/57 80/82/58 
s 4
f 81/83/59 82/84/59 79/79/59 80/82/59 
s 2
f 83/85/60 84/86/60 85/87/61 86/88/61 
f 87/89/62 88/90/62 84/86/60 83/85/60 
f 89/91/63 90/92/63 88/90/62 87/89/62 
f 91/93/64 92/94/64 90/92/63 89/91/63 
f 93/95/65 94/96/65 92/94/64 91/93/64 
f 95/97/66 96/98/67 94/96/65 93/95/65 
f 97/99/68 98/100/68 96/101/67 95/102/66 
s 4
f 97/99/69 99/103/69 100/104/69 98/100/69 
s 16
f 96/105/70 98/106/71 100/107/70 92/108/70 
f 100/107/70 81/109/70 80/110/70 76/111/70 
f 80/110/70 78/112/72 76/111/70 
f 76/111/70 74/113/70 72/114/70 68/115/70 
f 72/114/70 70/116/70 68/115/70 
f 68/115/70 67/117/70 85/118/73 88/119/73 
f 85/118/73 84/120/72 88/119/73 
f 76/111/70 68/115/70 88/119/73 100/107/70 
f 88/119/73 90/121/73 92/108/70 100/107/70 
f 94/122/73 96/105/70 92/108/70 
f 91/123/74 89/124/75 87/125/75 95/126/76 
f 87/125/75 83/127/75 86/66/75 65/128/76 
f 86/66/75 66/88/76 65/128/76 
f 65/128/76 69/129/76 71/130/76 75/131/76 
f 71/130/76 73/132/76 75/131/76 
f 87/125/75 65/128/76 75/131/76 99/133/76 
f 75/131/76 77/134/77 79/135/76 99/133/76 
f 79/135/76 82/136/76 99/133/76 
f 99/133/76 97/137/76 95/126/76 87/125/75 
f 93/138/75 91/123/74 95/126/76 
s 4
f 66/66/78 86/88/78 85/87/78 67/67/78 
s off
f 100/139/79 99/140/79 82/103/79 81/104/79 
# 30 polygons - 8 triangles

#
# object Rectangle17
#

v  -0.8597 9.6254 10.2751
v  -0.8597 8.8863 10.3604
v  1.1403 8.8863 10.3604
v  1.1403 9.6254 10.2751
v  -0.8597 10.3042 10.0322
v  1.1403 10.3042 10.0322
v  -0.8597 10.9032 9.6512
v  1.1403 10.9032 9.6512
v  -0.8597 11.4029 9.1514
v  1.1403 11.4029 9.1514
v  -0.8597 11.7839 8.5525
v  1.1403 11.7839 8.5525
v  -0.8597 12.0268 7.8737
v  1.1403 12.0268 7.8737
v  -0.8597 12.1121 7.1346
v  1.1403 12.1121 7.1346
v  1.1404 12.1121 -14.2249
v  -0.8596 12.1121 -14.2249
v  -0.8597 -9.3697 10.3604
v  1.1403 -9.3697 10.3604
v  1.1404 -9.3698 -14.2250
v  -0.8596 -9.3698 -14.2250
# 22 vertices

vn 0.0000 0.2272 0.9738
vn -0.0000 0.1146 0.9934
vn 0.0000 0.4395 0.8982
vn 0.0000 0.6257 0.7801
vn 0.0000 0.7801 0.6256
vn 0.0000 0.8982 0.4395
vn 0.0000 0.9738 0.2272
vn 0.0000 0.9934 0.1146
vn 0.0000 1.0000 0.0000
vn -0.0000 1.0000 0.0000
vn -0.0000 0.0000 1.0000
vn 0.0000 0.0000 -1.0000
vn 1.0000 0.0000 0.0000
vn 1.0000 -0.0000 0.0000
vn 1.0000 -0.0000 -0.0000
vn -1.0000 -0.0000 -0.0000
vn -1.0000 0.0000 0.0000
vn -1.0000 0.0000 -0.0000
# 18 vertex normals

vt 0.4905 0.8883 0.1642
vt 0.4905 0.8552 0.1613
vt 0.5126 0.8552 0.1613
vt 0.5126 0.8883 0.1642
vt 0.4905 0.9186 0.1725
vt 0.5126 0.9186 0.1725
vt 0.4905 0.9454 0.1855
vt 0.5126 0.9454 0.1855
vt 0.4905 0.2025 0.9678
vt 0.4905 0.1855 0.9454
vt 0.5126 0.1855 0.9454
vt 0.5126 0.2025 0.9678
vt 0.4905 0.2230 0.9848
vt 0.5126 0.2230 0.9848
vt 0.4905 0.2461 0.9957
vt 0.5126 0.2461 0.9957
vt 0.4905 0.2713 0.9995
vt 0.5126 0.2713 0.9995
vt 0.5126 0.9995 0.9995
vt 0.4905 0.9995 0.9995
vt 0.4905 0.0387 0.1613
vt 0.5126 0.0387 0.1613
vt 0.4874 0.0387 0.9995
vt 0.5095 0.0387 0.9995
vt 0.5095 0.9995 0.9995
vt 0.4874 0.9995 0.9995
vt 0.9995 0.9995 0.5126
vt 0.2713 0.9995 0.5126
vt 0.2461 0.9957 0.5126
vt 0.2025 0.9678 0.5126
vt 0.2230 0.9848 0.5126
vt 0.1855 0.9454 0.5126
vt 0.1725 0.9186 0.5126
vt 0.1613 0.8552 0.5126
vt 0.1642 0.8883 0.5126
vt 0.1613 0.0387 0.5126
vt 0.9995 0.0387 0.5126
vt 0.8387 0.8552 0.4905
vt 0.8358 0.8883 0.4905
vt 0.8275 0.9186 0.4905
vt 0.7975 0.9678 0.4905
vt 0.8145 0.9454 0.4905
vt 0.7770 0.9848 0.4905
vt 0.7539 0.9957 0.4905
vt 0.7287 0.9995 0.4905
vt 0.0005 0.9995 0.4905
vt 0.0005 0.0387 0.4905
vt 0.8387 0.0387 0.4905
# 48 texture coords

g Rectangle17
usemtl Material__37
s 2
f 101/141/80 102/142/81 103/143/81 104/144/80 
f 105/145/82 101/141/80 104/144/80 106/146/82 
f 107/147/83 105/145/82 106/146/82 108/148/83 
f 109/149/84 107/150/83 108/151/83 110/152/84 
f 111/153/85 109/149/84 110/152/84 112/154/85 
f 113/155/86 111/153/85 112/154/85 114/156/86 
f 115/157/87 113/155/86 114/156/86 116/158/87 
s 4
f 117/159/88 118/160/89 115/157/88 116/158/88 
f 102/142/90 119/161/90 120/162/90 103/143/90 
s off
f 121/163/91 122/164/91 118/165/91 117/166/91 
s 16
f 117/167/92 116/168/92 114/169/92 110/170/92 
f 114/169/92 112/171/93 110/170/92 
f 110/170/92 108/172/94 106/173/92 103/174/92 
f 106/173/92 104/175/94 103/174/92 
f 117/167/92 110/170/92 103/174/92 120/176/92 
f 121/177/92 117/167/92 120/176/92 
f 102/178/95 101/179/96 105/180/97 109/181/95 
f 105/180/97 107/182/96 109/181/95 
f 109/181/95 111/183/96 113/184/95 102/178/95 
f 113/184/95 115/185/95 118/186/95 102/178/95 
f 102/178/95 118/186/95 122/187/95 119/188/95 
# 17 polygons - 4 triangles

