# 3ds Max Wavefront OBJ Exporter v0.97b - (c)2007 guruware
# File Created: 23.04.2014 14:53:57

mtllib 2pir_szafa_narozna.mtl

#
# object Line01
#

v  44.6487 106.0475 11.3693
v  11.0041 106.0474 44.4215
v  11.0041 -108.2258 44.4215
v  44.6487 -108.2258 11.3693
v  44.6754 106.0475 -45.6263
v  44.6754 -108.2258 -45.6263
v  -45.6040 106.0475 -45.6263
v  -45.6040 -108.2258 -45.6263
v  -45.6040 106.0474 44.4215
v  -45.6040 -108.2258 44.4215
# 10 vertices

vn 0.7008 0.0000 0.7134
vn 1.0000 0.0000 0.0005
vn -0.0000 -0.0000 -1.0000
vn -1.0000 0.0000 0.0000
vn -1.0000 0.0000 -0.0000
vn -0.0000 0.0000 1.0000
vn 0.0000 -1.0000 -0.0000
vn 0.0000 1.0000 0.0000
vn 0.0000 1.0000 -0.0000
vn -0.0000 1.0000 0.0000
# 10 vertex normals

vt 0.9992 0.9995 0.3672
vt 0.6269 0.9995 0.0005
vt 0.6269 0.0005 0.0005
vt 0.9992 0.0005 0.3672
vt 0.9995 0.9995 0.9995
vt 0.3672 0.9995 0.9992
vt 0.3672 0.0005 0.9992
vt 0.9995 0.0005 0.9995
vt 0.0005 0.9995 0.9995
vt 0.0005 0.0005 0.9995
vt 0.9995 0.9995 0.0005
vt 0.0005 0.9995 0.0005
vt 0.0005 0.0005 0.0005
vt 0.9995 0.0005 0.0005
vt 0.0008 0.3672 0.0005
vt 0.3731 0.0005 0.0005
vt 0.9992 0.3672 0.9995
vt 0.6269 0.0005 0.9995
# 18 texture coords

g Line01
usemtl Material__37
s 1
f 1/1/1 2/2/1 3/3/1 4/4/1 
s 4
f 5/5/2 1/6/2 4/7/2 6/8/2 
s 2
f 7/5/3 5/9/3 6/10/3 8/8/3 
s 4
f 9/11/4 7/12/4 8/13/4 10/14/5 
s 2
f 2/2/6 9/12/6 10/13/6 3/3/6 
s 16
f 4/15/7 3/16/7 10/14/7 8/11/7 
f 4/15/7 8/11/7 6/12/7 
f 1/17/8 5/5/9 7/9/10 9/10/10 
f 1/17/8 9/10/10 2/18/8 
# 7 polygons - 2 triangles

#
# object Rectangle10
#

v  15.0206 108.1389 43.8340
v  15.5533 108.2258 43.3012
v  14.1117 108.2258 41.8596
v  13.5790 108.1389 42.3924
v  14.5313 107.8913 44.3232
v  13.0897 107.8913 42.8817
v  14.0996 107.5029 44.7550
v  12.6580 107.5029 43.3134
v  13.7394 106.9935 45.1152
v  12.2978 106.9935 43.6736
v  13.4647 106.3829 45.3898
v  12.0232 106.3829 43.9482
v  13.2897 105.6910 45.5649
v  11.8481 105.6910 44.1233
v  13.2282 104.9376 45.6263
v  11.7866 104.9376 44.1847
v  11.7866 -104.7530 44.1847
v  13.2282 -104.7530 45.6262
v  15.0206 -107.9543 43.8339
v  13.5790 -107.9543 42.3923
v  14.1118 -108.0412 41.8595
v  15.5533 -108.0412 43.3011
v  14.5313 -107.7067 44.3231
v  13.0897 -107.7067 42.8816
v  14.0996 -107.3183 44.7549
v  12.6580 -107.3183 43.3133
v  13.7394 -106.8089 45.1151
v  12.2978 -106.8089 43.6735
v  13.4648 -106.1983 45.3897
v  12.0232 -106.1983 43.9481
v  13.2897 -105.5064 45.5648
v  11.8481 -105.5064 44.1232
v  43.8116 108.1389 15.3916
v  42.3701 108.1389 13.9500
v  41.8373 108.2258 14.4828
v  43.2789 108.2258 15.9244
v  44.3009 107.8913 14.9023
v  42.8593 107.8913 13.4608
v  44.7326 107.5029 14.4706
v  43.2910 107.5029 13.0290
v  45.0928 106.9935 14.1104
v  43.6512 106.9935 12.6688
v  45.3675 106.3829 13.8358
v  43.9259 106.3829 12.3942
v  45.5425 105.6910 13.6607
v  44.1009 105.6910 12.2191
v  45.6040 104.9376 13.5992
v  44.1624 104.9376 12.1577
v  44.1624 -104.7530 12.1576
v  45.6040 -104.7530 13.5992
v  44.1010 -105.5064 12.2190
v  43.9259 -106.1983 12.3941
v  43.2911 -107.3183 13.0289
v  43.6512 -106.8089 12.6687
v  42.8593 -107.7067 13.4607
v  42.3701 -107.9543 13.9499
v  41.8373 -108.0412 14.4827
v  43.2789 -108.0412 15.9243
v  43.8116 -107.9543 15.3915
v  44.7326 -107.3183 14.4705
v  44.3009 -107.7067 14.9023
v  45.0928 -106.8089 14.1103
v  45.3675 -106.1983 13.8357
v  45.5425 -105.5064 13.6606
# 64 vertices

vn -0.1607 0.9738 0.1607
vn -0.0810 0.9934 0.0810
vn -0.3108 0.8982 0.3108
vn -0.4424 0.7801 0.4424
vn -0.5516 0.6257 0.5516
vn -0.6351 0.4395 0.6351
vn -0.6886 0.2272 0.6886
vn -0.7024 0.1146 0.7024
vn -0.7071 -0.0000 0.7071
vn -0.1607 -0.9738 0.1607
vn -0.0810 -0.9934 0.0810
vn -0.3108 -0.8982 0.3108
vn -0.4424 -0.7801 0.4424
vn -0.5516 -0.6257 0.5516
vn -0.6351 -0.4395 0.6351
vn -0.6886 -0.2272 0.6886
vn -0.7024 -0.1146 0.7024
vn 0.1607 0.9738 -0.1607
vn 0.0810 0.9934 -0.0810
vn 0.3108 0.8982 -0.3108
vn 0.4424 0.7801 -0.4424
vn 0.5516 0.6257 -0.5516
vn 0.6351 0.4395 -0.6351
vn 0.6886 0.2272 -0.6886
vn 0.7024 0.1146 -0.7024
vn 0.7071 0.0000 -0.7071
vn -0.7071 -0.0000 -0.7071
vn -0.7071 0.0000 -0.7071
vn -0.7034 -0.0010 -0.7108
vn -0.7067 0.0006 -0.7075
vn -0.7034 -0.0039 -0.7107
vn -0.7028 -0.0139 -0.7113
vn -0.7049 -0.0001 -0.7093
vn -0.7016 -0.0548 -0.7105
vn -0.7048 -0.0000 -0.7094
vn -0.7050 0.0006 -0.7093
vn 0.7071 -0.0000 0.7071
vn 0.7067 -0.0006 0.7075
vn 0.7034 0.0010 0.7108
vn 0.7071 0.0000 0.7071
vn 0.7050 -0.0005 0.7093
vn 0.7049 0.0001 0.7093
vn 0.7048 -0.0000 0.7094
vn 0.7016 0.0548 0.7105
vn 0.7028 0.0139 0.7113
vn 0.7034 0.0039 0.7107
vn 0.1607 -0.9738 -0.1607
vn 0.0811 -0.9934 -0.0811
vn 0.3108 -0.8982 -0.3108
vn 0.4424 -0.7801 -0.4424
vn 0.5516 -0.6257 -0.5516
vn 0.6351 -0.4396 -0.6351
vn 0.6886 -0.2272 -0.6886
vn 0.7024 -0.1146 -0.7024
vn -0.0000 1.0000 0.0000
vn 0.0000 -1.0000 -0.0000
# 56 vertex normals

vt 0.6798 0.0009 0.8917
vt 0.6764 0.0005 0.8917
vt 0.6764 0.0005 0.0005
vt 0.6798 0.0009 0.0005
vt 0.6829 0.0020 0.8917
vt 0.6829 0.0020 0.0005
vt 0.6857 0.0038 0.8917
vt 0.6857 0.0038 0.0005
vt 0.6880 0.0061 0.8917
vt 0.6880 0.0061 0.0005
vt 0.6898 0.0088 0.8917
vt 0.6898 0.0088 0.0005
vt 0.6909 0.0120 0.8917
vt 0.6909 0.0120 0.0005
vt 0.6913 0.0154 0.8917
vt 0.6913 0.0154 0.0005
vt 0.6913 0.9846 0.0005
vt 0.6913 0.9846 0.8917
vt 0.6798 0.9991 0.8917
vt 0.6798 0.9991 0.0005
vt 0.6764 0.9995 0.0005
vt 0.6764 0.9995 0.8917
vt 0.6829 0.9980 0.8917
vt 0.6829 0.9980 0.0005
vt 0.6857 0.9962 0.8917
vt 0.6857 0.9962 0.0005
vt 0.6880 0.9939 0.8917
vt 0.6880 0.9939 0.0005
vt 0.6898 0.9912 0.8917
vt 0.6898 0.9912 0.0005
vt 0.6909 0.9880 0.8917
vt 0.6909 0.9880 0.0005
vt 0.4962 0.0009 0.9995
vt 0.4962 0.0009 0.1083
vt 0.4996 0.0005 0.1083
vt 0.4996 0.0005 0.9995
vt 0.4930 0.0020 0.9995
vt 0.4930 0.0020 0.1083
vt 0.4903 0.0038 0.9995
vt 0.4903 0.0038 0.1083
vt 0.4880 0.0061 0.9995
vt 0.4880 0.0061 0.1083
vt 0.4862 0.0088 0.9995
vt 0.4862 0.0088 0.1083
vt 0.4851 0.0120 0.9995
vt 0.4851 0.0120 0.1083
vt 0.4847 0.0154 0.9995
vt 0.4847 0.0154 0.1083
vt 0.4847 0.9846 0.1083
vt 0.4847 0.9846 0.9995
vt 0.4851 0.9880 0.1083
vt 0.4862 0.9912 0.1083
vt 0.4903 0.9962 0.1083
vt 0.4880 0.9939 0.1083
vt 0.4931 0.9980 0.1083
vt 0.4962 0.9991 0.1083
vt 0.4996 0.9995 0.1083
vt 0.4996 0.9995 0.9995
vt 0.4962 0.9991 0.9995
vt 0.4903 0.9962 0.9995
vt 0.4931 0.9980 0.9995
vt 0.4880 0.9939 0.9995
vt 0.4862 0.9912 0.9995
vt 0.4851 0.9880 0.9995
# 64 texture coords

g Rectangle10
usemtl kolor_1_
s 2
f 11/19/11 12/20/12 13/21/12 14/22/11 
f 15/23/13 11/19/11 14/22/11 16/24/13 
f 17/25/14 15/23/13 16/24/13 18/26/14 
f 19/27/15 17/25/14 18/26/14 20/28/15 
f 21/29/16 19/27/15 20/28/15 22/30/16 
f 23/31/17 21/29/16 22/30/16 24/32/17 
f 25/33/18 23/31/17 24/32/17 26/34/18 
s 4
f 27/35/19 28/36/19 25/33/19 26/34/19 
s 2
f 29/37/20 30/38/20 31/39/21 32/40/21 
f 33/41/22 34/42/22 30/38/20 29/37/20 
f 35/43/23 36/44/23 34/42/22 33/41/22 
f 37/45/24 38/46/24 36/44/23 35/43/23 
f 39/47/25 40/48/25 38/46/24 37/45/24 
f 41/49/26 42/50/26 40/48/25 39/47/25 
f 28/36/27 27/35/27 42/50/26 41/49/26 
f 43/51/28 44/52/28 45/53/29 46/54/29 
f 47/55/30 48/56/30 44/52/28 43/51/28 
f 49/57/31 50/58/31 48/56/30 47/55/30 
f 51/59/32 52/60/32 50/58/31 49/57/31 
f 53/61/33 54/62/33 52/60/32 51/59/32 
f 55/63/34 56/64/34 54/62/33 53/61/33 
f 57/65/35 58/66/35 56/64/34 55/63/34 
s 4
f 59/67/36 58/66/36 57/65/36 60/68/36 
s 16
f 56/64/37 58/66/38 59/67/39 48/56/40 
f 59/67/39 61/69/38 62/70/38 63/71/41 
f 62/70/38 64/72/38 63/71/41 
f 63/71/41 65/73/38 66/74/42 31/39/43 
f 66/74/42 67/75/44 31/39/43 
f 59/67/39 63/71/41 31/39/43 48/56/40 
f 30/38/37 34/42/37 36/44/37 31/39/43 
f 36/44/37 38/46/37 40/48/37 27/35/37 
f 40/48/37 42/50/37 27/35/37 
f 31/39/43 36/44/37 27/35/37 16/24/37 
f 27/35/37 26/34/38 24/32/38 16/24/37 
f 24/32/38 22/30/37 20/28/38 16/24/37 
f 20/28/38 18/26/37 16/24/37 
f 16/24/37 14/22/37 13/21/45 31/39/43 
f 31/39/43 13/21/45 45/53/46 48/56/40 
f 45/53/46 44/52/38 48/56/40 
f 48/56/40 50/58/38 52/60/37 56/64/37 
f 54/62/38 56/64/37 52/60/37 
f 51/59/47 49/57/47 47/55/48 60/68/49 
f 47/55/48 43/51/50 46/54/51 32/40/52 
f 12/20/53 11/19/47 15/23/47 32/40/52 
f 15/23/47 17/25/47 19/27/47 28/36/50 
f 19/27/47 21/29/50 23/31/50 28/36/50 
f 23/31/50 25/33/47 28/36/50 
f 28/36/50 41/49/50 39/47/50 35/43/50 
f 39/47/50 37/45/50 35/43/50 
f 35/43/50 33/41/50 29/37/50 32/40/52 
f 28/36/50 35/43/50 32/40/52 15/23/47 
f 46/54/51 12/20/53 32/40/52 
f 32/40/52 68/76/54 69/77/55 70/78/56 
f 69/77/55 71/79/47 70/78/56 
f 70/78/56 72/80/50 73/81/47 60/68/49 
f 73/81/47 74/82/50 60/68/49 
f 32/40/52 70/78/56 60/68/49 47/55/48 
f 60/68/49 57/65/47 55/63/47 51/59/47 
f 53/61/50 51/59/47 55/63/47 
s 2
f 69/77/57 68/76/58 67/75/58 66/74/57 
f 71/79/59 69/77/57 66/74/57 65/73/59 
f 70/78/60 71/79/59 65/73/59 63/71/60 
f 72/80/61 70/78/60 63/71/60 64/72/61 
f 73/81/62 72/80/61 64/72/61 62/70/62 
f 74/82/63 73/81/62 62/70/62 61/69/63 
f 60/68/64 74/82/63 61/69/63 59/67/64 
s 4
f 12/20/65 46/54/65 45/53/65 13/21/65 
f 31/39/66 67/75/66 68/76/66 32/40/66 
# 56 polygons - 12 triangles

