# 3ds Max Wavefront OBJ Exporter v0.97b - (c)2007 guruware
# File Created: 23.04.2014 14:53:12

mtllib 2pir_komoda.mtl

#
# object Rectangle11
#

v  -48.0025 47.1405 21.0450
v  47.9919 47.1405 21.0451
v  47.9919 47.1405 -23.1500
v  -48.0025 47.1405 -23.1501
v  -48.0025 -50.5074 21.0449
v  -48.0025 -50.5074 -23.1502
v  47.9919 -50.5074 21.0450
v  47.9919 -50.5074 -23.1501
# 8 vertices

vn -0.0000 1.0000 0.0000
vn -1.0000 0.0000 -0.0000
vn 0.0000 -1.0000 -0.0000
vn 1.0000 -0.0000 0.0000
vn 0.0000 0.0000 -1.0000
vn -0.0000 -0.0000 1.0000
# 6 vertex normals

vt 0.9995 0.9995 0.9995
vt 0.0005 0.9995 0.9995
vt 0.0005 0.0005 0.9995
vt 0.9995 0.0005 0.9995
vt 0.9995 0.9995 0.0005
vt 0.0005 0.9995 0.0005
vt 0.0005 0.0005 0.0005
vt 0.9995 0.0005 0.0005
# 8 texture coords

g Rectangle11
usemtl Material__37
s 1
f 1/1/1 2/2/1 3/3/1 4/4/1 
s 4
f 5/5/2 1/6/2 4/7/2 6/8/2 
s 2
f 7/5/3 5/6/3 6/7/3 8/8/3 
s 4
f 2/1/4 7/2/4 8/3/4 3/4/4 
s 16
f 6/8/5 4/5/5 3/6/5 8/7/5 
f 2/1/6 1/2/6 5/3/6 7/4/6 
# 6 polygons

#
# object Rectangle10
#

v  48.3525 48.0207 23.1502
v  48.4377 47.2816 23.1502
v  48.4377 47.2816 21.1502
v  48.3525 48.0207 21.1502
v  48.1096 48.6995 23.1502
v  48.1096 48.6995 21.1502
v  47.7285 49.2985 23.1502
v  47.7285 49.2985 21.1502
v  47.2288 49.7982 23.1502
v  47.2288 49.7982 21.1502
v  46.6299 50.1792 23.1502
v  46.6298 50.1792 21.1502
v  45.9511 50.4221 23.1502
v  45.9511 50.4221 21.1502
v  45.2119 50.5074 23.1502
v  45.2119 50.5074 21.1502
v  -45.2119 50.5074 21.1501
v  -45.2119 50.5074 23.1501
v  -45.9511 50.4222 23.1501
v  -45.9511 50.4222 21.1501
v  -46.6299 50.1793 23.1501
v  -46.6299 50.1793 21.1501
v  -47.2288 49.7983 23.1501
v  -47.2288 49.7983 21.1501
v  -47.7286 49.2985 23.1501
v  -47.7286 49.2985 21.1501
v  -48.1096 48.6995 23.1501
v  -48.1096 48.6995 21.1501
v  -48.3525 48.0208 23.1501
v  -48.3525 48.0208 21.1501
v  -48.4377 47.2816 23.1501
v  -48.4377 47.2816 21.1501
v  -48.4377 30.4550 21.1501
v  -48.4377 30.4550 23.1501
v  48.4377 30.4550 21.1502
v  48.4377 30.4550 23.1502
v  48.3525 -47.5905 23.1502
v  48.3525 -47.5905 21.1502
v  48.4377 -46.8513 21.1502
v  48.4377 -46.8513 23.1502
v  48.1096 -48.2692 23.1502
v  48.1096 -48.2692 21.1502
v  47.7286 -48.8682 23.1502
v  47.7286 -48.8682 21.1502
v  47.2288 -49.3680 23.1502
v  47.2288 -49.3680 21.1502
v  46.6299 -49.7490 23.1502
v  46.6299 -49.7490 21.1502
v  45.9511 -49.9919 23.1502
v  45.9511 -49.9919 21.1502
v  45.2119 -50.0771 23.1502
v  45.2119 -50.0771 21.1502
v  0.1748 -50.0771 21.1501
v  0.1748 -50.0771 23.1501
v  -45.9511 -49.9918 23.1501
v  -45.9511 -49.9918 21.1501
v  -45.2119 -50.0771 21.1501
v  -45.2119 -50.0771 23.1501
v  -46.6299 -49.7490 23.1501
v  -46.6299 -49.7490 21.1501
v  -47.2288 -49.3679 23.1501
v  -47.2288 -49.3679 21.1501
v  -47.7285 -48.8682 23.1501
v  -47.7285 -48.8682 21.1501
v  -48.1096 -48.2692 23.1501
v  -48.1096 -48.2692 21.1501
v  -48.3525 -47.5905 23.1501
v  -48.3525 -47.5905 21.1501
v  -48.4377 -46.8513 23.1501
v  -48.4377 -46.8513 21.1501
v  -0.4856 -50.0771 21.1501
v  -0.4856 -50.0771 23.1501
v  -48.4377 10.0019 21.1501
v  -48.4377 10.0019 23.1501
v  -48.4377 29.8150 23.1501
v  -48.4377 29.8150 21.1501
v  48.4377 29.8150 21.1502
v  48.4377 10.0019 21.1502
v  48.4377 10.0019 23.1502
v  48.4377 29.8150 23.1502
v  -48.4377 9.3619 23.1501
v  -48.4377 9.3619 21.1501
v  -0.4856 9.3619 21.1501
v  -0.4856 9.3619 23.1501
v  0.1748 9.3619 21.1501
v  48.4377 9.3619 21.1502
v  48.4377 9.3619 23.1502
v  0.1748 9.3619 23.1501
# 88 vertices

vn 0.9738 0.2272 0.0000
vn 0.9934 0.1146 0.0000
vn 0.8982 0.4395 0.0000
vn 0.8982 0.4395 -0.0000
vn 0.7801 0.6257 -0.0000
vn 0.6257 0.7801 -0.0000
vn 0.4395 0.8982 -0.0000
vn 0.2272 0.9738 -0.0000
vn 0.1146 0.9934 -0.0000
vn 0.0000 1.0000 0.0000
vn -0.2272 0.9738 0.0000
vn -0.1146 0.9934 0.0000
vn -0.4395 0.8982 0.0000
vn -0.6257 0.7801 0.0000
vn -0.7801 0.6257 0.0000
vn -0.7801 0.6256 0.0000
vn -0.8982 0.4396 0.0000
vn -0.8982 0.4395 0.0000
vn -0.9738 0.2272 -0.0000
vn -0.9934 0.1146 -0.0000
vn -1.0000 -0.0000 0.0000
vn -1.0000 0.0000 0.0000
vn -1.0000 0.0000 -0.0000
vn 0.0000 0.0000 -1.0000
vn 0.0000 -0.0000 -1.0000
vn -0.0000 0.0000 -1.0000
vn 1.0000 -0.0000 0.0000
vn 0.9738 -0.2272 0.0000
vn 0.9934 -0.1146 0.0000
vn 0.8982 -0.4395 -0.0000
vn 0.7801 -0.6257 -0.0000
vn 0.6257 -0.7801 -0.0000
vn 0.4395 -0.8982 -0.0000
vn 0.2272 -0.9738 -0.0000
vn 0.1146 -0.9934 -0.0000
vn -0.0000 -1.0000 -0.0000
vn -0.2272 -0.9738 -0.0000
vn -0.1146 -0.9934 -0.0000
vn -0.4395 -0.8982 -0.0000
vn -0.6257 -0.7801 -0.0000
vn -0.7801 -0.6257 -0.0000
vn -0.8982 -0.4395 -0.0000
vn -0.9738 -0.2272 -0.0000
vn -0.9934 -0.1146 -0.0000
vn 0.0000 -1.0000 -0.0000
vn -0.0000 -0.0000 1.0000
vn 0.0000 -0.0000 1.0000
vn -0.0000 0.0000 1.0000
vn 1.0000 0.0000 0.0000
vn -1.0000 -0.0000 -0.0000
vn 0.0000 0.0000 1.0000
# 51 vertex normals

vt 0.0252 0.9986 0.9995
vt 0.0325 0.9995 0.9995
vt 0.0325 0.9995 0.0005
vt 0.0252 0.9986 0.0005
vt 0.0185 0.9961 0.9995
vt 0.0185 0.9961 0.0005
vt 0.0125 0.9922 0.9995
vt 0.0125 0.9922 0.0005
vt 0.0075 0.9870 0.9995
vt 0.0075 0.9870 0.0005
vt 0.0038 0.9809 0.9995
vt 0.0038 0.9809 0.0005
vt 0.0013 0.9739 0.9995
vt 0.0013 0.9739 0.0005
vt 0.0005 0.9662 0.9995
vt 0.0005 0.9662 0.0005
vt 0.0005 0.0338 0.0005
vt 0.0005 0.0338 0.9995
vt 0.0013 0.0261 0.9995
vt 0.0013 0.0261 0.0005
vt 0.0038 0.0191 0.9995
vt 0.0038 0.0191 0.0005
vt 0.0075 0.0130 0.9995
vt 0.0075 0.0130 0.0005
vt 0.0125 0.0078 0.9995
vt 0.0125 0.0078 0.0005
vt 0.0185 0.0039 0.9995
vt 0.0185 0.0039 0.0005
vt 0.0252 0.0014 0.9995
vt 0.0252 0.0014 0.0005
vt 0.0325 0.0005 0.9995
vt 0.0325 0.0005 0.0005
vt 0.1997 0.0005 0.0005
vt 0.1997 0.0005 0.9995
vt 0.1997 0.9995 0.0005
vt 0.1997 0.9995 0.9995
vt 0.9748 0.9986 0.9995
vt 0.9748 0.9986 0.0005
vt 0.9675 0.9995 0.0005
vt 0.9675 0.9995 0.9995
vt 0.9815 0.9961 0.9995
vt 0.9815 0.9961 0.0005
vt 0.9875 0.9922 0.9995
vt 0.9875 0.9922 0.0005
vt 0.9925 0.9870 0.9995
vt 0.9925 0.9870 0.0005
vt 0.9962 0.9809 0.9995
vt 0.9962 0.9809 0.0005
vt 0.9987 0.9739 0.9995
vt 0.9987 0.9739 0.0005
vt 0.9995 0.9662 0.9995
vt 0.9995 0.9662 0.0005
vt 0.9995 0.5018 0.0005
vt 0.9995 0.5018 0.9995
vt 0.9987 0.0261 0.9995
vt 0.9987 0.0261 0.0005
vt 0.9995 0.0338 0.0005
vt 0.9995 0.0338 0.9995
vt 0.9962 0.0191 0.9995
vt 0.9962 0.0191 0.0005
vt 0.9925 0.0130 0.9995
vt 0.9925 0.0130 0.0005
vt 0.9875 0.0078 0.9995
vt 0.9875 0.0078 0.0005
vt 0.9815 0.0039 0.9995
vt 0.9815 0.0039 0.0005
vt 0.9748 0.0014 0.9995
vt 0.9748 0.0014 0.0005
vt 0.9675 0.0005 0.9995
vt 0.9675 0.0005 0.0005
vt 0.9995 0.4950 0.0005
vt 0.9995 0.4950 0.9995
vt 0.4028 0.0005 0.0005
vt 0.4028 0.0005 0.9995
vt 0.2060 0.0005 0.9995
vt 0.2060 0.0005 0.0005
vt 0.2060 0.9995 0.0005
vt 0.4028 0.9995 0.0005
vt 0.4028 0.9995 0.9995
vt 0.2060 0.9995 0.9995
vt 0.4092 0.0005 0.9995
vt 0.4092 0.0005 0.0005
vt 0.4092 0.4950 0.0005
vt 0.4092 0.4950 0.9995
vt 0.4092 0.5018 0.0005
vt 0.4092 0.9995 0.0005
vt 0.4092 0.9995 0.9995
vt 0.4092 0.5018 0.9995
# 88 texture coords

g Rectangle10
usemtl kolor_1_
s 2
f 9/9/7 10/10/8 11/11/8 12/12/7 
f 13/13/9 9/9/7 12/12/7 14/14/10 
f 15/15/11 13/13/9 14/14/10 16/16/11 
f 17/17/12 15/15/11 16/16/11 18/18/12 
f 19/19/13 17/17/12 18/18/12 20/20/13 
f 21/21/14 19/19/13 20/20/13 22/22/14 
f 23/23/15 21/21/14 22/22/14 24/24/15 
s 4
f 25/25/16 26/26/16 23/23/16 24/24/16 
s 2
f 27/27/17 26/26/18 25/25/18 28/28/17 
f 29/29/19 27/27/17 28/28/17 30/30/19 
f 31/31/20 29/29/19 30/30/19 32/32/20 
f 33/33/21 31/31/20 32/32/20 34/34/22 
f 35/35/23 33/33/21 34/34/22 36/36/24 
f 37/37/25 35/35/23 36/36/24 38/38/25 
f 39/39/26 37/37/25 38/38/25 40/40/26 
s 4
f 41/41/27 42/42/27 39/39/28 40/40/29 
s 16
f 24/24/30 22/22/30 20/20/31 16/16/30 
f 20/20/31 18/18/31 16/16/30 
f 16/16/30 14/14/30 12/12/30 24/24/30 
f 12/12/30 11/11/32 43/43/30 24/24/30 
f 24/24/30 43/43/30 41/41/30 25/25/30 
f 38/38/30 36/36/31 34/34/30 40/40/30 
f 34/34/30 32/32/31 30/30/30 25/25/30 
f 30/30/30 28/28/31 25/25/30 
f 40/40/30 34/34/30 25/25/30 41/41/30 
s 4
f 10/10/33 44/44/33 43/43/33 11/11/33 
s 2
f 45/45/34 46/46/34 47/47/35 48/48/35 
f 49/49/36 50/50/36 46/46/34 45/45/34 
f 51/51/37 52/52/37 50/50/36 49/49/36 
f 53/53/38 54/54/38 52/52/37 51/51/37 
f 55/55/39 56/56/39 54/54/38 53/53/38 
f 57/57/40 58/58/40 56/56/39 55/55/39 
f 59/59/41 60/60/41 58/58/40 57/57/40 
s 4
f 61/61/42 60/60/42 59/59/42 62/62/42 
s 2
f 63/63/43 64/64/43 65/65/44 66/66/44 
f 67/67/45 68/68/45 64/64/43 63/63/43 
f 69/69/46 70/70/46 68/68/45 67/67/45 
f 71/71/47 72/72/47 70/70/46 69/69/46 
f 73/73/48 74/74/48 72/72/47 71/71/47 
f 75/75/49 76/76/49 74/74/48 73/73/48 
f 77/77/50 78/78/50 76/76/49 75/75/49 
s 4
f 65/65/51 79/79/51 80/80/51 66/66/51 
s 16
f 9/9/52 13/13/53 15/15/52 19/19/52 
f 15/15/52 17/17/52 19/19/52 
f 19/19/52 21/21/54 23/23/52 9/9/52 
f 27/27/54 29/29/53 31/31/52 37/37/52 
f 33/33/53 35/35/54 37/37/52 31/31/52 
f 26/26/52 27/27/54 37/37/52 42/42/52 
f 37/37/52 39/39/53 42/42/52 
f 26/26/52 42/42/52 44/44/52 23/23/52 
f 9/9/52 23/23/52 44/44/52 10/10/52 
s 4
f 81/81/27 82/82/27 83/83/27 84/84/27 
s 16
f 85/85/30 86/86/30 81/81/30 84/84/30 
s 4
f 87/87/55 86/86/55 85/85/55 88/88/55 
s 16
f 83/83/52 82/82/52 87/87/52 88/88/52 
s 4
f 78/78/27 77/77/56 89/89/27 90/90/27 
s 16
f 79/79/30 65/65/30 64/64/30 70/70/30 
f 64/64/30 68/68/30 70/70/30 
f 70/70/30 72/72/30 74/74/30 78/78/30 
f 74/74/30 76/76/32 78/78/30 
f 79/79/30 70/70/30 78/78/30 90/90/30 
f 91/91/30 79/79/30 90/90/30 
f 77/77/52 75/75/52 73/73/52 69/69/54 
f 73/73/52 71/71/57 69/69/54 
f 69/69/54 67/67/57 63/63/54 77/77/52 
f 63/63/54 66/66/54 80/80/52 77/77/52 
f 77/77/52 80/80/52 92/92/52 89/89/52 
f 47/47/30 46/46/31 50/50/30 54/54/30 
f 50/50/30 52/52/31 54/54/30 
f 54/54/30 56/56/30 58/58/30 47/47/30 
f 58/58/30 60/60/30 61/61/30 47/47/30 
f 47/47/30 61/61/30 93/93/30 94/94/30 
s 4
f 48/48/55 47/47/55 94/94/55 95/95/55 
s 1
f 80/80/55 79/79/55 91/91/55 92/92/55 
s 16
f 62/62/52 59/59/54 57/57/54 53/53/52 
f 57/57/54 55/55/53 53/53/52 
f 53/53/52 51/51/54 49/49/52 48/48/52 
f 49/49/52 45/45/54 48/48/52 
f 62/62/52 53/53/52 48/48/52 95/95/52 
f 96/96/52 62/62/52 95/95/52 
s 1
f 61/61/56 62/62/56 96/96/56 93/93/56 
s off
f 43/43/42 44/44/42 42/42/42 41/41/42 
f 88/88/16 85/85/16 84/84/16 83/83/16 
f 86/86/42 87/87/42 82/82/42 81/81/42 
f 92/92/16 91/91/16 90/90/16 89/89/16 
f 96/96/16 95/95/16 94/94/16 93/93/16 
# 74 polygons - 12 triangles

