# 3ds Max Wavefront OBJ Exporter v0.97b - (c)2007 guruware
# File Created: 23.04.2014 14:53:41

mtllib 2pir_barek.mtl

#
# object Rectangle10
#

v  48.3525 62.8964 23.1502
v  48.4377 62.1573 23.1502
v  48.4377 62.1573 21.1502
v  48.3525 62.8964 21.1502
v  48.1096 63.5752 23.1502
v  48.1096 63.5752 21.1502
v  47.7286 64.1742 23.1502
v  47.7285 64.1742 21.1502
v  47.2288 64.6739 23.1502
v  47.2288 64.6739 21.1502
v  46.6299 65.0549 23.1502
v  46.6299 65.0549 21.1502
v  45.9511 65.2978 23.1502
v  45.9511 65.2978 21.1502
v  45.2119 65.3830 23.1502
v  45.2119 65.3830 21.1502
v  -45.2119 65.3831 21.1501
v  -45.2119 65.3831 23.1501
v  -45.9511 65.2978 23.1501
v  -45.9511 65.2978 21.1501
v  -46.6299 65.0549 23.1501
v  -46.6299 65.0549 21.1501
v  -47.2288 64.6739 23.1501
v  -47.2288 64.6739 21.1501
v  -47.7286 64.1742 23.1501
v  -47.7286 64.1742 21.1501
v  -48.1096 63.5752 23.1501
v  -48.1096 63.5752 21.1501
v  -48.3525 62.8964 23.1501
v  -48.3525 62.8964 21.1501
v  -48.4377 62.1573 23.1501
v  -48.4377 62.1573 21.1501
v  -48.4377 15.5794 21.1501
v  -48.4377 15.5794 23.1501
v  48.4377 15.5793 21.1502
v  48.4377 15.5793 23.1502
v  48.3525 -62.4661 23.1502
v  48.3525 -62.4661 21.1502
v  48.4377 -61.7270 21.1502
v  48.4377 -61.7270 23.1502
v  48.1096 -63.1449 23.1502
v  48.1096 -63.1449 21.1502
v  47.7286 -63.7439 23.1502
v  47.7286 -63.7439 21.1502
v  47.2288 -64.2436 23.1502
v  47.2288 -64.2436 21.1502
v  46.6299 -64.6246 23.1502
v  46.6299 -64.6246 21.1502
v  45.9511 -64.8675 23.1502
v  45.9511 -64.8675 21.1502
v  45.2119 -64.9528 23.1502
v  45.2119 -64.9528 21.1502
v  0.1748 -64.9528 21.1501
v  0.1748 -64.9528 23.1501
v  -45.9511 -64.8675 23.1501
v  -45.9511 -64.8675 21.1501
v  -45.2119 -64.9528 21.1501
v  -45.2119 -64.9528 23.1501
v  -46.6299 -64.6246 23.1501
v  -46.6299 -64.6246 21.1501
v  -47.2288 -64.2436 23.1501
v  -47.2288 -64.2436 21.1501
v  -47.7285 -63.7439 23.1501
v  -47.7285 -63.7439 21.1501
v  -48.1096 -63.1449 23.1501
v  -48.1096 -63.1449 21.1501
v  -48.3525 -62.4661 23.1501
v  -48.3525 -62.4661 21.1501
v  -48.4377 -61.7270 23.1501
v  -48.4377 -61.7270 21.1501
v  -0.4856 -64.9528 21.1501
v  -0.4856 -64.9528 23.1501
v  -48.4377 -4.8737 21.1501
v  -48.4377 -4.8737 23.1501
v  -48.4377 14.9394 23.1501
v  -48.4377 14.9394 21.1501
v  48.4377 14.9393 21.1502
v  48.4377 -4.8738 21.1502
v  48.4377 -4.8738 23.1502
v  48.4377 14.9393 23.1502
v  -48.4377 -5.5137 23.1501
v  -48.4377 -5.5137 21.1501
v  -0.4856 -5.5138 21.1501
v  -0.4856 -5.5138 23.1501
v  0.1748 -5.5138 21.1501
v  48.4377 -5.5138 21.1502
v  48.4377 -5.5138 23.1502
v  0.1748 -5.5138 23.1501
# 88 vertices

vn 0.9738 0.2272 -0.0000
vn 0.9934 0.1146 -0.0000
vn 0.8982 0.4395 -0.0000
vn 0.7801 0.6257 -0.0000
vn 0.6257 0.7801 -0.0000
vn 0.4395 0.8982 -0.0000
vn 0.2272 0.9738 -0.0000
vn 0.1146 0.9934 -0.0000
vn 0.0000 1.0000 0.0000
vn -0.2272 0.9738 0.0000
vn -0.1146 0.9934 0.0000
vn -0.4395 0.8982 0.0000
vn -0.6257 0.7801 0.0000
vn -0.7801 0.6257 0.0000
vn -0.8982 0.4396 0.0000
vn -0.9738 0.2272 0.0000
vn -0.9934 0.1146 0.0000
vn -1.0000 0.0000 0.0000
vn 0.0000 0.0000 -1.0000
vn 0.0000 -0.0000 -1.0000
vn -0.0000 0.0000 -1.0000
vn 1.0000 -0.0000 -0.0000
vn 1.0000 -0.0000 0.0000
vn 0.9738 -0.2272 0.0000
vn 0.9934 -0.1146 0.0000
vn 0.8982 -0.4395 -0.0000
vn 0.7801 -0.6257 -0.0000
vn 0.6257 -0.7801 -0.0000
vn 0.4395 -0.8982 -0.0000
vn 0.2272 -0.9738 -0.0000
vn 0.1146 -0.9934 -0.0000
vn -0.0000 -1.0000 -0.0000
vn -0.2272 -0.9738 -0.0000
vn -0.1146 -0.9934 -0.0000
vn -0.4395 -0.8982 -0.0000
vn -0.6257 -0.7801 -0.0000
vn -0.7801 -0.6257 -0.0000
vn -0.8982 -0.4395 -0.0000
vn -0.9738 -0.2272 -0.0000
vn -0.9934 -0.1146 -0.0000
vn 0.0000 -1.0000 -0.0000
vn -0.0000 -0.0000 1.0000
vn -0.0000 0.0000 1.0000
vn 0.0000 -0.0000 1.0000
vn -1.0000 -0.0000 0.0000
vn 1.0000 0.0000 0.0000
vn -1.0000 -0.0000 -0.0000
vn 0.0000 0.0000 1.0000
# 48 vertex normals

vt 0.9750 0.9995 0.5443
vt 0.9699 0.9995 0.5439
vt 0.9699 0.0005 0.5439
vt 0.9750 0.0005 0.5443
vt 0.9797 0.9995 0.5454
vt 0.9797 0.0005 0.5454
vt 0.9838 0.9995 0.5472
vt 0.9838 0.0005 0.5472
vt 0.5495 0.9995 0.9872
vt 0.5472 0.9995 0.9838
vt 0.5472 0.0005 0.9838
vt 0.5495 0.0005 0.9872
vt 0.5522 0.9995 0.9898
vt 0.5522 0.0005 0.9898
vt 0.5554 0.9995 0.9915
vt 0.5554 0.0005 0.9915
vt 0.5588 0.9995 0.9921
vt 0.5588 0.0005 0.9921
vt 0.9773 0.0005 0.9921
vt 0.9773 0.9995 0.9921
vt 0.9807 0.9995 0.9915
vt 0.9807 0.0005 0.9915
vt 0.9839 0.9995 0.9898
vt 0.9839 0.0005 0.9898
vt 0.9866 0.9995 0.9872
vt 0.9866 0.0005 0.9872
vt 0.9889 0.9995 0.9838
vt 0.9889 0.0005 0.9838
vt 0.0203 0.9995 0.9907
vt 0.0162 0.9995 0.9889
vt 0.0162 0.0005 0.9889
vt 0.0203 0.0005 0.9907
vt 0.0250 0.9995 0.9918
vt 0.0250 0.0005 0.9918
vt 0.0301 0.9995 0.9922
vt 0.0301 0.0005 0.9922
vt 0.3501 0.0005 0.9922
vt 0.3501 0.9995 0.9922
vt 0.0079 0.5588 0.0005
vt 0.0085 0.5554 0.0005
vt 0.0102 0.5522 0.0005
vt 0.0162 0.5472 0.0005
vt 0.0128 0.5495 0.0005
vt 0.0203 0.5454 0.0005
vt 0.0250 0.5443 0.0005
vt 0.0301 0.5439 0.0005
vt 0.3501 0.5439 0.0005
vt 0.3501 0.9922 0.0005
vt 0.0079 0.9773 0.0005
vt 0.0250 0.9918 0.0005
vt 0.0203 0.9907 0.0005
vt 0.0162 0.9889 0.0005
vt 0.0301 0.9922 0.0005
vt 0.0128 0.9866 0.0005
vt 0.0102 0.9839 0.0005
vt 0.0085 0.9807 0.0005
vt 0.6499 0.9995 0.5439
vt 0.6499 0.0005 0.5439
vt 0.1136 0.9995 0.5443
vt 0.1136 0.0005 0.5443
vt 0.1187 0.0005 0.5439
vt 0.1187 0.9995 0.5439
vt 0.1089 0.9995 0.5454
vt 0.1089 0.0005 0.5454
vt 0.1048 0.9995 0.5472
vt 0.1048 0.0005 0.5472
vt 0.4505 0.9995 0.1014
vt 0.4505 0.0005 0.1014
vt 0.4528 0.0005 0.1048
vt 0.4528 0.9995 0.1048
vt 0.4478 0.9995 0.0988
vt 0.4478 0.0005 0.0988
vt 0.4446 0.9995 0.0971
vt 0.4446 0.0005 0.0971
vt 0.4412 0.9995 0.0965
vt 0.4412 0.0005 0.0965
vt 0.2328 0.0005 0.0965
vt 0.2328 0.9995 0.0965
vt 0.0193 0.9995 0.0971
vt 0.0193 0.0005 0.0971
vt 0.0227 0.0005 0.0965
vt 0.0227 0.9995 0.0965
vt 0.0161 0.9995 0.0988
vt 0.0161 0.0005 0.0988
vt 0.0134 0.9995 0.1014
vt 0.0134 0.0005 0.1014
vt 0.0111 0.9995 0.1048
vt 0.0111 0.0005 0.1048
vt 0.8911 0.9995 0.9907
vt 0.8911 0.0005 0.9907
vt 0.8952 0.0005 0.9889
vt 0.8952 0.9995 0.9889
vt 0.8864 0.9995 0.9918
vt 0.8864 0.0005 0.9918
vt 0.8813 0.9995 0.9922
vt 0.8813 0.0005 0.9922
vt 0.2297 0.0005 0.0965
vt 0.2297 0.9995 0.0965
vt 0.9750 0.5443 0.9995
vt 0.9797 0.5454 0.9995
vt 0.9838 0.5472 0.9995
vt 0.9898 0.5522 0.9995
vt 0.9872 0.5495 0.9995
vt 0.9915 0.5554 0.9995
vt 0.9921 0.5588 0.9995
vt 0.9915 0.9807 0.9995
vt 0.9898 0.9839 0.9995
vt 0.9872 0.9866 0.9995
vt 0.9750 0.9918 0.9995
vt 0.9838 0.9889 0.9995
vt 0.9797 0.9907 0.9995
vt 0.9921 0.9773 0.9995
vt 0.6499 0.9922 0.9995
vt 0.9699 0.9922 0.9995
vt 0.6499 0.5439 0.9995
vt 0.9699 0.5439 0.9995
vt 0.4907 0.0005 0.9922
vt 0.4907 0.9995 0.9922
vt 0.3545 0.9995 0.9922
vt 0.3545 0.0005 0.9922
vt 0.3545 0.5439 0.0005
vt 0.4907 0.5439 0.0005
vt 0.4907 0.9922 0.0005
vt 0.3545 0.9922 0.0005
vt 0.5093 0.9995 0.5439
vt 0.5093 0.0005 0.5439
vt 0.6455 0.0005 0.5439
vt 0.6455 0.9995 0.5439
vt 0.6455 0.9922 0.9995
vt 0.5093 0.9922 0.9995
vt 0.5093 0.5439 0.9995
vt 0.6455 0.5439 0.9995
vt 0.4951 0.9995 0.9922
vt 0.4951 0.0005 0.9922
vt 0.9035 0.7703 0.0005
vt 0.9035 0.9773 0.0005
vt 0.9029 0.9807 0.0005
vt 0.8986 0.9866 0.0005
vt 0.9012 0.9839 0.0005
vt 0.8952 0.9889 0.0005
vt 0.8911 0.9907 0.0005
vt 0.8813 0.9922 0.0005
vt 0.8864 0.9918 0.0005
vt 0.4951 0.9922 0.0005
vt 0.4951 0.7703 0.0005
vt 0.1187 0.9922 0.9995
vt 0.1136 0.9918 0.9995
vt 0.1089 0.9907 0.9995
vt 0.1014 0.9866 0.9995
vt 0.1048 0.9889 0.9995
vt 0.0988 0.9839 0.9995
vt 0.0971 0.9807 0.9995
vt 0.0965 0.9773 0.9995
vt 0.0965 0.7703 0.9995
vt 0.5049 0.7703 0.9995
vt 0.5049 0.9922 0.9995
vt 0.8813 0.5439 0.0005
vt 0.8864 0.5443 0.0005
vt 0.8911 0.5454 0.0005
vt 0.8986 0.5495 0.0005
vt 0.8952 0.5472 0.0005
vt 0.9012 0.5522 0.0005
vt 0.9029 0.5554 0.0005
vt 0.9035 0.5588 0.0005
vt 0.9035 0.7672 0.0005
vt 0.4951 0.7672 0.0005
vt 0.4951 0.5439 0.0005
vt 0.5049 0.0005 0.5439
vt 0.5049 0.9995 0.5439
vt 0.0965 0.9995 0.7703
vt 0.0965 0.0005 0.7703
vt 0.5049 0.0005 0.7703
vt 0.5049 0.9995 0.7703
vt 0.0965 0.7672 0.9995
vt 0.0965 0.5588 0.9995
vt 0.0971 0.5554 0.9995
vt 0.1014 0.5495 0.9995
vt 0.0988 0.5522 0.9995
vt 0.1048 0.5472 0.9995
vt 0.1089 0.5454 0.9995
vt 0.1187 0.5439 0.9995
vt 0.1136 0.5443 0.9995
vt 0.5049 0.5439 0.9995
vt 0.5049 0.7672 0.9995
vt 0.9035 0.0005 0.7672
vt 0.9035 0.9995 0.7672
vt 0.4951 0.9995 0.7672
vt 0.4951 0.0005 0.7672
vt 0.4561 0.0005 0.6499
vt 0.4561 0.9995 0.6499
vt 0.0078 0.9995 0.6499
vt 0.0078 0.0005 0.6499
vt 0.5439 0.9995 0.6455
vt 0.5439 0.0005 0.6455
vt 0.9922 0.0005 0.6455
vt 0.9922 0.9995 0.6455
vt 0.4561 0.0005 0.5093
vt 0.4561 0.9995 0.5093
vt 0.0078 0.9995 0.5093
vt 0.0078 0.0005 0.5093
vt 0.7703 0.9995 0.5049
vt 0.7703 0.0005 0.5049
vt 0.9922 0.0005 0.5049
vt 0.9922 0.9995 0.5049
vt 0.7672 0.9995 0.5049
vt 0.5439 0.9995 0.5049
vt 0.5439 0.0005 0.5049
vt 0.7672 0.0005 0.5049
# 208 texture coords

g Rectangle10
usemtl kolor_1_
s 2
f 1/1/1 2/2/2 3/3/2 4/4/1 
f 5/5/3 1/1/1 4/4/1 6/6/3 
f 7/7/4 5/5/3 6/6/3 8/8/4 
f 9/9/5 7/10/4 8/11/4 10/12/5 
f 11/13/6 9/9/5 10/12/5 12/14/6 
f 13/15/7 11/13/6 12/14/6 14/16/7 
f 15/17/8 13/15/7 14/16/7 16/18/8 
s 4
f 17/19/9 18/20/9 15/17/9 16/18/9 
s 2
f 19/21/10 18/20/11 17/19/11 20/22/10 
f 21/23/12 19/21/10 20/22/10 22/24/12 
f 23/25/13 21/23/12 22/24/12 24/26/13 
f 25/27/14 23/25/13 24/26/13 26/28/14 
f 27/29/15 25/30/14 26/31/14 28/32/15 
f 29/33/16 27/29/15 28/32/15 30/34/16 
f 31/35/17 29/33/16 30/34/16 32/36/17 
s 4
f 33/37/18 34/38/18 31/35/18 32/36/18 
s 16
f 16/39/19 14/40/19 12/41/20 8/42/19 
f 12/41/20 10/43/20 8/42/19 
f 8/42/19 6/44/19 4/45/19 16/39/19 
f 4/45/19 3/46/21 35/47/19 16/39/19 
f 16/39/19 35/47/19 33/48/19 17/49/19 
f 30/50/19 28/51/20 26/52/19 32/53/19 
f 26/52/19 24/54/20 22/55/19 17/49/19 
f 22/55/19 20/56/19 17/49/19 
f 32/53/19 26/52/19 17/49/19 33/48/19 
s 4
f 2/2/22 36/57/23 35/58/22 3/3/22 
s 2
f 37/59/24 38/60/24 39/61/25 40/62/25 
f 41/63/26 42/64/26 38/60/24 37/59/24 
f 43/65/27 44/66/27 42/64/26 41/63/26 
f 45/67/28 46/68/28 44/69/27 43/70/27 
f 47/71/29 48/72/29 46/68/28 45/67/28 
f 49/73/30 50/74/30 48/72/29 47/71/29 
f 51/75/31 52/76/31 50/74/30 49/73/30 
s 4
f 53/77/32 52/76/32 51/75/32 54/78/32 
s 2
f 55/79/33 56/80/33 57/81/34 58/82/34 
f 59/83/35 60/84/35 56/80/33 55/79/33 
f 61/85/36 62/86/36 60/84/35 59/83/35 
f 63/87/37 64/88/37 62/86/36 61/85/36 
f 65/89/38 66/90/38 64/91/37 63/92/37 
f 67/93/39 68/94/39 66/90/38 65/89/38 
f 69/95/40 70/96/40 68/94/39 67/93/39 
s 4
f 57/81/41 71/97/41 72/98/41 58/82/41 
s 16
f 1/99/42 5/100/42 7/101/42 11/102/42 
f 7/101/42 9/103/43 11/102/42 
f 11/102/42 13/104/43 15/105/42 1/99/42 
f 19/106/43 21/107/44 23/108/42 29/109/42 
f 25/110/44 27/111/43 29/109/42 23/108/42 
f 18/112/42 19/106/43 29/109/42 34/113/42 
f 29/109/42 31/114/44 34/113/42 
f 18/112/42 34/113/42 36/115/42 15/105/42 
f 1/99/42 15/105/42 36/115/42 2/116/42 
s 4
f 73/117/45 74/118/45 75/119/45 76/120/45 
s 16
f 77/121/19 78/122/19 73/123/19 76/124/19 
s 4
f 79/125/46 78/126/46 77/127/46 80/128/46 
s 16
f 75/129/42 74/130/42 79/131/42 80/132/42 
s 4
f 70/96/45 69/95/47 81/133/45 82/134/45 
s 16
f 71/135/19 57/136/19 56/137/19 62/138/19 
f 56/137/19 60/139/19 62/138/19 
f 62/138/19 64/140/19 66/141/19 70/142/19 
f 66/141/19 68/143/21 70/142/19 
f 71/135/19 62/138/19 70/142/19 82/144/19 
f 83/145/19 71/135/19 82/144/19 
f 69/146/42 67/147/42 65/148/42 61/149/43 
f 65/148/42 63/150/48 61/149/43 
f 61/149/43 59/151/48 55/152/43 69/146/42 
f 55/152/43 58/153/43 72/154/42 69/146/42 
f 69/146/42 72/154/42 84/155/42 81/156/42 
f 39/157/19 38/158/20 42/159/19 46/160/19 
f 42/159/19 44/161/20 46/160/19 
f 46/160/19 48/162/19 50/163/19 39/157/19 
f 50/163/19 52/164/19 53/165/19 39/157/19 
f 39/157/19 53/165/19 85/166/19 86/167/19 
s 4
f 40/62/46 39/61/46 86/168/46 87/169/46 
s 1
f 72/170/46 71/171/46 83/172/46 84/173/46 
s 16
f 54/174/42 51/175/43 49/176/43 45/177/42 
f 49/176/43 47/178/44 45/177/42 
f 45/177/42 43/179/43 41/180/42 40/181/42 
f 41/180/42 37/182/43 40/181/42 
f 54/174/42 45/177/42 40/181/42 87/183/42 
f 88/184/42 54/174/42 87/183/42 
s 1
f 53/185/47 54/186/47 88/187/47 85/188/47 
s off
f 35/189/32 36/190/32 34/191/32 33/192/32 
f 80/193/9 77/194/9 76/195/9 75/196/9 
f 78/197/32 79/198/32 74/199/32 73/200/32 
f 84/201/9 83/202/9 82/203/9 81/204/9 
f 88/205/9 87/206/9 86/207/9 85/208/9 
# 74 polygons - 12 triangles

#
# object Rectangle11
#

v  -48.0025 63.3220 21.0450
v  47.9919 63.3220 21.0451
v  47.9919 63.3220 -23.1500
v  -48.0025 63.3220 -23.1501
v  -48.0025 -65.3831 21.0449
v  -48.0025 -65.3831 -23.1502
v  47.9919 -65.3831 21.0450
v  47.9919 -65.3830 -23.1501
# 8 vertices

vn -0.0000 1.0000 0.0000
vn -1.0000 0.0000 -0.0000
vn 0.0000 -1.0000 -0.0000
vn 1.0000 -0.0000 0.0000
vn 0.0000 0.0000 -1.0000
vn -0.0000 -0.0000 1.0000
# 6 vertex normals

vt 0.9995 0.9995 0.9995
vt 0.0005 0.9995 0.9995
vt 0.0005 0.0005 0.9995
vt 0.9995 0.0005 0.9995
vt 0.9995 0.9995 0.0005
vt 0.0005 0.9995 0.0005
vt 0.0005 0.0005 0.0005
vt 0.9995 0.0005 0.0005
# 8 texture coords

g Rectangle11
usemtl Material__37
s 1
f 89/209/49 90/210/49 91/211/49 92/212/49 
s 4
f 93/213/50 89/214/50 92/215/50 94/216/50 
s 2
f 95/213/51 93/214/51 94/215/51 96/216/51 
s 4
f 90/209/52 95/210/52 96/211/52 91/212/52 
s 16
f 94/216/53 92/213/53 91/214/53 96/215/53 
f 90/209/54 89/210/54 93/211/54 95/212/54 
# 6 polygons

