# 3ds Max Wavefront OBJ Exporter v0.97b - (c)2007 guruware
# File Created: 23.04.2014 14:53:06

mtllib 2pir_lampa_wysoka.mtl

#
# object Cylinder001
#

v  9.9194 -11.6555 -1.7491
v  10.0736 -11.6555 0.0000
v  10.0736 -71.0071 0.0000
v  9.9194 -71.0071 -1.7491
v  9.4661 -11.6555 -3.4454
v  9.4661 -71.0071 -3.4454
v  8.7230 -11.6555 -5.0362
v  8.7230 -71.0071 -5.0362
v  7.7168 -11.6555 -6.4752
v  7.7168 -71.0071 -6.4752
v  6.4744 -11.6555 -7.7159
v  6.4744 -71.0071 -7.7159
v  5.0368 -11.6555 -8.7240
v  5.0368 -71.0071 -8.7240
v  3.4450 -11.6555 -9.4650
v  3.4450 -71.0071 -9.4650
v  1.7493 -11.6555 -9.9206
v  1.7493 -71.0071 -9.9206
v  -0.0000 -11.6555 -10.0724
v  -0.0000 -71.0071 -10.0724
v  -1.7493 -11.6555 -9.9206
v  -1.7493 -71.0071 -9.9206
v  -3.4450 -11.6555 -9.4650
v  -3.4450 -71.0071 -9.4650
v  -5.0368 -11.6555 -8.7240
v  -5.0368 -71.0071 -8.7240
v  -6.4744 -11.6555 -7.7159
v  -6.4744 -71.0071 -7.7159
v  -7.7168 -11.6555 -6.4752
v  -7.7168 -71.0071 -6.4752
v  -8.7230 -11.6555 -5.0362
v  -8.7230 -71.0071 -5.0362
v  -9.4661 -11.6555 -3.4454
v  -9.4661 -71.0071 -3.4454
v  -9.9194 -11.6555 -1.7491
v  -9.9194 -71.0071 -1.7491
v  -10.0736 -11.6555 -0.0000
v  -10.0736 -71.0071 -0.0000
v  -9.9194 -11.6555 1.7491
v  -9.9194 -71.0071 1.7491
v  -9.4661 -11.6555 3.4454
v  -9.4661 -71.0071 3.4454
v  -8.7230 -11.6555 5.0362
v  -8.7230 -71.0071 5.0362
v  -7.7168 -11.6555 6.4752
v  -7.7168 -71.0071 6.4752
v  -6.4744 -11.6555 7.7159
v  -6.4744 -71.0071 7.7159
v  -5.0368 -11.6555 8.7240
v  -5.0368 -71.0071 8.7240
v  -3.4450 -11.6555 9.4650
v  -3.4450 -71.0071 9.4650
v  -1.7493 -11.6555 9.9206
v  -1.7493 -71.0071 9.9206
v  -0.0000 -11.6555 10.0724
v  -0.0000 -71.0071 10.0724
v  1.7493 -11.6555 9.9206
v  1.7493 -71.0071 9.9206
v  3.4450 -11.6555 9.4650
v  3.4450 -71.0071 9.4650
v  5.0368 -11.6555 8.7240
v  5.0368 -71.0071 8.7240
v  6.4744 -11.6555 7.7159
v  6.4744 -71.0071 7.7159
v  7.7168 -11.6555 6.4752
v  7.7168 -71.0071 6.4752
v  8.7230 -11.6555 5.0362
v  8.7230 -71.0071 5.0362
v  9.4661 -11.6555 3.4454
v  9.4661 -71.0071 3.4454
v  9.9194 -11.6555 1.7491
v  9.9194 -71.0071 1.7491
v  16.7434 71.0071 -2.9523
v  17.0037 71.0071 0.0000
v  15.9782 71.0071 -5.8156
v  14.7239 71.0071 -8.5008
v  13.0256 71.0071 -10.9298
v  10.9285 71.0071 -13.0241
v  8.5018 71.0071 -14.7256
v  5.8149 71.0071 -15.9764
v  2.9527 71.0071 -16.7454
v  -0.0000 71.0071 -17.0017
v  -2.9527 71.0071 -16.7454
v  -5.8149 71.0071 -15.9764
v  -8.5018 71.0071 -14.7256
v  -10.9285 71.0071 -13.0241
v  -13.0256 71.0071 -10.9298
v  -14.7239 71.0071 -8.5008
v  -15.9782 71.0071 -5.8156
v  -16.7434 71.0071 -2.9523
v  -17.0037 71.0071 -0.0000
v  -16.7434 71.0071 2.9523
v  -15.9782 71.0071 5.8156
v  -14.7239 71.0071 8.5008
v  -13.0256 71.0071 10.9298
v  -10.9285 71.0071 13.0240
v  -8.5018 71.0071 14.7256
v  -5.8149 71.0071 15.9764
v  -2.9527 71.0071 16.7454
v  -0.0000 71.0071 17.0017
v  2.9527 71.0071 16.7454
v  5.8149 71.0071 15.9764
v  8.5018 71.0071 14.7256
v  10.9285 71.0071 13.0241
v  13.0256 71.0071 10.9298
v  14.7239 71.0071 8.5009
v  15.9782 71.0071 5.8156
v  16.7434 71.0071 2.9523
v  8.9894 -69.9797 0.0000
v  8.9894 -11.6101 0.0000
v  8.8518 -11.6101 -1.5608
v  8.8518 -69.9790 -1.5608
v  8.4473 -11.6101 -3.0746
v  8.4473 -69.9797 -3.0746
v  7.7842 -11.6101 -4.4942
v  7.7842 -69.9790 -4.4942
v  6.8863 -11.6101 -5.7783
v  6.8863 -69.9797 -5.7783
v  5.7776 -11.6101 -6.8855
v  5.7776 -69.9790 -6.8855
v  4.4947 -11.6101 -7.7851
v  4.4947 -69.9797 -7.7851
v  3.0742 -11.6101 -8.4463
v  3.0742 -69.9790 -8.4463
v  1.5610 -11.6101 -8.8529
v  1.5610 -69.9797 -8.8529
v  -0.0000 -11.6101 -8.9884
v  -0.0000 -69.9790 -8.9884
v  -1.5610 -11.6101 -8.8529
v  -1.5610 -69.9797 -8.8529
v  -3.0742 -11.6101 -8.4463
v  -3.0742 -69.9790 -8.4463
v  -4.4947 -11.6101 -7.7851
v  -4.4947 -69.9797 -7.7851
v  -5.7776 -11.6101 -6.8855
v  -5.7776 -69.9790 -6.8855
v  -6.8863 -11.6101 -5.7783
v  -6.8863 -69.9797 -5.7783
v  -7.7842 -11.6101 -4.4942
v  -7.7842 -69.9790 -4.4942
v  -8.4473 -11.6101 -3.0746
v  -8.4473 -69.9797 -3.0746
v  -8.8518 -11.6101 -1.5608
v  -8.8518 -69.9790 -1.5608
v  -8.9894 -11.6101 -0.0000
v  -8.9894 -69.9797 -0.0000
v  -8.8518 -11.6101 1.5608
v  -8.8518 -69.9790 1.5608
v  -8.4473 -11.6101 3.0746
v  -8.4473 -69.9797 3.0746
v  -7.7842 -11.6101 4.4942
v  -7.7842 -69.9790 4.4942
v  -6.8863 -11.6101 5.7783
v  -6.8863 -69.9797 5.7783
v  -5.7776 -11.6101 6.8855
v  -5.7776 -69.9790 6.8855
v  -4.4947 -11.6101 7.7851
v  -4.4947 -69.9797 7.7851
v  -3.0742 -11.6101 8.4463
v  -3.0742 -69.9790 8.4463
v  -1.5610 -11.6101 8.8529
v  -1.5610 -69.9797 8.8529
v  -0.0000 -11.6101 8.9884
v  -0.0000 -69.9790 8.9884
v  1.5610 -11.6101 8.8529
v  1.5610 -69.9797 8.8529
v  3.0742 -11.6101 8.4463
v  3.0742 -69.9790 8.4463
v  4.4947 -11.6101 7.7851
v  4.4947 -69.9797 7.7851
v  5.7776 -11.6101 6.8855
v  5.7776 -69.9790 6.8855
v  6.8863 -11.6101 5.7783
v  6.8863 -69.9797 5.7783
v  7.7842 -11.6101 4.4942
v  7.7842 -69.9790 4.4942
v  8.4473 -11.6101 3.0746
v  8.4473 -69.9797 3.0746
v  8.8518 -11.6101 1.5608
v  8.8518 -69.9790 1.5608
v  15.9233 71.0977 0.0000
v  15.6796 71.0977 -2.7647
v  14.9630 71.0977 -5.4461
v  13.7884 71.0977 -7.9607
v  12.1980 71.0977 -10.2353
v  10.2341 71.0977 -12.1965
v  7.9617 71.0977 -13.7900
v  5.4455 71.0977 -14.9613
v  2.7651 71.0977 -15.6814
v  -0.0000 71.0977 -15.9214
v  -2.7651 71.0977 -15.6814
v  -5.4455 71.0977 -14.9613
v  -7.9617 71.0977 -13.7900
v  -10.2341 71.0977 -12.1965
v  -12.1980 71.0977 -10.2353
v  -13.7884 71.0977 -7.9607
v  -14.9630 71.0977 -5.4461
v  -15.6796 71.0977 -2.7647
v  -15.9233 71.0977 -0.0000
v  -15.6796 71.0977 2.7647
v  -14.9630 71.0977 5.4461
v  -13.7884 71.0977 7.9607
v  -12.1980 71.0977 10.2353
v  -10.2341 71.0977 12.1965
v  -7.9617 71.0977 13.7900
v  -5.4455 71.0977 14.9613
v  -2.7651 71.0977 15.6814
v  -0.0000 71.0977 15.9214
v  2.7650 71.0977 15.6814
v  5.4454 71.0977 14.9613
v  7.9617 71.0977 13.7900
v  10.2341 71.0977 12.1965
v  12.1980 71.0977 10.2353
v  13.7884 71.0977 7.9607
v  14.9630 71.0977 5.4461
v  15.6796 71.0977 2.7647
# 216 vertices

vn 0.9848 0.0000 -0.1736
vn 1.0000 0.0000 0.0000
vn 0.9397 0.0000 -0.3420
vn 0.8660 0.0000 -0.5000
vn 0.7660 0.0000 -0.6428
vn 0.6428 0.0000 -0.7660
vn 0.5000 0.0000 -0.8660
vn 0.3420 0.0000 -0.9397
vn 0.1736 0.0000 -0.9848
vn 0.0000 0.0000 -1.0000
vn -0.1736 0.0000 -0.9848
vn -0.3420 0.0000 -0.9397
vn -0.5000 0.0000 -0.8660
vn -0.6428 0.0000 -0.7660
vn -0.7660 0.0000 -0.6428
vn -0.8660 0.0000 -0.5000
vn -0.9397 0.0000 -0.3420
vn -0.9848 0.0000 -0.1736
vn -1.0000 0.0000 -0.0000
vn -0.9848 0.0000 0.1736
vn -0.9397 0.0000 0.3420
vn -0.8660 0.0000 0.5000
vn -0.7660 0.0000 0.6428
vn -0.6428 0.0000 0.7660
vn -0.5000 0.0000 0.8660
vn -0.3420 0.0000 0.9397
vn -0.1736 0.0000 0.9848
vn -0.0000 0.0000 1.0000
vn 0.1736 0.0000 0.9848
vn 0.3420 0.0000 0.9397
vn 0.5000 0.0000 0.8660
vn 0.6428 0.0000 0.7660
vn 0.7660 0.0000 0.6428
vn 0.8660 0.0000 0.5000
vn 0.9397 0.0000 0.3420
vn 0.9848 0.0000 0.1736
vn 0.9814 -0.0835 -0.1730
vn 0.9965 -0.0835 0.0000
vn 0.9364 -0.0835 -0.3408
vn 0.8630 -0.0835 -0.4983
vn 0.7634 -0.0835 -0.6405
vn 0.6405 -0.0835 -0.7634
vn 0.4983 -0.0835 -0.8630
vn 0.3408 -0.0835 -0.9364
vn 0.1730 -0.0835 -0.9814
vn -0.0000 -0.0835 -0.9965
vn 0.0000 -0.0835 -0.9965
vn -0.1730 -0.0835 -0.9814
vn -0.3408 -0.0835 -0.9364
vn -0.4983 -0.0835 -0.8630
vn -0.6405 -0.0835 -0.7634
vn -0.7634 -0.0835 -0.6405
vn -0.8630 -0.0835 -0.4983
vn -0.9364 -0.0835 -0.3408
vn -0.9814 -0.0835 -0.1730
vn -0.9965 -0.0835 -0.0000
vn -0.9814 -0.0835 0.1730
vn -0.9364 -0.0835 0.3408
vn -0.8630 -0.0835 0.4983
vn -0.7634 -0.0835 0.6405
vn -0.6405 -0.0835 0.7634
vn -0.4983 -0.0835 0.8630
vn -0.3408 -0.0835 0.9364
vn -0.1730 -0.0835 0.9814
vn -0.0000 -0.0835 0.9965
vn 0.1730 -0.0835 0.9814
vn 0.3408 -0.0835 0.9364
vn 0.4983 -0.0835 0.8630
vn 0.6405 -0.0835 0.7634
vn 0.7634 -0.0835 0.6405
vn 0.8630 -0.0835 0.4983
vn 0.9364 -0.0835 0.3408
vn 0.9814 -0.0835 0.1730
vn 0.0000 -1.0000 -0.0000
vn -1.0000 -0.0000 -0.0000
vn -0.1736 -0.0000 0.9848
vn 0.0000 0.0000 1.0000
vn -0.0000 -0.0000 1.0000
vn 0.7660 -0.0000 0.6428
vn 0.8660 -0.0000 0.5000
vn 0.9397 -0.0000 0.3420
vn 0.9848 -0.0000 0.1736
vn 1.0000 -0.0000 -0.0000
vn 0.5000 -0.0000 -0.8660
vn 0.3420 -0.0000 -0.9397
vn 0.1736 -0.0000 -0.9848
vn -0.9848 -0.0000 -0.1736
vn -0.9965 0.0835 -0.0000
vn -0.9814 0.0835 0.1730
vn -0.9364 0.0835 0.3408
vn -0.8630 0.0835 0.4983
vn -0.7634 0.0835 0.6405
vn -0.6405 0.0835 0.7634
vn -0.4983 0.0835 0.8630
vn -0.3408 0.0835 0.9364
vn -0.1730 0.0835 0.9814
vn 0.0000 0.0835 0.9965
vn 0.1730 0.0835 0.9814
vn 0.3408 0.0835 0.9364
vn 0.4983 0.0835 0.8630
vn 0.6405 0.0835 0.7634
vn 0.7634 0.0835 0.6405
vn 0.8630 0.0835 0.4983
vn 0.9364 0.0835 0.3408
vn 0.9814 0.0835 0.1730
vn 0.9965 0.0835 -0.0000
vn 0.9965 0.0835 0.0000
vn 0.9814 0.0835 -0.1730
vn 0.9364 0.0835 -0.3408
vn 0.8630 0.0835 -0.4983
vn 0.7634 0.0835 -0.6405
vn 0.6405 0.0835 -0.7634
vn 0.4983 0.0835 -0.8630
vn 0.3408 0.0835 -0.9364
vn 0.1730 0.0835 -0.9814
vn 0.0000 0.0835 -0.9965
vn -0.1730 0.0835 -0.9814
vn -0.3408 0.0835 -0.9364
vn -0.4983 0.0835 -0.8630
vn -0.6405 0.0835 -0.7634
vn -0.7634 0.0835 -0.6405
vn -0.8630 0.0835 -0.4983
vn -0.9364 0.0835 -0.3408
vn -0.9814 0.0835 -0.1730
vn 0.0005 1.0000 -0.0002
vn 0.0038 1.0000 -0.0032
vn 0.0003 1.0000 -0.0005
vn 0.0009 1.0000 -0.0049
vn -0.0001 1.0000 -0.0006
vn -0.0025 1.0000 -0.0043
vn 0.0000 1.0000 -0.0000
vn -0.0004 1.0000 -0.0004
vn -0.0047 1.0000 -0.0017
vn -0.0006 1.0000 -0.0000
vn -0.0047 1.0000 0.0017
vn -0.0000 1.0000 -0.0000
vn -0.0004 1.0000 0.0004
vn -0.0025 1.0000 0.0043
vn -0.0001 1.0000 0.0006
vn 0.0009 1.0000 0.0049
vn 0.0003 1.0000 0.0005
vn 0.0038 1.0000 0.0032
vn 0.0005 1.0000 0.0002
vn 0.0050 1.0000 -0.0000
vn 0.0823 0.9965 -0.0145
vn 0.0835 0.9965 -0.0000
vn 0.0785 0.9965 -0.0286
vn 0.0723 0.9965 -0.0418
vn 0.0640 0.9965 -0.0537
vn 0.0537 0.9965 -0.0640
vn 0.0418 0.9965 -0.0724
vn 0.0286 0.9965 -0.0785
vn 0.0145 0.9965 -0.0823
vn 0.0000 0.9965 -0.0835
vn -0.0145 0.9965 -0.0823
vn -0.0286 0.9965 -0.0785
vn -0.0418 0.9965 -0.0723
vn -0.0537 0.9965 -0.0640
vn -0.0640 0.9965 -0.0537
vn -0.0723 0.9965 -0.0418
vn -0.0785 0.9965 -0.0286
vn -0.0823 0.9965 -0.0145
vn -0.0835 0.9965 0.0000
vn -0.0823 0.9965 0.0145
vn -0.0785 0.9965 0.0286
vn -0.0723 0.9965 0.0418
vn -0.0640 0.9965 0.0537
vn -0.0537 0.9965 0.0640
vn -0.0418 0.9965 0.0724
vn -0.0286 0.9965 0.0785
vn -0.0145 0.9965 0.0823
vn -0.0000 0.9965 0.0835
vn 0.0145 0.9965 0.0823
vn 0.0286 0.9965 0.0785
vn 0.0418 0.9965 0.0723
vn 0.0537 0.9965 0.0640
vn 0.0640 0.9965 0.0537
vn 0.0723 0.9965 0.0418
vn 0.0785 0.9965 0.0286
vn 0.0823 0.9965 0.0145
# 180 vertex normals

vt 0.7778 1.0000 1.0000
vt 0.7500 1.0000 1.0000
vt 0.7500 0.0000 1.0000
vt 0.7778 0.0000 1.0000
vt 0.8056 1.0000 1.0000
vt 0.8056 0.0000 1.0000
vt 0.8333 1.0000 1.0000
vt 0.8333 0.0000 1.0000
vt 0.8611 1.0000 1.0000
vt 0.8611 0.0000 1.0000
vt 0.8889 1.0000 1.0000
vt 0.8889 0.0000 1.0000
vt 0.9167 1.0000 1.0000
vt 0.9167 0.0000 1.0000
vt 0.9444 1.0000 1.0000
vt 0.9444 0.0000 1.0000
vt 0.9722 1.0000 1.0000
vt 0.9722 0.0000 1.0000
vt 1.0000 1.0000 1.0000
vt 1.0000 0.0000 1.0000
vt 1.0278 1.0000 1.0000
vt 1.0278 0.0000 1.0000
vt 0.0556 1.0000 1.0000
vt 0.0278 1.0000 1.0000
vt 0.0278 0.0000 1.0000
vt 0.0556 0.0000 1.0000
vt 0.0833 1.0000 1.0000
vt 0.0833 0.0000 1.0000
vt 0.1111 1.0000 1.0000
vt 0.1111 0.0000 1.0000
vt 0.1389 1.0000 1.0000
vt 0.1389 0.0000 1.0000
vt 0.1667 1.0000 1.0000
vt 0.1667 0.0000 1.0000
vt 0.1944 1.0000 1.0000
vt 0.1944 0.0000 1.0000
vt 0.2222 1.0000 1.0000
vt 0.2222 0.0000 1.0000
vt 0.2500 1.0000 1.0000
vt 0.2500 0.0000 1.0000
vt 0.2778 1.0000 1.0000
vt 0.2778 0.0000 1.0000
vt 0.3056 1.0000 1.0000
vt 0.3056 0.0000 1.0000
vt 0.3333 1.0000 1.0000
vt 0.3333 0.0000 1.0000
vt 0.3611 1.0000 1.0000
vt 0.3611 0.0000 1.0000
vt 0.3889 1.0000 1.0000
vt 0.3889 0.0000 1.0000
vt 0.4167 1.0000 1.0000
vt 0.4167 0.0000 1.0000
vt 0.4444 1.0000 1.0000
vt 0.4444 0.0000 1.0000
vt 0.4722 1.0000 1.0000
vt 0.4722 0.0000 1.0000
vt 0.5000 1.0000 1.0000
vt 0.5000 0.0000 1.0000
vt 0.5278 1.0000 1.0000
vt 0.5278 0.0000 1.0000
vt 0.5556 1.0000 1.0000
vt 0.5556 0.0000 1.0000
vt 0.5833 1.0000 1.0000
vt 0.5833 0.0000 1.0000
vt 0.6111 1.0000 1.0000
vt 0.6111 0.0000 1.0000
vt 0.6389 1.0000 1.0000
vt 0.6389 0.0000 1.0000
vt 0.6667 1.0000 1.0000
vt 0.6667 0.0000 1.0000
vt 0.6944 1.0000 1.0000
vt 0.6944 0.0000 1.0000
vt 0.7222 1.0000 1.0000
vt 0.7222 0.0000 1.0000
vt 0.4145 0.9849 0.2500
vt 0.5000 0.9925 0.2500
vt 0.3316 0.9628 0.2500
vt 0.2538 0.9264 0.2500
vt 0.1835 0.8772 0.2500
vt 0.1228 0.8165 0.2500
vt 0.0735 0.7462 0.2500
vt 0.0373 0.6684 0.2500
vt 0.0150 0.5855 0.2500
vt 0.0076 0.5000 0.2500
vt 0.0150 0.4145 0.2500
vt 0.0373 0.3316 0.2500
vt 0.0735 0.2538 0.2500
vt 0.1228 0.1835 0.2500
vt 0.1835 0.1228 0.2500
vt 0.2538 0.0736 0.2500
vt 0.3316 0.0372 0.2500
vt 0.4145 0.0151 0.2500
vt 0.5000 0.0075 0.2500
vt 0.5855 0.0151 0.2500
vt 0.6684 0.0372 0.2500
vt 0.7462 0.0736 0.2500
vt 0.8165 0.1228 0.2500
vt 0.8772 0.1835 0.2500
vt 0.9265 0.2538 0.2500
vt 0.9627 0.3316 0.2500
vt 0.9850 0.4145 0.2500
vt 0.9924 0.5000 0.2500
vt 0.9850 0.5855 0.2500
vt 0.9627 0.6684 0.2500
vt 0.9265 0.7462 0.2500
vt 0.8772 0.8165 0.2500
vt 0.8165 0.8772 0.2500
vt 0.7462 0.9264 0.2500
vt 0.6684 0.9628 0.2500
vt 0.5855 0.9849 0.2500
vt 0.9325 0.7498 0.0005
vt 0.9694 0.6709 0.0005
vt 0.9919 0.5867 0.0005
vt 0.8210 0.8826 0.0005
vt 0.9995 0.5000 0.0005
vt 0.9919 0.4133 0.0005
vt 0.9325 0.2502 0.0005
vt 0.9694 0.3291 0.0005
vt 0.8826 0.1789 0.0005
vt 0.8210 0.1174 0.0005
vt 0.6708 0.0306 0.0005
vt 0.7497 0.0674 0.0005
vt 0.5867 0.0080 0.0005
vt 0.5000 0.0005 0.0005
vt 0.3292 0.0306 0.0005
vt 0.4133 0.0080 0.0005
vt 0.2502 0.0674 0.0005
vt 0.1790 0.1174 0.0005
vt 0.0675 0.2503 0.0005
vt 0.1174 0.1789 0.0005
vt 0.0306 0.3291 0.0005
vt 0.0081 0.4133 0.0005
vt 0.0081 0.5867 0.0005
vt 0.0005 0.5000 0.0005
vt 0.0306 0.6709 0.0005
vt 0.0675 0.7498 0.0005
vt 0.1790 0.8826 0.0005
vt 0.1174 0.8211 0.0005
vt 0.2502 0.9326 0.0005
vt 0.3292 0.9694 0.0005
vt 0.5000 0.9995 0.0005
vt 0.4133 0.9920 0.0005
vt 0.5867 0.9920 0.0005
vt 0.6708 0.9694 0.0005
vt 0.7498 0.9326 0.0005
vt 0.8826 0.8211 0.0005
vt 0.9389 0.5774 0.9995
vt 0.9189 0.6525 0.9988
vt 0.8860 0.7229 0.9995
vt 0.7865 0.8415 0.9995
vt 0.8415 0.7866 0.9988
vt 0.7229 0.8861 0.9988
vt 0.6524 0.9189 0.9995
vt 0.5000 0.9457 0.9995
vt 0.5774 0.9390 0.9988
vt 0.4226 0.9390 0.9988
vt 0.3476 0.9189 0.9995
vt 0.2135 0.8415 0.9995
vt 0.2771 0.8861 0.9988
vt 0.1140 0.2771 0.9995
vt 0.1585 0.7866 0.9988
vt 0.1140 0.7229 0.9995
vt 0.0611 0.5774 0.9995
vt 0.0811 0.6525 0.9988
vt 0.0543 0.5000 0.9988
vt 0.0611 0.4226 0.9995
vt 0.0811 0.3475 0.9988
vt 0.1585 0.2134 0.9988
vt 0.2135 0.1585 0.9995
vt 0.3476 0.0811 0.9995
vt 0.2771 0.1139 0.9988
vt 0.4226 0.0610 0.9988
vt 0.5000 0.0543 0.9995
vt 0.6524 0.0811 0.9995
vt 0.5774 0.0610 0.9988
vt 0.8860 0.2771 0.9995
vt 0.7229 0.1139 0.9988
vt 0.7865 0.1585 0.9995
vt 0.8415 0.2134 0.9988
vt 0.9189 0.3475 0.9988
vt 0.9389 0.4226 0.9995
vt 0.9457 0.5000 0.9988
# 182 texture coords

g Cylinder001
usemtl 14___Default
s 10
f 1/1/1 2/2/2 3/3/2 4/4/1 
f 5/5/3 1/1/1 4/4/1 6/6/3 
f 7/7/4 5/5/3 6/6/3 8/8/4 
f 9/9/5 7/7/4 8/8/4 10/10/5 
f 11/11/6 9/9/5 10/10/5 12/12/6 
f 13/13/7 11/11/6 12/12/6 14/14/7 
f 15/15/8 13/13/7 14/14/7 16/16/8 
f 17/17/9 15/15/8 16/16/8 18/18/9 
f 19/19/10 17/17/9 18/18/9 20/20/10 
f 21/21/11 19/19/10 20/20/10 22/22/11 
f 23/23/12 21/24/11 22/25/11 24/26/12 
f 25/27/13 23/23/12 24/26/12 26/28/13 
f 27/29/14 25/27/13 26/28/13 28/30/14 
f 29/31/15 27/29/14 28/30/14 30/32/15 
f 31/33/16 29/31/15 30/32/15 32/34/16 
f 33/35/17 31/33/16 32/34/16 34/36/17 
f 35/37/18 33/35/17 34/36/17 36/38/18 
f 37/39/19 35/37/18 36/38/18 38/40/19 
f 39/41/20 37/39/19 38/40/19 40/42/20 
f 41/43/21 39/41/20 40/42/20 42/44/21 
f 43/45/22 41/43/21 42/44/21 44/46/22 
f 45/47/23 43/45/22 44/46/22 46/48/23 
f 47/49/24 45/47/23 46/48/23 48/50/24 
f 49/51/25 47/49/24 48/50/24 50/52/25 
f 51/53/26 49/51/25 50/52/25 52/54/26 
f 53/55/27 51/53/26 52/54/26 54/56/27 
f 55/57/28 53/55/27 54/56/27 56/58/28 
f 57/59/29 55/57/28 56/58/28 58/60/29 
f 59/61/30 57/59/29 58/60/29 60/62/30 
f 61/63/31 59/61/30 60/62/30 62/64/31 
f 63/65/32 61/63/31 62/64/31 64/66/32 
f 65/67/33 63/65/32 64/66/32 66/68/33 
f 67/69/34 65/67/33 66/68/33 68/70/34 
f 69/71/35 67/69/34 68/70/34 70/72/35 
f 71/73/36 69/71/35 70/72/35 72/74/36 
f 2/2/2 71/73/36 72/74/36 3/3/2 
usemtl lamp
s 1
f 73/75/37 74/76/38 2/2/38 1/1/37 
f 75/77/39 73/75/37 1/1/37 5/5/39 
f 76/78/40 75/77/39 5/5/39 7/7/40 
f 77/79/41 76/78/40 7/7/40 9/9/41 
f 78/80/42 77/79/41 9/9/41 11/11/42 
f 79/81/43 78/80/42 11/11/42 13/13/43 
f 80/82/44 79/81/43 13/13/43 15/15/44 
f 81/83/45 80/82/44 15/15/44 17/17/45 
f 82/84/46 81/83/45 17/17/45 19/19/47 
f 83/85/48 82/84/46 19/19/47 21/21/48 
f 84/86/49 83/85/48 21/24/48 23/23/49 
f 85/87/50 84/86/49 23/23/49 25/27/50 
f 86/88/51 85/87/50 25/27/50 27/29/51 
f 87/89/52 86/88/51 27/29/51 29/31/52 
f 88/90/53 87/89/52 29/31/52 31/33/53 
f 89/91/54 88/90/53 31/33/53 33/35/54 
f 90/92/55 89/91/54 33/35/54 35/37/55 
f 91/93/56 90/92/55 35/37/55 37/39/56 
f 92/94/57 91/93/56 37/39/56 39/41/57 
f 93/95/58 92/94/57 39/41/57 41/43/58 
f 94/96/59 93/95/58 41/43/58 43/45/59 
f 95/97/60 94/96/59 43/45/59 45/47/60 
f 96/98/61 95/97/60 45/47/60 47/49/61 
f 97/99/62 96/98/61 47/49/61 49/51/62 
f 98/100/63 97/99/62 49/51/62 51/53/63 
f 99/101/64 98/100/63 51/53/63 53/55/64 
f 100/102/65 99/101/64 53/55/64 55/57/65 
f 101/103/66 100/102/65 55/57/65 57/59/66 
f 102/104/67 101/103/66 57/59/66 59/61/67 
f 103/105/68 102/104/67 59/61/67 61/63/68 
f 104/106/69 103/105/68 61/63/68 63/65/69 
f 105/107/70 104/106/69 63/65/69 65/67/70 
f 106/108/71 105/107/70 65/67/70 67/69/71 
f 107/109/72 106/108/71 67/69/71 69/71/72 
f 108/110/73 107/109/72 69/71/72 71/73/73 
f 74/76/38 108/110/73 71/73/73 2/2/38 
usemtl 14___Default
s off
f 8/111/74 6/112/74 4/113/74 12/114/74 
f 4/113/74 3/115/74 72/116/74 68/117/74 
f 72/116/74 70/118/74 68/117/74 
f 68/117/74 66/119/74 64/120/74 60/121/74 
f 64/120/74 62/122/74 60/121/74 
f 4/113/74 68/117/74 60/121/74 12/114/74 
f 60/121/74 58/123/74 56/124/74 52/125/74 
f 56/124/74 54/126/74 52/125/74 
f 52/125/74 50/127/74 48/128/74 44/129/74 
f 48/128/74 46/130/74 44/129/74 
f 60/121/74 52/125/74 44/129/74 12/114/74 
f 44/129/74 42/131/74 40/132/74 36/133/74 
f 40/132/74 38/134/74 36/133/74 
f 36/133/74 34/135/74 32/136/74 28/137/74 
f 32/136/74 30/138/74 28/137/74 
f 44/129/74 36/133/74 28/137/74 12/114/74 
f 28/137/74 26/139/74 24/140/74 20/141/74 
f 24/140/74 22/142/74 20/141/74 
f 20/141/74 18/143/74 16/144/74 12/114/74 
f 16/144/74 14/145/74 12/114/74 
f 28/137/74 20/141/74 12/114/74 
f 8/111/74 12/114/74 10/146/74 
s 10
f 109/3/75 110/2/19 111/1/20 112/4/20 
f 112/4/20 111/1/20 113/5/21 114/6/21 
f 114/6/21 113/5/21 115/7/22 116/8/22 
f 116/8/22 115/7/22 117/9/23 118/10/23 
f 118/10/23 117/9/23 119/11/24 120/12/24 
f 120/12/24 119/11/24 121/13/25 122/14/25 
f 122/14/25 121/13/25 123/15/26 124/16/26 
f 124/16/26 123/15/26 125/17/27 126/18/76 
f 126/18/76 125/17/27 127/19/77 128/20/78 
f 128/20/78 127/19/77 129/21/29 130/22/29 
f 130/25/29 129/24/29 131/23/30 132/26/30 
f 132/26/30 131/23/30 133/27/31 134/28/31 
f 134/28/31 133/27/31 135/29/32 136/30/32 
f 136/30/32 135/29/32 137/31/33 138/32/79 
f 138/32/79 137/31/33 139/33/80 140/34/80 
f 140/34/80 139/33/80 141/35/81 142/36/35 
f 142/36/35 141/35/81 143/37/36 144/38/82 
f 144/38/82 143/37/36 145/39/2 146/40/83 
f 146/40/83 145/39/2 147/41/1 148/42/1 
f 148/42/1 147/41/1 149/43/3 150/44/3 
f 150/44/3 149/43/3 151/45/4 152/46/4 
f 152/46/4 151/45/4 153/47/5 154/48/5 
f 154/48/5 153/47/5 155/49/6 156/50/6 
f 156/50/6 155/49/6 157/51/7 158/52/84 
f 158/52/84 157/51/7 159/53/85 160/54/85 
f 160/54/85 159/53/85 161/55/86 162/56/86 
f 162/56/86 161/55/86 163/57/10 164/58/10 
f 164/58/10 163/57/10 165/59/11 166/60/11 
f 166/60/11 165/59/11 167/61/12 168/62/12 
f 168/62/12 167/61/12 169/63/13 170/64/13 
f 170/64/13 169/63/13 171/65/14 172/66/14 
f 172/66/14 171/65/14 173/67/15 174/68/15 
f 174/68/15 173/67/15 175/69/16 176/70/16 
f 176/70/16 175/69/16 177/71/17 178/72/17 
f 178/72/17 177/71/17 179/73/18 180/74/87 
f 180/74/87 179/73/18 110/2/19 109/3/75 
usemtl lamp
s 1
f 110/2/88 181/76/88 182/75/89 111/1/89 
f 111/1/89 182/75/89 183/77/90 113/5/90 
f 113/5/90 183/77/90 184/78/91 115/7/91 
f 115/7/91 184/78/91 185/79/92 117/9/92 
f 117/9/92 185/79/92 186/80/93 119/11/93 
f 119/11/93 186/80/93 187/81/94 121/13/94 
f 121/13/94 187/81/94 188/82/95 123/15/95 
f 123/15/95 188/82/95 189/83/96 125/17/96 
f 125/17/96 189/83/96 190/84/97 127/19/97 
f 127/19/97 190/84/97 191/85/98 129/21/98 
f 129/24/98 191/85/98 192/86/99 131/23/99 
f 131/23/99 192/86/99 193/87/100 133/27/100 
f 133/27/100 193/87/100 194/88/101 135/29/101 
f 135/29/101 194/88/101 195/89/102 137/31/102 
f 137/31/102 195/89/102 196/90/103 139/33/103 
f 139/33/103 196/90/103 197/91/104 141/35/104 
f 141/35/104 197/91/104 198/92/105 143/37/105 
f 143/37/105 198/92/105 199/93/106 145/39/107 
f 145/39/107 199/93/106 200/94/108 147/41/108 
f 147/41/108 200/94/108 201/95/109 149/43/109 
f 149/43/109 201/95/109 202/96/110 151/45/110 
f 151/45/110 202/96/110 203/97/111 153/47/111 
f 153/47/111 203/97/111 204/98/112 155/49/112 
f 155/49/112 204/98/112 205/99/113 157/51/113 
f 157/51/113 205/99/113 206/100/114 159/53/114 
f 159/53/114 206/100/114 207/101/115 161/55/115 
f 161/55/115 207/101/115 208/102/116 163/57/116 
f 163/57/116 208/102/116 209/103/117 165/59/117 
f 165/59/117 209/103/117 210/104/118 167/61/118 
f 167/61/118 210/104/118 211/105/119 169/63/119 
f 169/63/119 211/105/119 212/106/120 171/65/120 
f 171/65/120 212/106/120 213/107/121 173/67/121 
f 173/67/121 213/107/121 214/108/122 175/69/122 
f 175/69/122 214/108/122 215/109/123 177/71/123 
f 177/71/123 215/109/123 216/110/124 179/73/124 
f 179/73/124 216/110/124 181/76/88 110/2/88 
usemtl 14___Default
s off
f 112/147/125 114/148/125 116/149/125 120/150/125 
f 116/149/126 118/151/126 120/150/126 
f 120/150/127 122/152/127 124/153/127 128/154/127 
f 124/153/128 126/155/128 128/154/128 
f 128/154/129 130/156/129 132/157/129 136/158/129 
f 132/157/130 134/159/130 136/158/130 
f 120/150/131 128/154/131 136/158/131 152/160/131 
f 136/158/132 138/161/132 140/162/132 144/163/132 
f 140/162/133 142/164/133 144/163/133 
f 144/163/134 146/165/134 148/166/134 152/160/134 
f 148/166/135 150/167/135 152/160/135 
f 136/158/136 144/163/136 152/160/136 
f 152/160/137 154/168/137 156/169/137 160/170/137 
f 156/169/138 158/171/138 160/170/138 
f 160/170/139 162/172/139 164/173/139 168/174/139 
f 164/173/140 166/175/140 168/174/140 
f 152/160/131 160/170/131 168/174/131 120/150/131 
f 112/147/131 120/150/131 168/174/131 176/176/131 
f 168/174/141 170/177/141 172/178/141 176/176/141 
f 172/178/142 174/179/142 176/176/142 
f 176/176/143 178/180/143 180/181/143 112/147/143 
f 112/147/144 180/181/144 109/182/144 
usemtl lamp
s 2
f 182/75/145 181/76/146 74/76/146 73/75/145 
f 183/77/147 182/75/145 73/75/145 75/77/147 
f 184/78/148 183/77/147 75/77/147 76/78/148 
f 185/79/149 184/78/148 76/78/148 77/79/149 
f 186/80/150 185/79/149 77/79/149 78/80/150 
f 187/81/151 186/80/150 78/80/150 79/81/151 
f 188/82/152 187/81/151 79/81/151 80/82/152 
f 189/83/153 188/82/152 80/82/152 81/83/153 
f 190/84/154 189/83/153 81/83/153 82/84/154 
f 191/85/155 190/84/154 82/84/154 83/85/155 
f 192/86/156 191/85/155 83/85/155 84/86/156 
f 193/87/157 192/86/156 84/86/156 85/87/157 
f 194/88/158 193/87/157 85/87/157 86/88/158 
f 195/89/159 194/88/158 86/88/158 87/89/159 
f 196/90/160 195/89/159 87/89/159 88/90/160 
f 197/91/161 196/90/160 88/90/160 89/91/161 
f 198/92/162 197/91/161 89/91/161 90/92/162 
f 199/93/163 198/92/162 90/92/162 91/93/163 
f 200/94/164 199/93/163 91/93/163 92/94/164 
f 201/95/165 200/94/164 92/94/164 93/95/165 
f 202/96/166 201/95/165 93/95/165 94/96/166 
f 203/97/167 202/96/166 94/96/166 95/97/167 
f 204/98/168 203/97/167 95/97/167 96/98/168 
f 205/99/169 204/98/168 96/98/168 97/99/169 
f 206/100/170 205/99/169 97/99/169 98/100/170 
f 207/101/171 206/100/170 98/100/170 99/101/171 
f 208/102/172 207/101/171 99/101/171 100/102/172 
f 209/103/173 208/102/172 100/102/172 101/103/173 
f 210/104/174 209/103/173 101/103/173 102/104/174 
f 211/105/175 210/104/174 102/104/174 103/105/175 
f 212/106/176 211/105/175 103/105/175 104/106/176 
f 213/107/177 212/106/176 104/106/176 105/107/177 
f 214/108/178 213/107/177 105/107/177 106/108/178 
f 215/109/179 214/108/178 106/108/178 107/109/179 
f 216/110/180 215/109/179 107/109/179 108/110/180 
f 181/76/146 216/110/180 108/110/180 74/76/146 
# 204 polygons - 20 triangles

