# 3ds Max Wavefront OBJ Exporter v0.97b - (c)2007 guruware
# File Created: 23.04.2014 14:53:35

mtllib 2pir_regal_narozny.mtl

#
# object Line01
#

v  -27.9380 21.4000 27.9711
v  -27.9380 21.4000 -27.9711
v  -27.9380 -21.4000 -27.9711
v  -27.9380 -21.4000 27.9711
v  -26.4680 -21.4000 27.9711
v  -26.4680 -21.4000 -26.5011
v  -26.4680 21.4000 -26.5011
v  -26.4680 21.4000 27.9711
v  -26.4680 -107.0000 -26.5011
v  -26.4680 -107.0000 27.9711
v  -27.9380 -107.0000 27.9711
v  -27.9380 -107.0000 -27.9711
v  -26.4680 107.0000 27.9711
v  -26.4680 107.0000 -26.5011
v  -27.9380 107.0000 -27.9711
v  -27.9380 107.0000 27.9711
v  -27.9380 64.2000 -27.9711
v  -27.9380 64.2000 27.9711
v  -27.9380 -64.2000 27.9711
v  -27.9380 -64.2000 -27.9711
v  -26.4680 -64.2000 -26.5011
v  -26.4680 -64.2000 27.9711
v  -26.4680 64.2000 27.9711
v  -26.4680 64.2000 -26.5011
# 24 vertices

vn -1.0000 0.0000 -0.0000
vn 1.0000 0.0000 -0.0000
vn 0.0000 -1.0000 -0.0000
vn 0.0000 0.0000 1.0000
vn 0.0000 1.0000 -0.0000
# 5 vertex normals

vt 0.9995 0.5999 0.0005
vt 0.0005 0.5999 0.0005
vt 0.0005 0.4001 0.0005
vt 0.9995 0.4001 0.0005
vt 0.0005 0.4001 0.0268
vt 0.9732 0.4001 0.0268
vt 0.9732 0.5999 0.0268
vt 0.0005 0.5999 0.0268
vt 0.9732 0.9732 0.0005
vt 0.9732 0.0005 0.0005
vt 0.9995 0.0005 0.0005
vt 0.9995 0.9995 0.0005
vt 0.0268 0.4001 0.0005
vt 0.0268 0.5999 0.0005
vt 0.0268 0.0005 0.9995
vt 0.0268 0.9732 0.9995
vt 0.0005 0.9995 0.9995
vt 0.0005 0.0005 0.9995
vt 0.0005 0.9995 0.0005
vt 0.0005 0.7997 0.0005
vt 0.9995 0.7997 0.0005
vt 0.0005 0.0005 0.0005
vt 0.9995 0.2003 0.0005
vt 0.0005 0.2003 0.0005
vt 0.0005 0.0005 0.0268
vt 0.9732 0.0005 0.0268
vt 0.9732 0.2003 0.0268
vt 0.0005 0.2003 0.0268
vt 0.9732 0.9995 0.0268
vt 0.0005 0.9995 0.0268
vt 0.0005 0.7997 0.0268
vt 0.9732 0.7997 0.0268
vt 0.0268 0.0005 0.0005
vt 0.0268 0.2003 0.0005
vt 0.0268 0.9995 0.0005
vt 0.0268 0.7997 0.0005
# 36 texture coords

g Line01
usemtl Material__37
s 4
f 1/1/1 2/2/1 3/3/1 4/4/1 
f 5/5/2 6/6/2 7/7/2 8/8/2 
s 2
f 9/9/3 10/10/3 11/11/3 12/12/3 
s 1
f 4/3/4 5/13/4 8/14/4 1/2/4 
s 2
f 13/15/5 14/16/5 15/17/5 16/18/5 
s 4
f 16/12/1 15/19/1 17/20/1 18/21/1 
f 18/21/1 17/20/1 2/2/1 1/1/1 
f 12/22/1 11/11/1 19/23/1 20/24/1 
f 20/24/1 19/23/1 4/4/1 3/3/1 
f 10/25/2 9/26/2 21/27/2 22/28/2 
f 22/28/2 21/27/2 6/6/2 5/5/2 
f 14/29/2 13/30/2 23/31/2 24/32/2 
f 24/32/2 23/31/2 8/8/2 7/7/2 
s 1
f 11/22/4 10/33/4 22/34/4 19/24/4 
f 19/24/4 22/34/4 5/13/4 4/3/4 
f 13/35/4 16/19/4 18/20/4 23/36/4 
f 23/36/4 18/20/4 1/2/4 8/14/4 
# 17 polygons

#
# object Line02
#

v  -26.3491 -105.3000 -26.4484
v  27.6732 -105.3000 -26.4484
v  27.6732 -107.0000 -26.4484
v  -26.3491 -107.0000 -26.4484
v  -26.3491 -105.3000 27.5739
v  -26.3491 -107.0000 27.5739
# 6 vertices

vn 0.0000 0.0000 -1.0000
vn -1.0000 0.0000 -0.0000
vn 0.7071 0.0000 0.7071
vn 0.0000 -1.0000 -0.0000
vn 0.0000 1.0000 -0.0000
# 5 vertex normals

vt 0.9711 0.0084 0.9723
vt 0.0052 0.0084 0.9723
vt 0.0052 0.0005 0.9723
vt 0.9711 0.0005 0.9723
vt 0.9924 0.0084 0.0289
vt 0.0277 0.0084 0.0289
vt 0.0277 0.0005 0.0289
vt 0.9924 0.0005 0.0289
vt 0.9723 0.0084 0.9948
vt 0.0076 0.0084 0.0289
vt 0.0076 0.0005 0.0289
vt 0.9723 0.0005 0.9948
vt 0.9711 0.9723 0.0005
vt 0.0052 0.9723 0.0005
vt 0.9711 0.0076 0.0005
vt 0.0289 0.9723 0.0084
vt 0.0289 0.0076 0.0084
vt 0.9948 0.9723 0.0084
# 18 texture coords

g Line02
usemtl Material__37
s 1
f 25/37/6 26/38/6 27/39/6 28/40/6 
s 4
f 29/41/7 25/42/7 28/43/7 30/44/7 
s 2
f 26/45/8 29/46/8 30/47/8 27/48/8 
s 16
f 28/49/9 27/50/9 30/51/9 
f 25/52/10 29/53/10 26/54/10 
# 3 polygons - 2 triangles

#
# object Line03
#

v  -26.3491 -62.4290 -26.4484
v  27.6732 -62.4290 -26.4484
v  27.6732 -64.1290 -26.4484
v  -26.3491 -64.1290 -26.4484
v  -26.3491 -62.4290 27.5739
v  -26.3491 -64.1290 27.5739
# 6 vertices

vn 0.0000 0.0000 -1.0000
vn -1.0000 0.0000 -0.0000
vn 0.7071 0.0000 0.7071
vn 0.0000 -1.0000 -0.0000
vn 0.0000 1.0000 -0.0000
# 5 vertex normals

vt 0.9711 0.2086 0.9723
vt 0.0052 0.2086 0.9723
vt 0.0052 0.2006 0.9723
vt 0.9711 0.2006 0.9723
vt 0.9924 0.2086 0.0289
vt 0.0277 0.2086 0.0289
vt 0.0277 0.2006 0.0289
vt 0.9924 0.2006 0.0289
vt 0.9723 0.2086 0.9948
vt 0.0076 0.2086 0.0289
vt 0.0076 0.2006 0.0289
vt 0.9723 0.2006 0.9948
vt 0.9711 0.9723 0.2006
vt 0.0052 0.9723 0.2006
vt 0.9711 0.0076 0.2006
vt 0.0289 0.9723 0.2086
vt 0.0289 0.0076 0.2086
vt 0.9948 0.9723 0.2086
# 18 texture coords

g Line03
usemtl Material__37
s 1
f 31/55/11 32/56/11 33/57/11 34/58/11 
s 4
f 35/59/12 31/60/12 34/61/12 36/62/12 
s 2
f 32/63/13 35/64/13 36/65/13 33/66/13 
s 16
f 34/67/14 33/68/14 36/69/14 
f 31/70/15 35/71/15 32/72/15 
# 3 polygons - 2 triangles

#
# object Line04
#

v  -26.3491 -19.5580 -26.4484
v  27.6732 -19.5580 -26.4484
v  27.6732 -21.2580 -26.4484
v  -26.3491 -21.2580 -26.4484
v  -26.3491 -19.5580 27.5739
v  -26.3491 -21.2580 27.5739
# 6 vertices

vn 0.0000 0.0000 -1.0000
vn -1.0000 0.0000 -0.0000
vn 0.7071 0.0000 0.7071
vn 0.0000 -1.0000 -0.0000
vn 0.0000 1.0000 -0.0000
# 5 vertex normals

vt 0.9711 0.4087 0.9723
vt 0.0052 0.4087 0.9723
vt 0.0052 0.4008 0.9723
vt 0.9711 0.4008 0.9723
vt 0.9924 0.4087 0.0289
vt 0.0277 0.4087 0.0289
vt 0.0277 0.4008 0.0289
vt 0.9924 0.4008 0.0289
vt 0.9723 0.4087 0.9948
vt 0.0076 0.4087 0.0289
vt 0.0076 0.4008 0.0289
vt 0.9723 0.4008 0.9948
vt 0.9711 0.9723 0.4008
vt 0.0052 0.9723 0.4008
vt 0.9711 0.0076 0.4008
vt 0.0289 0.9723 0.4087
vt 0.0289 0.0076 0.4087
vt 0.9948 0.9723 0.4087
# 18 texture coords

g Line04
usemtl Material__37
s 1
f 37/73/16 38/74/16 39/75/16 40/76/16 
s 4
f 41/77/17 37/78/17 40/79/17 42/80/17 
s 2
f 38/81/18 41/82/18 42/83/18 39/84/18 
s 16
f 40/85/19 39/86/19 42/87/19 
f 37/88/20 41/89/20 38/90/20 
# 3 polygons - 2 triangles

#
# object Line05
#

v  -26.3491 23.3130 -26.4484
v  27.6732 23.3130 -26.4484
v  27.6732 21.6130 -26.4484
v  -26.3491 21.6130 -26.4484
v  -26.3491 23.3130 27.5739
v  -26.3491 21.6130 27.5739
# 6 vertices

vn 0.0000 0.0000 -1.0000
vn -1.0000 0.0000 -0.0000
vn 0.7071 0.0000 0.7071
vn 0.0000 -1.0000 -0.0000
vn 0.0000 1.0000 -0.0000
# 5 vertex normals

vt 0.9711 0.6088 0.9723
vt 0.0052 0.6088 0.9723
vt 0.0052 0.6009 0.9723
vt 0.9711 0.6009 0.9723
vt 0.9924 0.6088 0.0289
vt 0.0277 0.6088 0.0289
vt 0.0277 0.6009 0.0289
vt 0.9924 0.6009 0.0289
vt 0.9723 0.6088 0.9948
vt 0.0076 0.6088 0.0289
vt 0.0076 0.6009 0.0289
vt 0.9723 0.6009 0.9948
vt 0.9711 0.9723 0.6009
vt 0.0052 0.9723 0.6009
vt 0.9711 0.0076 0.6009
vt 0.0289 0.9723 0.6088
vt 0.0289 0.0076 0.6088
vt 0.9948 0.9723 0.6088
# 18 texture coords

g Line05
usemtl Material__37
s 1
f 43/91/21 44/92/21 45/93/21 46/94/21 
s 4
f 47/95/22 43/96/22 46/97/22 48/98/22 
s 2
f 44/99/23 47/100/23 48/101/23 45/102/23 
s 16
f 46/103/24 45/104/24 48/105/24 
f 43/106/25 47/107/25 44/108/25 
# 3 polygons - 2 triangles

#
# object Line06
#

v  -26.3491 66.1840 -26.4484
v  27.6732 66.1840 -26.4484
v  27.6732 64.4840 -26.4484
v  -26.3491 64.4840 -26.4484
v  -26.3491 66.1840 27.5739
v  -26.3491 64.4840 27.5739
# 6 vertices

vn 0.0000 0.0000 -1.0000
vn -1.0000 0.0000 -0.0000
vn 0.7071 0.0000 0.7071
vn 0.0000 -1.0000 -0.0000
vn 0.0000 1.0000 -0.0000
# 5 vertex normals

vt 0.9711 0.8090 0.9723
vt 0.0052 0.8090 0.9723
vt 0.0052 0.8010 0.9723
vt 0.9711 0.8010 0.9723
vt 0.9924 0.8090 0.0289
vt 0.0277 0.8090 0.0289
vt 0.0277 0.8010 0.0289
vt 0.9924 0.8010 0.0289
vt 0.9723 0.8090 0.9948
vt 0.0076 0.8090 0.0289
vt 0.0076 0.8010 0.0289
vt 0.9723 0.8010 0.9948
vt 0.9711 0.9723 0.8010
vt 0.0052 0.9723 0.8010
vt 0.9711 0.0076 0.8010
vt 0.0289 0.9723 0.8090
vt 0.0289 0.0076 0.8090
vt 0.9948 0.9723 0.8090
# 18 texture coords

g Line06
usemtl Material__37
s 1
f 49/109/26 50/110/26 51/111/26 52/112/26 
s 4
f 53/113/27 49/114/27 52/115/27 54/116/27 
s 2
f 50/117/28 53/118/28 54/119/28 51/120/28 
s 16
f 52/121/29 51/122/29 54/123/29 
f 49/124/30 53/125/30 50/126/30 
# 3 polygons - 2 triangles

#
# object Line07
#

v  -26.3491 106.6314 -26.4484
v  27.6732 106.6314 -26.4484
v  27.6732 104.9314 -26.4484
v  -26.3491 104.9314 -26.4484
v  -26.3491 106.6314 27.5739
v  -26.3491 104.9314 27.5739
# 6 vertices

vn 0.0000 0.0000 -1.0000
vn -1.0000 0.0000 -0.0000
vn 0.7071 0.0000 0.7071
vn 0.0000 -1.0000 -0.0000
vn 0.0000 1.0000 -0.0000
# 5 vertex normals

vt 0.9711 0.9978 0.9723
vt 0.0052 0.9978 0.9723
vt 0.0052 0.9898 0.9723
vt 0.9711 0.9898 0.9723
vt 0.9924 0.9978 0.0289
vt 0.0277 0.9978 0.0289
vt 0.0277 0.9898 0.0289
vt 0.9924 0.9898 0.0289
vt 0.9723 0.9978 0.9948
vt 0.0076 0.9978 0.0289
vt 0.0076 0.9898 0.0289
vt 0.9723 0.9898 0.9948
vt 0.9711 0.9723 0.9898
vt 0.0052 0.9723 0.9898
vt 0.9711 0.0076 0.9898
vt 0.0289 0.9723 0.9978
vt 0.0289 0.0076 0.9978
vt 0.9948 0.9723 0.9978
# 18 texture coords

g Line07
usemtl Material__37
s 1
f 55/127/31 56/128/31 57/129/31 58/130/31 
s 4
f 59/131/32 55/132/32 58/133/32 60/134/32 
s 2
f 56/135/33 59/136/33 60/137/33 57/138/33 
s 16
f 58/139/34 57/140/34 60/141/34 
f 55/142/35 59/143/35 56/144/35 
# 3 polygons - 2 triangles

#
# object Object001
#

v  -27.9380 21.4000 -27.9711
v  27.9380 21.4000 -27.9711
v  27.9380 -21.4000 -27.9711
v  -27.9380 -21.4000 -27.9711
v  -26.4680 -21.4000 -26.5011
v  27.9380 -21.4000 -26.5011
v  27.9380 21.4000 -26.5011
v  -26.4680 21.4000 -26.5011
v  27.9380 -107.0000 -26.5011
v  -26.4680 -107.0000 -26.5011
v  -27.9380 -107.0000 -27.9711
v  27.9380 -107.0000 -27.9711
v  -26.4680 107.0000 -26.5011
v  27.9380 107.0000 -26.5011
v  27.9380 107.0000 -27.9711
v  -27.9380 107.0000 -27.9711
v  27.9380 64.2000 -27.9711
v  -27.9380 64.2000 -27.9711
v  -27.9380 -64.2000 -27.9711
v  27.9380 -64.2000 -27.9711
v  27.9380 -64.2000 -26.5011
v  -26.4680 -64.2000 -26.5011
v  -26.4680 64.2000 -26.5011
v  27.9380 64.2000 -26.5011
# 24 vertices

vn 0.0000 0.0000 -1.0000
vn 0.0000 0.0000 1.0000
vn 0.0000 -1.0000 -0.0000
vn 0.0000 1.0000 -0.0000
vn 1.0000 0.0000 -0.0000
# 5 vertex normals

vt 0.9995 0.5999 0.9995
vt 0.0005 0.5999 0.9995
vt 0.0005 0.4001 0.9995
vt 0.9995 0.4001 0.9995
vt 0.0268 0.4001 0.9732
vt 0.9995 0.4001 0.9732
vt 0.9995 0.5999 0.9732
vt 0.0268 0.5999 0.9732
vt 0.0005 0.9732 0.0005
vt 0.9732 0.9732 0.0005
vt 0.9995 0.9995 0.0005
vt 0.0005 0.9995 0.0005
vt 0.0268 0.9732 0.9995
vt 0.9995 0.9732 0.9995
vt 0.9995 0.9995 0.9995
vt 0.0005 0.9995 0.9995
vt 0.9732 0.5999 0.9995
vt 0.9732 0.4001 0.9995
vt 0.0005 0.7997 0.9995
vt 0.9995 0.7997 0.9995
vt 0.0005 0.0005 0.9995
vt 0.9995 0.0005 0.9995
vt 0.9995 0.2003 0.9995
vt 0.0005 0.2003 0.9995
vt 0.0268 0.0005 0.9732
vt 0.9995 0.0005 0.9732
vt 0.9995 0.2003 0.9732
vt 0.0268 0.2003 0.9732
vt 0.9995 0.9995 0.9732
vt 0.0268 0.9995 0.9732
vt 0.0268 0.7997 0.9732
vt 0.9995 0.7997 0.9732
vt 0.9732 0.9995 0.9995
vt 0.9732 0.7997 0.9995
vt 0.9732 0.0005 0.9995
vt 0.9732 0.2003 0.9995
# 36 texture coords

g Object001
usemtl Material__37
s 1
f 61/145/36 62/146/36 63/147/36 64/148/36 
f 65/149/37 66/150/37 67/151/37 68/152/37 
s 2
f 69/153/38 70/154/38 71/155/38 72/156/38 
f 73/157/39 74/158/39 75/159/39 76/160/39 
s 4
f 62/145/40 67/161/40 66/162/40 63/148/40 
s 1
f 76/159/36 75/160/36 77/163/36 78/164/36 
f 78/164/36 77/163/36 62/146/36 61/145/36 
f 72/165/36 71/166/36 79/167/36 80/168/36 
f 80/168/36 79/167/36 64/148/36 63/147/36 
f 70/169/37 69/170/37 81/171/37 82/172/37 
f 82/172/37 81/171/37 66/150/37 65/149/37 
f 74/173/37 73/174/37 83/175/37 84/176/37 
f 84/176/37 83/175/37 68/152/37 67/151/37 
s 4
f 75/159/40 74/177/40 84/178/40 77/164/40 
f 77/164/40 84/178/40 67/161/40 62/145/40 
f 69/179/40 72/166/40 80/167/40 81/180/40 
f 81/180/40 80/167/40 63/148/40 66/162/40 
# 17 polygons

