# 3ds Max Wavefront OBJ Exporter v0.97b - (c)2007 guruware
# File Created: 23.04.2014 14:53:53

mtllib 2pir_komoda_waska.mtl

#
# object Rectangle11
#

v  -24.0202 48.5076 21.2380
v  24.0827 48.5076 21.2381
v  24.0827 48.5076 -23.3683
v  -24.0202 48.5076 -23.3684
v  -24.0202 -50.4638 21.2379
v  -24.0202 -50.4638 -23.3685
v  24.0827 -50.4638 21.2380
v  24.0827 -50.4638 -23.3684
# 8 vertices

vn -0.0000 1.0000 -0.0000
vn -0.0000 1.0000 0.0000
vn -1.0000 0.0000 -0.0000
vn 0.0000 -1.0000 -0.0000
vn 1.0000 -0.0000 0.0000
vn 0.0000 0.0000 -1.0000
vn -0.0000 -0.0000 1.0000
# 7 vertex normals

vt 0.9995 0.9995 0.9995
vt 0.0005 0.9995 0.9995
vt 0.0005 0.0005 0.9995
vt 0.9995 0.0005 0.9995
vt 0.9995 0.9995 0.0005
vt 0.0005 0.9995 0.0005
vt 0.0005 0.0005 0.0005
vt 0.9995 0.0005 0.0005
# 8 texture coords

g Rectangle11
usemtl Material__37
s 1
f 1/1/1 2/2/2 3/3/2 4/4/1 
s 4
f 5/5/3 1/6/3 4/7/3 6/8/3 
s 2
f 7/5/4 5/6/4 6/7/4 8/8/4 
s 4
f 2/1/5 7/2/5 8/3/5 3/4/5 
s 16
f 6/8/6 4/5/6 3/6/6 8/7/6 
f 2/1/7 1/2/7 5/3/7 7/4/7 
# 6 polygons

#
# object Rectangle10
#

v  22.3493 -49.1440 23.3684
v  21.6101 -49.2293 23.3684
v  21.6101 -49.2293 21.3684
v  22.3493 -49.1440 21.3684
v  23.0280 -48.9011 23.3684
v  23.0280 -48.9011 21.3684
v  23.6270 -48.5201 23.3684
v  23.6270 -48.5201 21.3684
v  24.1267 -48.0203 23.3684
v  24.1267 -48.0203 21.3684
v  24.5078 -47.4214 23.3684
v  24.5078 -47.4214 21.3684
v  24.7506 -46.7426 23.3684
v  24.7506 -46.7426 21.3684
v  24.8359 -46.0034 23.3684
v  24.8359 -46.0034 21.3684
v  24.8359 8.2398 21.3684
v  24.8359 8.2398 23.3684
v  0.0000 -49.2293 21.3684
v  0.0000 8.2398 21.3685
v  0.0000 -49.2293 23.3684
v  0.0000 8.2398 23.3685
v  22.3492 50.3784 23.3685
v  22.3492 50.3784 21.3685
v  21.6101 50.4637 21.3685
v  21.6101 50.4637 23.3685
v  23.0280 50.1355 23.3685
v  23.0280 50.1355 21.3685
v  23.6270 49.7545 23.3685
v  23.6270 49.7545 21.3685
v  24.1267 49.2547 23.3685
v  24.1267 49.2547 21.3685
v  24.5077 48.6558 23.3685
v  24.5077 48.6558 21.3685
v  24.7506 47.9770 23.3685
v  24.7506 47.9770 21.3685
v  24.8359 47.2379 23.3685
v  24.8359 47.2379 21.3685
v  24.8359 30.2868 23.3685
v  24.8359 30.2868 21.3685
v  0.0000 50.4637 23.3685
v  0.0000 30.2868 23.3685
v  24.8359 29.7668 21.3685
v  24.8359 29.7668 23.3685
v  24.8359 8.7598 23.3684
v  24.8359 8.7598 21.3684
v  0.0000 29.7668 23.3685
v  0.0000 8.7597 23.3685
v  0.0000 30.2868 21.3685
v  0.0000 29.7668 21.3685
v  0.0000 8.7598 21.3685
v  0.0000 50.4637 21.3685
v  -22.3493 -49.1440 23.3684
v  -22.3493 -49.1440 21.3684
v  -21.6101 -49.2293 21.3684
v  -21.6101 -49.2293 23.3684
v  -23.0280 -48.9011 23.3684
v  -23.0280 -48.9011 21.3684
v  -23.6270 -48.5201 23.3684
v  -23.6270 -48.5201 21.3684
v  -24.1267 -48.0203 23.3684
v  -24.1267 -48.0203 21.3684
v  -24.5077 -47.4214 23.3684
v  -24.5077 -47.4214 21.3684
v  -24.7506 -46.7426 23.3684
v  -24.7506 -46.7426 21.3684
v  -24.8359 -46.0034 23.3684
v  -24.8359 -46.0034 21.3684
v  -24.8359 8.2398 21.3684
v  -24.8359 8.2398 23.3684
v  -22.3492 50.3784 23.3684
v  -21.6101 50.4637 23.3684
v  -21.6101 50.4637 21.3684
v  -22.3492 50.3784 21.3684
v  -23.0280 50.1355 23.3684
v  -23.0280 50.1355 21.3684
v  -23.6270 49.7545 23.3684
v  -23.6270 49.7545 21.3684
v  -24.1267 49.2547 23.3684
v  -24.1267 49.2547 21.3684
v  -24.5077 48.6558 23.3684
v  -24.5077 48.6558 21.3684
v  -24.7506 47.9770 23.3684
v  -24.7506 47.9770 21.3684
v  -24.8359 47.2379 23.3684
v  -24.8359 47.2379 21.3684
v  -24.8359 30.2868 21.3684
v  -24.8359 30.2868 23.3684
v  -24.8359 29.7668 21.3684
v  -24.8359 8.7598 21.3684
v  -24.8359 8.7598 23.3684
v  -24.8359 29.7668 23.3684
# 92 vertices

vn 0.2272 -0.9738 0.0000
vn 0.1146 -0.9934 -0.0000
vn 0.1146 -0.9934 0.0000
vn 0.4395 -0.8982 0.0000
vn 0.4395 -0.8982 -0.0000
vn 0.6257 -0.7801 -0.0000
vn 0.7801 -0.6256 -0.0000
vn 0.8982 -0.4395 -0.0000
vn 0.9738 -0.2272 0.0000
vn 0.9934 -0.1146 0.0000
vn 1.0000 0.0000 0.0000
vn -0.0000 0.0000 -1.0000
vn 0.0000 0.0000 -1.0000
vn 0.0000 -0.0000 1.0000
vn -0.0000 -0.0000 1.0000
vn 0.0000 0.0000 1.0000
vn -0.0000 0.0000 1.0000
vn 0.2272 0.9738 0.0000
vn 0.1146 0.9934 0.0000
vn 0.4395 0.8982 0.0000
vn 0.6257 0.7801 0.0000
vn 0.7801 0.6257 0.0000
vn 0.7801 0.6256 0.0000
vn 0.8982 0.4396 -0.0000
vn 0.8982 0.4395 -0.0000
vn 0.9738 0.2272 -0.0000
vn 0.9738 0.2272 0.0000
vn 0.9934 0.1146 0.0000
vn 1.0000 -0.0000 0.0000
vn 0.0000 -1.0000 -0.0000
vn -0.0000 1.0000 0.0000
vn -0.0000 -0.0000 -1.0000
vn -0.0000 -1.0000 -0.0000
vn -0.2272 -0.9738 0.0000
vn -0.1146 -0.9934 0.0000
vn -0.1146 -0.9934 -0.0000
vn -0.4395 -0.8982 0.0000
vn -0.4395 -0.8982 -0.0000
vn -0.6257 -0.7801 -0.0000
vn -0.7801 -0.6256 -0.0000
vn -0.8982 -0.4395 -0.0000
vn -0.9738 -0.2272 -0.0000
vn -0.9934 -0.1146 -0.0000
vn -1.0000 0.0000 -0.0000
vn -0.2272 0.9738 0.0000
vn -0.1146 0.9934 0.0000
vn -0.4395 0.8982 0.0000
vn -0.6257 0.7801 0.0000
vn -0.7801 0.6257 0.0000
vn -0.7801 0.6256 0.0000
vn -0.8982 0.4396 -0.0000
vn -0.8982 0.4395 -0.0000
vn -0.9738 0.2272 -0.0000
vn -0.9738 0.2272 0.0000
vn -0.9934 0.1146 0.0000
vn -1.0000 0.0000 0.0000
vn 0.0000 1.0000 0.0000
vn 0.0000 -0.0000 -1.0000
# 58 vertex normals

vt 0.4250 0.9995 0.0051
vt 0.4188 0.9995 0.0042
vt 0.4188 0.0005 0.0042
vt 0.4250 0.0005 0.0051
vt 0.4308 0.9995 0.0075
vt 0.4308 0.0005 0.0075
vt 0.4359 0.9995 0.0113
vt 0.4359 0.0005 0.0113
vt 0.4401 0.9995 0.0163
vt 0.4401 0.0005 0.0163
vt 0.0222 0.9995 0.5566
vt 0.0163 0.9995 0.5599
vt 0.0163 0.0005 0.5599
vt 0.0222 0.0005 0.5566
vt 0.0290 0.9995 0.5546
vt 0.0290 0.0005 0.5546
vt 0.0363 0.9995 0.5539
vt 0.0363 0.0005 0.5539
vt 0.5758 0.0005 0.5539
vt 0.5758 0.9995 0.5539
vt 0.9837 0.5599 0.0005
vt 0.9887 0.5641 0.0005
vt 0.9925 0.5692 0.0005
vt 0.9958 0.5812 0.0005
vt 0.9949 0.5750 0.0005
vt 0.9958 0.7646 0.0005
vt 0.4242 0.7646 0.0005
vt 0.9637 0.5539 0.0005
vt 0.4242 0.5539 0.0005
vt 0.9710 0.5546 0.0005
vt 0.9778 0.5566 0.0005
vt 0.0290 0.5546 0.9995
vt 0.0363 0.5539 0.9995
vt 0.5758 0.5539 0.9995
vt 0.0042 0.7646 0.9995
vt 0.5758 0.7646 0.9995
vt 0.0042 0.5812 0.9995
vt 0.0051 0.5750 0.9995
vt 0.0075 0.5692 0.9995
vt 0.0113 0.5641 0.9995
vt 0.0163 0.5599 0.9995
vt 0.0222 0.5566 0.9995
vt 0.5750 0.9995 0.9949
vt 0.5750 0.0005 0.9949
vt 0.5812 0.0005 0.9958
vt 0.5812 0.9995 0.9958
vt 0.5692 0.9995 0.9925
vt 0.5692 0.0005 0.9925
vt 0.5641 0.9995 0.9887
vt 0.5641 0.0005 0.9887
vt 0.5599 0.9995 0.9837
vt 0.5599 0.0005 0.9837
vt 0.9778 0.9995 0.5566
vt 0.9778 0.0005 0.5566
vt 0.9837 0.0005 0.5599
vt 0.9837 0.9995 0.5599
vt 0.9710 0.9995 0.5546
vt 0.9710 0.0005 0.5546
vt 0.9637 0.9995 0.5539
vt 0.9637 0.0005 0.5539
vt 0.7951 0.9995 0.5539
vt 0.7951 0.0005 0.5539
vt 0.9637 0.5539 0.9995
vt 0.9710 0.5546 0.9995
vt 0.9778 0.5566 0.9995
vt 0.9887 0.5641 0.9995
vt 0.9837 0.5599 0.9995
vt 0.9925 0.5692 0.9995
vt 0.9949 0.5750 0.9995
vt 0.9958 0.5812 0.9995
vt 0.9958 0.7646 0.9995
vt 0.7951 0.7646 0.9995
vt 0.7951 0.5539 0.9995
vt 0.7899 0.0005 0.5539
vt 0.7899 0.9995 0.5539
vt 0.5810 0.9995 0.5539
vt 0.5810 0.0005 0.5539
vt 0.7899 0.5539 0.9995
vt 0.7899 0.7646 0.9995
vt 0.5810 0.7646 0.9995
vt 0.5810 0.5539 0.9995
vt 0.2354 0.9995 0.7951
vt 0.2354 0.0005 0.7951
vt 0.4461 0.0005 0.7951
vt 0.4461 0.9995 0.7951
vt 0.7646 0.0005 0.7899
vt 0.7646 0.9995 0.7899
vt 0.5539 0.9995 0.7899
vt 0.5539 0.0005 0.7899
vt 0.2354 0.9995 0.5810
vt 0.2354 0.0005 0.5810
vt 0.4461 0.0005 0.5810
vt 0.4461 0.9995 0.5810
vt 0.7646 0.0005 0.5758
vt 0.7646 0.9995 0.5758
vt 0.5539 0.9995 0.5758
vt 0.5539 0.0005 0.5758
vt 0.7646 0.0005 0.9958
vt 0.7646 0.9995 0.9958
vt 0.0042 0.5812 0.0005
vt 0.0051 0.5750 0.0005
vt 0.0075 0.5692 0.0005
vt 0.0163 0.5599 0.0005
vt 0.0113 0.5641 0.0005
vt 0.0222 0.5566 0.0005
vt 0.0290 0.5546 0.0005
vt 0.0363 0.5539 0.0005
vt 0.2049 0.5539 0.0005
vt 0.2049 0.7646 0.0005
vt 0.0042 0.7646 0.0005
vt 0.2101 0.5539 0.0005
vt 0.4190 0.5539 0.0005
vt 0.4190 0.7646 0.0005
vt 0.2101 0.7646 0.0005
vt 0.2354 0.9995 0.0042
vt 0.2354 0.0005 0.0042
vt 0.0458 0.9995 0.0051
vt 0.0458 0.0005 0.0051
vt 0.0520 0.0005 0.0042
vt 0.0520 0.9995 0.0042
vt 0.0400 0.9995 0.0075
vt 0.0400 0.0005 0.0075
vt 0.0349 0.9995 0.0113
vt 0.0349 0.0005 0.0113
vt 0.0307 0.9995 0.0163
vt 0.0307 0.0005 0.0163
vt 0.9778 0.9995 0.9725
vt 0.9778 0.0005 0.9725
vt 0.9837 0.0005 0.9693
vt 0.9837 0.9995 0.9693
vt 0.9710 0.9995 0.9746
vt 0.9710 0.0005 0.9746
vt 0.9637 0.9995 0.9753
vt 0.9637 0.0005 0.9753
vt 0.4242 0.0005 0.9753
vt 0.4242 0.9995 0.9753
vt 0.9637 0.9753 0.0005
vt 0.4242 0.9753 0.0005
vt 0.9958 0.9480 0.0005
vt 0.9949 0.9542 0.0005
vt 0.9925 0.9600 0.0005
vt 0.9837 0.9693 0.0005
vt 0.9887 0.9651 0.0005
vt 0.9710 0.9746 0.0005
vt 0.9778 0.9725 0.0005
vt 0.0113 0.9651 0.9995
vt 0.0075 0.9600 0.9995
vt 0.0051 0.9542 0.9995
vt 0.0290 0.9746 0.9995
vt 0.0042 0.9480 0.9995
vt 0.5758 0.9753 0.9995
vt 0.0363 0.9753 0.9995
vt 0.0163 0.9693 0.9995
vt 0.0222 0.9725 0.9995
vt 0.9542 0.9995 0.9949
vt 0.9480 0.9995 0.9958
vt 0.9480 0.0005 0.9958
vt 0.9542 0.0005 0.9949
vt 0.9600 0.9995 0.9925
vt 0.9600 0.0005 0.9925
vt 0.9651 0.9995 0.9887
vt 0.9651 0.0005 0.9887
vt 0.9693 0.9995 0.9837
vt 0.9693 0.0005 0.9837
vt 0.0222 0.9995 0.9725
vt 0.0163 0.9995 0.9693
vt 0.0163 0.0005 0.9693
vt 0.0222 0.0005 0.9725
vt 0.0290 0.9995 0.9746
vt 0.0290 0.0005 0.9746
vt 0.0363 0.9995 0.9753
vt 0.0363 0.0005 0.9753
vt 0.2049 0.0005 0.9753
vt 0.2049 0.9995 0.9753
vt 0.9958 0.9480 0.9995
vt 0.9949 0.9542 0.9995
vt 0.9637 0.9753 0.9995
vt 0.9925 0.9600 0.9995
vt 0.9887 0.9651 0.9995
vt 0.9837 0.9693 0.9995
vt 0.9778 0.9725 0.9995
vt 0.9710 0.9746 0.9995
vt 0.7951 0.9753 0.9995
vt 0.2101 0.0005 0.9753
vt 0.4190 0.0005 0.9753
vt 0.4190 0.9995 0.9753
vt 0.2101 0.9995 0.9753
vt 0.7899 0.9753 0.9995
vt 0.5810 0.9753 0.9995
vt 0.0247 0.9995 0.7951
vt 0.0247 0.0005 0.7951
vt 0.9753 0.0005 0.7899
vt 0.9753 0.9995 0.7899
vt 0.0247 0.9995 0.5810
vt 0.0247 0.0005 0.5810
vt 0.9753 0.0005 0.5758
vt 0.9753 0.9995 0.5758
vt 0.2049 0.9753 0.0005
vt 0.0363 0.9753 0.0005
vt 0.0290 0.9746 0.0005
vt 0.0042 0.9480 0.0005
vt 0.0222 0.9725 0.0005
vt 0.0163 0.9693 0.0005
vt 0.0113 0.9651 0.0005
vt 0.0075 0.9600 0.0005
vt 0.0051 0.9542 0.0005
vt 0.2101 0.9753 0.0005
vt 0.4190 0.9753 0.0005
# 208 texture coords

g Rectangle10
usemtl kolor_1_
s 2
f 9/9/8 10/10/9 11/11/10 12/12/8 
f 13/13/11 9/9/8 12/12/8 14/14/12 
f 15/15/13 13/13/11 14/14/12 16/16/13 
f 17/17/14 15/15/13 16/16/13 18/18/14 
f 19/19/15 17/20/14 18/21/14 20/22/15 
f 21/23/16 19/19/15 20/22/15 22/24/16 
f 23/25/17 21/23/16 22/24/16 24/26/17 
s 4
f 25/27/18 26/28/18 23/25/18 24/26/18 
s 16
f 18/29/19 16/30/19 14/31/19 11/32/19 
f 14/31/19 12/33/19 11/32/19 
f 11/32/19 27/34/20 28/35/20 24/36/19 
f 28/35/20 25/37/19 24/36/19 
f 18/29/19 11/32/19 24/36/19 22/38/19 
f 20/39/19 18/29/19 22/38/19 
f 21/40/21 23/41/22 26/42/21 29/43/22 
f 26/42/21 30/44/22 29/43/22 
f 29/43/22 10/45/23 9/46/23 21/40/21 
f 9/46/23 13/47/24 15/48/21 21/40/21 
f 21/40/21 15/48/21 17/49/24 19/50/21 
s 2
f 31/51/25 32/52/25 33/53/26 34/54/26 
f 35/55/27 36/56/27 32/52/25 31/51/25 
f 37/57/28 38/58/28 36/56/27 35/55/27 
f 39/59/29 40/60/30 38/58/28 37/57/28 
f 41/61/31 42/62/32 40/63/30 39/64/29 
f 43/65/33 44/66/34 42/62/32 41/61/31 
f 45/67/35 46/68/35 44/66/34 43/65/33 
s 4
f 46/68/36 45/67/36 47/69/18 48/70/18 
s 16
f 45/71/21 43/72/22 41/73/21 37/74/21 
f 41/73/21 39/75/22 37/74/21 
f 37/74/21 35/76/22 31/77/21 45/71/21 
f 31/77/21 34/78/21 49/79/22 45/71/21 
f 45/71/21 49/79/22 50/80/22 47/81/21 
s 4
f 51/82/18 52/83/18 53/84/18 54/85/18 
s 16
f 52/86/21 55/87/22 56/88/22 53/89/21 
s off
f 50/90/37 57/91/37 48/92/37 47/93/37 
f 58/94/38 55/95/38 52/96/38 51/97/38 
f 56/98/37 59/99/37 54/100/37 53/101/37 
f 28/102/38 30/103/38 26/104/38 25/105/38 
s 4
f 34/54/38 33/53/38 60/106/38 49/107/38 
s 16
f 33/108/19 32/109/39 36/110/39 40/111/19 
f 36/110/39 38/112/39 40/111/19 
f 40/111/19 42/113/39 44/114/19 33/108/19 
f 44/114/19 46/115/19 48/116/19 33/108/19 
f 33/108/19 48/116/19 57/117/20 60/118/20 
f 51/119/19 54/120/19 59/121/20 58/122/20 
s 4
f 11/11/40 10/10/40 29/123/37 27/124/37 
s 2
f 61/125/41 62/126/41 63/127/42 64/128/43 
f 65/129/44 66/130/45 62/126/41 61/125/41 
f 67/131/46 68/132/46 66/130/45 65/129/44 
f 69/133/47 70/134/47 68/132/46 67/131/46 
f 71/135/48 72/136/48 70/137/47 69/138/47 
f 73/139/49 74/140/49 72/136/48 71/135/48 
f 75/141/50 76/142/50 74/140/49 73/139/49 
s 4
f 77/143/51 76/142/51 75/141/51 78/144/51 
s 16
f 76/145/20 77/146/20 28/35/20 63/147/20 
f 28/35/20 27/34/20 63/147/20 
f 63/147/20 62/148/20 66/149/20 70/150/20 
f 66/149/20 68/151/20 70/150/20 
f 76/145/20 63/147/20 70/150/20 74/152/20 
f 72/153/20 74/152/20 70/150/20 
f 67/154/22 65/155/23 61/156/24 73/157/22 
f 61/156/24 64/158/24 29/43/22 73/157/22 
f 29/43/22 30/44/22 78/159/22 73/157/22 
f 78/159/22 75/160/21 73/157/22 
f 69/161/23 67/154/22 73/157/22 71/162/22 
s 2
f 79/163/52 80/164/53 81/165/53 82/166/52 
f 83/167/54 79/163/52 82/166/52 84/168/54 
f 85/169/55 83/167/54 84/168/54 86/170/55 
f 87/171/56 85/169/55 86/170/55 88/172/57 
f 89/173/58 87/174/56 88/175/57 90/176/59 
f 91/177/60 89/173/58 90/176/59 92/178/61 
f 93/179/62 91/177/60 92/178/61 94/180/62 
s 4
f 94/180/63 95/181/63 96/182/63 93/179/63 
s 16
f 49/79/22 80/183/22 79/184/22 93/185/22 
f 79/184/22 83/186/21 85/187/22 93/185/22 
f 85/187/22 87/188/21 89/189/22 93/185/22 
f 89/189/22 91/190/22 93/185/22 
f 50/80/22 49/79/22 93/185/22 96/191/22 
s 4
f 97/192/63 98/193/51 99/194/63 100/195/63 
s 16
f 100/196/22 99/197/22 56/88/22 55/87/22 
s off
f 50/90/40 96/198/40 95/199/40 57/91/40 
f 58/94/64 97/200/64 100/201/64 55/95/64 
f 56/98/40 99/202/40 98/203/40 59/99/40 
f 28/102/64 77/204/64 78/205/64 30/103/64 
s 4
f 80/164/64 49/107/38 60/106/38 81/165/64 
s 16
f 95/206/20 94/207/20 92/208/20 81/209/20 
f 92/208/20 90/210/65 88/211/20 81/209/20 
f 88/211/20 86/212/65 84/213/65 81/209/20 
f 84/213/65 82/214/65 81/209/20 
f 57/117/20 95/206/20 81/209/20 60/118/20 
f 97/215/20 58/122/20 59/121/20 98/216/20 
s 4
f 63/127/37 27/124/37 29/123/37 64/128/37 
# 80 polygons - 12 triangles

