# 3ds Max Wavefront OBJ Exporter v0.97b - (c)2007 guruware
# File Created: 23.04.2014 14:53:10

mtllib 2pir_szafa_3d.mtl

#
# object Rectangle11
#

v  -72.1369 106.5751 26.9166
v  71.7008 106.5751 26.9167
v  71.7008 106.5751 -29.0217
v  -72.1368 106.5751 -29.0217
v  -72.1368 -22.5169 -29.0218
v  -72.1369 -22.5169 26.9166
v  -72.1369 20.5137 26.9166
v  -72.1368 20.5138 -29.0217
v  71.7008 -108.5783 26.9166
v  -72.1369 -108.5783 26.9165
v  -72.1368 -108.5783 -29.0218
v  71.7008 -108.5783 -29.0218
v  71.7008 20.5138 -29.0217
v  71.7008 20.5138 26.9166
v  71.7008 -22.5169 26.9166
v  71.7008 -22.5169 -29.0217
v  -72.1369 -65.5476 26.9166
v  -72.1368 -65.5476 -29.0218
v  -72.1369 63.5444 26.9166
v  -72.1368 63.5444 -29.0217
v  71.7008 63.5444 26.9167
v  71.7008 63.5445 -29.0217
v  71.7008 -65.5476 -29.0217
v  71.7008 -65.5476 26.9166
# 24 vertices

vn -0.0000 1.0000 0.0000
vn -1.0000 0.0000 -0.0000
vn 0.0000 -1.0000 -0.0000
vn 1.0000 -0.0000 0.0000
vn 0.0000 0.0000 -1.0000
vn -0.0000 -0.0000 1.0000
# 6 vertex normals

vt 0.9995 0.9995 0.9995
vt 0.0005 0.9995 0.9995
vt 0.0005 0.0005 0.9995
vt 0.9995 0.0005 0.9995
vt 0.5999 0.0005 0.0005
vt 0.5999 0.9995 0.0005
vt 0.4001 0.9995 0.0005
vt 0.4001 0.0005 0.0005
vt 0.9995 0.9995 0.0005
vt 0.0005 0.9995 0.0005
vt 0.0005 0.0005 0.0005
vt 0.9995 0.0005 0.0005
vt 0.5999 0.0005 0.9995
vt 0.5999 0.9995 0.9995
vt 0.4001 0.9995 0.9995
vt 0.4001 0.0005 0.9995
vt 0.9995 0.5999 0.0005
vt 0.0005 0.5999 0.0005
vt 0.0005 0.4001 0.0005
vt 0.9995 0.4001 0.0005
vt 0.9995 0.5999 0.9995
vt 0.0005 0.5999 0.9995
vt 0.0005 0.4001 0.9995
vt 0.9995 0.4001 0.9995
vt 0.7997 0.9995 0.0005
vt 0.7997 0.0005 0.0005
vt 0.2003 0.9995 0.0005
vt 0.2003 0.0005 0.0005
vt 0.7997 0.9995 0.9995
vt 0.7997 0.0005 0.9995
vt 0.2003 0.0005 0.9995
vt 0.2003 0.9995 0.9995
vt 0.0005 0.7997 0.0005
vt 0.9995 0.7997 0.0005
vt 0.9995 0.2003 0.0005
vt 0.0005 0.2003 0.0005
vt 0.0005 0.7997 0.9995
vt 0.9995 0.7997 0.9995
vt 0.9995 0.2003 0.9995
vt 0.0005 0.2003 0.9995
# 40 texture coords

g Rectangle11
usemtl Material__37
s 1
f 1/1/1 2/2/1 3/3/1 4/4/1 
s 4
f 5/5/2 6/6/2 7/7/2 8/8/2 
s 2
f 9/9/3 10/10/3 11/11/3 12/12/3 
s 4
f 13/13/4 14/14/4 15/15/4 16/16/4 
s 16
f 8/17/5 13/18/5 16/19/5 5/20/5 
f 14/21/6 7/22/6 6/23/6 15/24/6 
s 4
f 11/12/2 10/9/2 17/25/2 18/26/2 
f 18/26/2 17/25/2 6/6/2 5/5/2 
f 19/27/2 1/10/2 4/11/2 20/28/2 
f 19/27/2 20/28/2 8/8/2 7/7/2 
f 3/4/4 2/1/4 21/29/4 22/30/4 
f 22/30/4 21/29/4 14/14/4 13/13/4 
f 9/2/4 12/3/4 23/31/4 24/32/4 
f 24/32/4 23/31/4 16/16/4 15/15/4 
s 16
f 4/9/5 3/10/5 22/33/5 20/34/5 
f 20/34/5 22/33/5 13/18/5 8/17/5 
f 12/11/5 11/12/5 18/35/5 23/36/5 
f 23/36/5 18/35/5 5/20/5 16/19/5 
f 2/1/6 1/2/6 19/37/6 21/38/6 
f 21/38/6 19/37/6 7/22/6 14/21/6 
f 10/3/6 9/4/6 24/39/6 17/40/6 
f 17/40/6 24/39/6 15/24/6 6/23/6 
# 22 polygons

#
# object Rectangle10
#

v  72.4868 106.0917 29.0218
v  72.5721 105.3525 29.0218
v  72.5721 105.3525 27.0218
v  72.4868 106.0917 27.0218
v  72.2439 106.7704 29.0218
v  72.2439 106.7704 27.0218
v  71.8629 107.3694 29.0218
v  71.8629 107.3694 27.0218
v  71.3632 107.8691 29.0218
v  71.3631 107.8691 27.0218
v  70.7642 108.2501 29.0218
v  70.7642 108.2501 27.0218
v  70.0854 108.4930 29.0218
v  70.0854 108.4930 27.0218
v  69.3463 108.5783 29.0218
v  69.3463 108.5783 27.0218
v  24.3091 108.5783 27.0218
v  24.3091 108.5783 29.0218
v  -70.0854 108.4930 29.0218
v  -69.3463 108.5783 29.0218
v  -69.3463 108.5783 27.0218
v  -70.0854 108.4930 27.0218
v  -70.7642 108.2502 29.0218
v  -70.7642 108.2502 27.0218
v  -71.3632 107.8691 29.0218
v  -71.3632 107.8691 27.0218
v  -71.8629 107.3694 29.0218
v  -71.8629 107.3694 27.0218
v  -72.2439 106.7704 29.0218
v  -72.2439 106.7704 27.0218
v  -72.4868 106.0916 29.0218
v  -72.4868 106.0916 27.0218
v  -72.5721 105.3525 29.0218
v  -72.5721 105.3525 27.0218
v  -72.5721 -104.9222 27.0217
v  -72.5721 -104.9222 29.0217
v  -24.6200 108.5783 27.0218
v  -24.6200 -108.1480 27.0217
v  -69.3463 -108.1480 27.0217
v  -70.0854 -108.0627 27.0217
v  -70.7642 -107.8199 27.0217
v  -71.8629 -106.9391 27.0217
v  -71.3632 -107.4388 27.0217
v  -72.2439 -106.3401 27.0217
v  -72.4868 -105.6614 27.0217
v  -24.6200 108.5783 29.0218
v  -72.4868 -105.6614 29.0217
v  -72.2439 -106.3401 29.0217
v  -71.8629 -106.9391 29.0217
v  -71.3632 -107.4388 29.0217
v  -70.7642 -107.8199 29.0217
v  -70.0854 -108.0627 29.0217
v  -69.3463 -108.1480 29.0217
v  -24.6200 -108.1480 29.0217
v  24.3091 -108.1480 27.0217
v  72.5721 -104.9222 27.0218
v  72.4868 -105.6614 27.0218
v  69.3463 -108.1480 27.0218
v  72.2439 -106.3401 27.0218
v  71.8629 -106.9391 27.0218
v  71.3632 -107.4389 27.0218
v  70.7642 -107.8199 27.0218
v  70.0854 -108.0628 27.0218
v  72.5721 -104.9222 29.0218
v  72.4868 -105.6614 29.0218
v  72.2439 -106.3401 29.0218
v  71.8629 -106.9391 29.0218
v  71.3632 -107.4389 29.0218
v  70.7642 -107.8199 29.0218
v  70.0854 -108.0628 29.0218
v  69.3463 -108.1480 29.0218
v  24.3091 -108.1480 29.0217
v  -24.1320 108.5783 29.0218
v  -24.1320 108.5783 27.0218
v  -24.1320 -108.1480 27.0217
v  -24.1320 -108.1480 29.0217
v  23.8602 108.5783 29.0218
v  23.8602 108.5783 27.0218
v  23.8602 -108.1480 27.0217
v  23.8602 -108.1480 29.0217
# 80 vertices

vn 0.9738 0.2272 -0.0000
vn 0.9934 0.1146 -0.0000
vn 0.8982 0.4395 -0.0000
vn 0.7801 0.6257 -0.0000
vn 0.6257 0.7801 -0.0000
vn 0.4395 0.8982 -0.0000
vn 0.2272 0.9738 -0.0000
vn 0.1146 0.9934 -0.0000
vn 0.0000 1.0000 0.0000
vn -0.2272 0.9738 0.0000
vn -0.1146 0.9934 0.0000
vn -0.4395 0.8982 0.0000
vn -0.6257 0.7801 0.0000
vn -0.7801 0.6256 0.0000
vn -0.8982 0.4395 0.0000
vn -0.9738 0.2272 -0.0000
vn -0.9934 0.1146 -0.0000
vn -1.0000 -0.0000 -0.0000
vn 0.0000 0.0000 -1.0000
vn 0.0000 -0.0000 -1.0000
vn -0.0000 -0.0000 -1.0000
vn -0.0000 -0.0000 1.0000
vn 0.0000 -0.0000 1.0000
vn 0.0000 0.0000 1.0000
vn -0.0000 0.0000 1.0000
vn -0.0000 0.0000 -1.0000
vn 1.0000 0.0000 -0.0000
vn 1.0000 0.0000 0.0000
vn 1.0000 -0.0000 0.0000
vn 0.9738 -0.2272 0.0000
vn 0.9934 -0.1146 0.0000
vn 0.8982 -0.4395 0.0000
vn 0.7801 -0.6257 0.0000
vn 0.6257 -0.7801 0.0000
vn 0.4395 -0.8982 0.0000
vn 0.2272 -0.9738 0.0000
vn 0.1146 -0.9934 0.0000
vn -0.0000 -1.0000 -0.0000
vn -0.2272 -0.9738 -0.0000
vn -0.1146 -0.9934 -0.0000
vn -0.4395 -0.8982 -0.0000
vn -0.6257 -0.7801 -0.0000
vn -0.7801 -0.6257 -0.0000
vn -0.8982 -0.4395 -0.0000
vn -0.9738 -0.2272 -0.0000
vn -0.9934 -0.1146 -0.0000
vn 0.0000 -1.0000 -0.0000
vn -1.0000 -0.0000 0.0000
vn -1.0000 0.0000 -0.0000
vn -0.0000 1.0000 0.0000
# 50 vertex normals

vt 0.9989 0.9880 0.9995
vt 0.9995 0.9846 0.9995
vt 0.9995 0.9846 0.0005
vt 0.9989 0.9880 0.0005
vt 0.9972 0.9912 0.9995
vt 0.9972 0.9912 0.0005
vt 0.9946 0.9939 0.9995
vt 0.9946 0.9939 0.0005
vt 0.9912 0.9962 0.9995
vt 0.9912 0.9962 0.0005
vt 0.9871 0.9980 0.9995
vt 0.9871 0.9980 0.0005
vt 0.9824 0.9991 0.9995
vt 0.9824 0.9991 0.0005
vt 0.9773 0.9995 0.9995
vt 0.9773 0.9995 0.0005
vt 0.6673 0.9995 0.0005
vt 0.6673 0.9995 0.9995
vt 0.0176 0.9991 0.9995
vt 0.0227 0.9995 0.9995
vt 0.0227 0.9995 0.0005
vt 0.0176 0.9991 0.0005
vt 0.0129 0.9980 0.9995
vt 0.0129 0.9980 0.0005
vt 0.0088 0.9962 0.9995
vt 0.0088 0.9962 0.0005
vt 0.0054 0.9939 0.9995
vt 0.0054 0.9939 0.0005
vt 0.0028 0.9912 0.9995
vt 0.0028 0.9912 0.0005
vt 0.0011 0.9880 0.9995
vt 0.0011 0.9880 0.0005
vt 0.0005 0.9846 0.9995
vt 0.0005 0.9846 0.0005
vt 0.0005 0.0154 0.0005
vt 0.0005 0.0154 0.9995
vt 0.3305 0.9995 0.0005
vt 0.3305 0.0005 0.0005
vt 0.0227 0.0005 0.0005
vt 0.0176 0.0009 0.0005
vt 0.0129 0.0020 0.0005
vt 0.0054 0.0061 0.0005
vt 0.0088 0.0038 0.0005
vt 0.0028 0.0088 0.0005
vt 0.0011 0.0120 0.0005
vt 0.3305 0.9995 0.9995
vt 0.0011 0.0120 0.9995
vt 0.0028 0.0088 0.9995
vt 0.0054 0.0061 0.9995
vt 0.0088 0.0038 0.9995
vt 0.0129 0.0020 0.9995
vt 0.0176 0.0009 0.9995
vt 0.0227 0.0005 0.9995
vt 0.3305 0.0005 0.9995
vt 0.6673 0.0005 0.0005
vt 0.9995 0.0154 0.0005
vt 0.9989 0.0120 0.0005
vt 0.9773 0.0005 0.0005
vt 0.9972 0.0088 0.0005
vt 0.9946 0.0061 0.0005
vt 0.9912 0.0038 0.0005
vt 0.9871 0.0020 0.0005
vt 0.9824 0.0009 0.0005
vt 0.9995 0.0154 0.9995
vt 0.9989 0.0120 0.9995
vt 0.9972 0.0088 0.9995
vt 0.9946 0.0061 0.9995
vt 0.9912 0.0038 0.9995
vt 0.9871 0.0020 0.9995
vt 0.9824 0.0009 0.9995
vt 0.9773 0.0005 0.9995
vt 0.6673 0.0005 0.9995
vt 0.3339 0.9995 0.9995
vt 0.3339 0.9995 0.0005
vt 0.3339 0.0005 0.0005
vt 0.3339 0.0005 0.9995
vt 0.6642 0.9995 0.9995
vt 0.6642 0.9995 0.0005
vt 0.6642 0.0005 0.0005
vt 0.6642 0.0005 0.9995
# 80 texture coords

g Rectangle10
usemtl kolor_3_
s 2
f 25/41/7 26/42/8 27/43/8 28/44/7 
f 29/45/9 25/41/7 28/44/7 30/46/9 
f 31/47/10 29/45/9 30/46/9 32/48/10 
f 33/49/11 31/47/10 32/48/10 34/50/11 
f 35/51/12 33/49/11 34/50/11 36/52/12 
f 37/53/13 35/51/12 36/52/12 38/54/13 
f 39/55/14 37/53/13 38/54/13 40/56/14 
s 4
f 41/57/15 42/58/15 39/55/15 40/56/15 
s 2
f 43/59/16 44/60/17 45/61/17 46/62/16 
f 47/63/18 43/59/16 46/62/16 48/64/18 
f 49/65/19 47/63/18 48/64/18 50/66/19 
f 51/67/20 49/65/19 50/66/19 52/68/20 
f 53/69/21 51/67/20 52/68/20 54/70/21 
f 55/71/22 53/69/21 54/70/21 56/72/22 
f 57/73/23 55/71/22 56/72/22 58/74/23 
s 4
f 59/75/24 60/76/24 57/73/24 58/74/24 
s 16
f 52/68/25 50/66/25 48/64/25 45/61/25 
f 48/64/25 46/62/26 45/61/25 
f 61/77/25 62/78/25 63/79/25 59/75/25 
f 63/79/25 64/80/26 65/81/25 66/82/25 
f 65/81/25 67/83/27 66/82/25 
f 66/82/25 68/84/25 69/85/25 59/75/25 
f 63/79/25 66/82/25 59/75/25 
f 61/77/25 59/75/25 58/74/25 45/61/25 
f 52/68/25 45/61/25 58/74/25 56/72/25 
f 54/70/25 52/68/25 56/72/25 
f 55/71/28 57/73/29 60/76/28 70/86/28 
f 71/87/28 72/88/28 73/89/30 74/90/31 
f 74/90/31 75/91/30 76/92/31 71/87/28 
f 76/92/31 77/93/31 78/94/28 71/87/28 
f 60/76/28 71/87/28 78/94/28 70/86/28 
f 70/86/28 44/60/28 43/59/28 55/71/28 
f 43/59/28 47/63/29 49/65/28 55/71/28 
f 55/71/28 49/65/28 51/67/29 53/69/31 
s 4
f 45/61/15 44/60/15 70/86/15 61/77/15 
s 16
f 40/56/25 38/54/25 36/52/26 32/48/25 
f 36/52/26 34/50/25 32/48/25 
f 32/48/25 30/46/25 28/44/25 40/56/25 
f 40/56/25 28/44/25 27/43/25 79/95/25 
f 27/43/25 80/96/25 81/97/25 82/98/25 
f 81/97/25 83/99/32 84/100/25 82/98/25 
f 84/100/25 85/101/32 86/102/25 82/98/25 
f 86/102/25 87/103/25 82/98/25 
f 27/43/25 82/98/25 79/95/25 
f 41/57/25 40/56/25 79/95/25 
s 4
f 27/43/33 26/42/33 88/104/34 80/96/34 
s 1
f 61/77/35 70/86/35 78/94/35 62/78/35 
s 2
f 89/105/36 81/97/36 80/96/37 88/104/37 
f 90/106/38 83/99/38 81/97/36 89/105/36 
f 91/107/39 84/100/39 83/99/38 90/106/38 
f 92/108/40 85/101/40 84/100/39 91/107/39 
f 93/109/41 86/102/41 85/101/40 92/108/40 
f 94/110/42 87/103/42 86/102/41 93/109/41 
f 95/111/43 82/98/43 87/103/42 94/110/42 
s 4
f 79/95/44 82/98/44 95/111/44 96/112/44 
s 2
f 76/92/45 64/80/45 63/79/46 77/93/46 
f 75/91/47 65/81/47 64/80/45 76/92/45 
f 74/90/48 67/83/48 65/81/47 75/91/47 
f 73/89/49 66/82/49 67/83/48 74/90/48 
f 72/88/50 68/84/50 66/82/49 73/89/49 
f 71/87/51 69/85/51 68/84/50 72/88/50 
f 60/76/52 59/75/52 69/85/51 71/87/51 
s 4
f 63/79/53 62/78/53 78/94/53 77/93/53 
s 16
f 26/42/28 25/41/30 29/45/29 33/49/28 
f 29/45/29 31/47/28 33/49/28 
f 33/49/28 35/51/30 37/53/28 26/42/28 
f 37/53/28 39/55/28 42/58/28 26/42/28 
f 96/112/28 95/111/31 94/110/28 88/104/28 
f 94/110/28 93/109/29 92/108/28 88/104/28 
f 92/108/28 91/107/29 90/106/31 88/104/28 
f 90/106/31 89/105/29 88/104/28 
f 42/58/28 96/112/28 88/104/28 26/42/28 
s 1
f 42/58/54 41/57/54 79/95/54 96/112/54 
f 97/113/54 98/114/54 99/115/24 100/116/55 
s off
f 101/117/56 102/118/56 98/114/56 97/113/56 
f 102/118/32 103/119/32 99/115/32 98/114/32 
f 103/119/44 104/120/44 100/116/44 99/115/44 
f 104/120/29 101/117/29 97/113/29 100/116/29 
f 104/120/34 103/119/34 102/118/34 101/117/34 
# 69 polygons - 10 triangles

