# 3ds Max Wavefront OBJ Exporter v0.97b - (c)2007 guruware
# File Created: 23.04.2014 14:53:56

mtllib 2pir_regal.mtl

#
# object Box02
#

v  20.0386 -107.1103 -27.9873
v  20.0386 -107.1103 28.1209
v  -20.1722 -107.1103 28.1209
v  -20.1722 -107.1103 -27.9873
v  20.0386 -104.1713 -27.9873
v  -20.1722 -104.1713 -27.9873
v  -20.1722 -104.1713 28.1209
v  20.0386 -104.1713 28.1209
# 8 vertices

vn 0.0000 -1.0000 -0.0000
vn 0.0000 1.0000 -0.0000
vn 0.0000 0.0000 1.0000
vn 1.0000 0.0000 -0.0000
vn 0.0000 0.0000 -1.0000
vn -1.0000 0.0000 -0.0000
# 6 vertex normals

vt 0.0005 0.9995 0.0005
vt 0.0005 0.0005 0.0005
vt 0.9995 0.0005 0.0005
vt 0.9995 0.9995 0.0005
vt 0.9995 0.9995 0.0142
vt 0.0005 0.9995 0.0142
vt 0.0005 0.0005 0.0142
vt 0.9995 0.0005 0.0142
vt 0.9995 0.0142 0.0005
vt 0.0005 0.0142 0.0005
vt 0.9995 0.0142 0.9995
vt 0.0005 0.0142 0.9995
vt 0.0005 0.0005 0.9995
vt 0.9995 0.0005 0.9995
# 14 texture coords

g Box02
usemtl Material__37
s 2
f 1/1/1 2/2/1 3/3/1 4/4/1 
s 4
f 5/5/2 6/6/2 7/7/2 8/8/2 
s 8
f 8/9/3 7/10/3 3/2/3 2/3/3 
s 16
f 5/11/4 8/12/4 2/13/4 1/14/4 
s 32
f 6/11/5 5/12/5 1/13/5 4/14/5 
s 64
f 7/9/6 6/10/6 4/2/6 3/3/6 
# 6 polygons

#
# object Box06
#

v  -18.3977 -64.0704 28.1209
v  -18.3977 -64.0704 -26.7341
v  18.4162 -64.0704 -26.7341
v  18.4162 -64.0704 28.1209
v  -18.3977 -61.1314 28.1209
v  18.4162 -61.1314 28.1209
v  18.4162 -61.1314 -26.7341
v  -18.3977 -61.1314 -26.7341
# 8 vertices

vn 0.0000 -1.0000 -0.0000
vn 0.0000 1.0000 -0.0000
vn 0.0000 0.0000 1.0000
vn 1.0000 0.0000 -0.0000
vn 0.0000 0.0000 -1.0000
vn -1.0000 0.0000 -0.0000
# 6 vertex normals

vt 0.9554 0.0005 0.2012
vt 0.9554 0.9772 0.2012
vt 0.0408 0.9772 0.2012
vt 0.0408 0.0005 0.2012
vt 0.0446 0.0005 0.2149
vt 0.9592 0.0005 0.2149
vt 0.9592 0.9772 0.2149
vt 0.0446 0.9772 0.2149
vt 0.0446 0.2012 0.0005
vt 0.9592 0.2012 0.0005
vt 0.9592 0.2149 0.0005
vt 0.0446 0.2149 0.0005
vt 0.0005 0.2012 0.9592
vt 0.9772 0.2012 0.9592
vt 0.9772 0.2149 0.9592
vt 0.0005 0.2149 0.9592
vt 0.0408 0.2012 0.9772
vt 0.9554 0.2012 0.9772
vt 0.9554 0.2149 0.9772
vt 0.0408 0.2149 0.9772
vt 0.0228 0.2012 0.0446
vt 0.9995 0.2012 0.0446
vt 0.9995 0.2149 0.0446
vt 0.0228 0.2149 0.0446
# 24 texture coords

g Box06
usemtl Material__37
s 2
f 9/15/7 10/16/7 11/17/7 12/18/7 
s 4
f 13/19/8 14/20/8 15/21/8 16/22/8 
s 8
f 9/23/9 12/24/9 14/25/9 13/26/9 
s 16
f 12/27/10 11/28/10 15/29/10 14/30/10 
s 32
f 11/31/11 10/32/11 16/33/11 15/34/11 
s 64
f 10/35/12 9/36/12 13/37/12 16/38/12 
# 6 polygons

#
# object Box07
#

v  20.0386 104.1712 -27.9873
v  20.0386 104.1712 28.1209
v  -20.1722 104.1712 28.1209
v  -20.1722 104.1712 -27.9873
v  20.0386 107.1102 -27.9873
v  -20.1722 107.1102 -27.9873
v  -20.1722 107.1102 28.1209
v  20.0386 107.1102 28.1209
# 8 vertices

vn 0.0000 -1.0000 -0.0000
vn 0.0000 1.0000 -0.0000
vn 0.0000 0.0000 1.0000
vn 1.0000 0.0000 -0.0000
vn 0.0000 0.0000 -1.0000
vn -1.0000 0.0000 -0.0000
# 6 vertex normals

vt 0.0005 0.9995 0.9858
vt 0.0005 0.0005 0.9858
vt 0.9995 0.0005 0.9858
vt 0.9995 0.9995 0.9858
vt 0.9995 0.9995 0.9995
vt 0.0005 0.9995 0.9995
vt 0.0005 0.0005 0.9995
vt 0.9995 0.0005 0.9995
vt 0.9995 0.9995 0.0005
vt 0.0005 0.9995 0.0005
vt 0.0005 0.9858 0.0005
vt 0.9995 0.9858 0.0005
vt 0.0005 0.9858 0.9995
vt 0.9995 0.9858 0.9995
# 14 texture coords

g Box07
usemtl Material__37
s 2
f 17/39/13 18/40/13 19/41/13 20/42/13 
s 4
f 21/43/14 22/44/14 23/45/14 24/46/14 
s 8
f 24/47/15 23/48/15 19/49/15 18/50/15 
s 16
f 21/43/16 24/44/16 18/51/16 17/52/16 
s 32
f 22/43/17 21/44/17 17/51/17 20/52/17 
s 64
f 23/47/18 22/48/18 20/49/18 19/50/18 
# 6 polygons

#
# object Line01
#

v  -20.0386 20.8456 -28.1209
v  20.1722 20.8456 -28.1209
v  20.1722 -20.8344 -28.1209
v  -20.0386 -20.8344 -28.1209
v  -17.8886 -20.8344 -25.9709
v  18.0222 -20.8344 -25.9709
v  18.0222 20.8456 -25.9709
v  -17.8886 20.8456 -25.9709
v  18.0222 -104.1943 -25.9709
v  -17.8886 -104.1943 -25.9709
v  -20.0386 -104.1943 -28.1209
v  20.1722 -104.1943 -28.1209
v  -17.8886 104.2055 -25.9709
v  18.0222 104.2055 -25.9709
v  20.1722 104.2055 -28.1209
v  -20.0386 104.2055 -28.1209
v  20.1722 62.5255 -28.1209
v  -20.0386 62.5255 -28.1209
v  -20.0386 -62.5144 -28.1209
v  20.1722 -62.5144 -28.1209
v  18.0222 -62.5144 -25.9709
v  -17.8886 -62.5144 -25.9709
v  -17.8886 62.5255 -25.9709
v  18.0222 62.5255 -25.9709
# 24 vertices

vn 0.0000 0.0000 -1.0000
vn 0.0000 -0.0000 1.0000
vn 0.0000 -1.0000 -0.0000
vn 0.0000 1.0000 -0.0000
vn 0.0000 0.0000 1.0000
# 5 vertex normals

vt 0.4865 0.6197 0.9962
vt 0.4865 0.6197 0.0005
vt 0.4865 0.4359 0.0005
vt 0.4865 0.4359 0.9962
vt 0.4965 0.4359 0.9430
vt 0.4965 0.4359 0.0537
vt 0.4965 0.6197 0.0537
vt 0.4965 0.6197 0.9430
vt 0.4965 0.0684 0.0537
vt 0.4965 0.0684 0.9430
vt 0.4865 0.0684 0.9962
vt 0.4865 0.0684 0.0005
vt 0.4965 0.9872 0.9430
vt 0.4965 0.9872 0.0537
vt 0.4865 0.9872 0.0005
vt 0.4865 0.9872 0.9962
vt 0.4865 0.8034 0.0005
vt 0.4865 0.8034 0.9962
vt 0.4865 0.2522 0.9962
vt 0.4865 0.2522 0.0005
vt 0.4965 0.2522 0.0537
vt 0.4965 0.2522 0.9430
vt 0.4965 0.8034 0.9430
vt 0.4965 0.8034 0.0537
# 24 texture coords

g Line01
usemtl Material__37
s 4
f 25/53/19 26/54/19 27/55/19 28/56/19 
f 29/57/20 30/58/20 31/59/20 32/60/20 
s 8
f 33/61/21 34/62/21 35/63/21 36/64/21 
f 37/65/22 38/66/22 39/67/22 40/68/22 
s 4
f 40/68/19 39/67/19 41/69/19 42/70/19 
f 42/70/19 41/69/19 26/54/19 25/53/19 
f 36/64/19 35/63/19 43/71/19 44/72/19 
f 44/72/19 43/71/19 28/56/19 27/55/19 
f 34/62/23 33/61/23 45/73/20 46/74/20 
f 46/74/20 45/73/20 30/58/20 29/57/20 
f 38/66/23 37/65/23 47/75/20 48/76/20 
f 48/76/20 47/75/20 32/60/20 31/59/20 
# 12 polygons

#
# object Object001
#

v  20.1722 20.8456 -28.1209
v  20.1722 20.8456 27.9873
v  20.1722 -20.8344 27.9873
v  20.1722 -20.8344 -28.1209
v  18.0222 -20.8344 -25.9709
v  18.0222 -20.8344 27.9873
v  18.0222 20.8456 27.9873
v  18.0222 20.8456 -25.9709
v  18.0222 -104.1943 27.9873
v  18.0222 -104.1943 -25.9709
v  20.1722 -104.1943 -28.1209
v  20.1722 -104.1943 27.9873
v  18.0222 104.2055 -25.9709
v  18.0222 104.2055 27.9873
v  20.1722 104.2055 27.9873
v  20.1722 104.2055 -28.1209
v  20.1722 62.5255 27.9873
v  20.1722 62.5255 -28.1209
v  20.1722 -62.5144 -28.1209
v  20.1722 -62.5144 27.9873
v  18.0222 -62.5144 27.9873
v  18.0222 -62.5144 -25.9709
v  18.0222 62.5255 -25.9709
v  18.0222 62.5255 27.9873
# 24 vertices

vn 1.0000 0.0000 -0.0000
vn -1.0000 0.0000 -0.0000
vn 0.0000 -1.0000 -0.0000
vn 0.0000 1.0000 -0.0000
vn 0.0000 -0.0000 1.0000
vn 0.0000 0.0000 1.0000
# 6 vertex normals

vt 0.4865 0.6197 0.0005
vt 0.7482 0.6197 0.0005
vt 0.7482 0.4359 0.0005
vt 0.4865 0.4359 0.0005
vt 0.4965 0.4359 0.0537
vt 0.7482 0.4359 0.0537
vt 0.7482 0.6197 0.0537
vt 0.4965 0.6197 0.0537
vt 0.7482 0.0684 0.0537
vt 0.4965 0.0684 0.0537
vt 0.4865 0.0684 0.0005
vt 0.7482 0.0684 0.0005
vt 0.4965 0.9872 0.0537
vt 0.7482 0.9872 0.0537
vt 0.7482 0.9872 0.0005
vt 0.4865 0.9872 0.0005
vt 0.7482 0.8034 0.0005
vt 0.4865 0.8034 0.0005
vt 0.4865 0.2522 0.0005
vt 0.7482 0.2522 0.0005
vt 0.7482 0.2522 0.0537
vt 0.4965 0.2522 0.0537
vt 0.4965 0.8034 0.0537
vt 0.7482 0.8034 0.0537
# 24 texture coords

g Object001
usemtl Material__37
s 1
f 49/77/24 50/78/24 51/79/24 52/80/24 
f 53/81/25 54/82/25 55/83/25 56/84/25 
s 8
f 57/85/26 58/86/26 59/87/26 60/88/26 
f 61/89/27 62/90/27 63/91/27 64/92/27 
s 2
f 50/78/28 55/83/28 54/82/28 51/79/28 
s 1
f 64/92/24 63/91/24 65/93/24 66/94/24 
f 66/94/24 65/93/24 50/78/24 49/77/24 
f 60/88/24 59/87/24 67/95/24 68/96/24 
f 68/96/24 67/95/24 52/80/24 51/79/24 
f 58/86/25 57/85/25 69/97/25 70/98/25 
f 70/98/25 69/97/25 54/82/25 53/81/25 
f 62/90/25 61/89/25 71/99/25 72/100/25 
f 72/100/25 71/99/25 56/84/25 55/83/25 
s 2
f 63/91/29 62/90/29 72/100/28 65/93/28 
f 65/93/28 72/100/28 55/83/28 50/78/28 
f 57/85/29 60/88/29 68/96/28 69/97/28 
f 69/97/28 68/96/28 51/79/28 54/82/28 
# 17 polygons

#
# object Object002
#

v  -20.0386 20.8456 27.7201
v  -20.0386 20.8456 -28.1209
v  -20.0386 -20.8344 -28.1209
v  -20.0386 -20.8344 27.7201
v  -17.8886 -20.8344 27.7201
v  -17.8886 -20.8344 -25.9709
v  -17.8886 20.8456 -25.9709
v  -17.8886 20.8456 27.7201
v  -17.8886 -104.1943 -25.9709
v  -17.8886 -104.1943 27.7201
v  -20.0386 -104.1943 27.7201
v  -20.0386 -104.1943 -28.1209
v  -17.8886 104.2055 27.7201
v  -17.8886 104.2055 -25.9709
v  -20.0386 104.2055 -28.1209
v  -20.0386 104.2055 27.7201
v  -20.0386 62.5255 -28.1209
v  -20.0386 62.5255 27.7201
v  -20.0386 -62.5144 27.7201
v  -20.0386 -62.5144 -28.1209
v  -17.8886 -62.5144 -25.9709
v  -17.8886 -62.5144 27.7201
v  -17.8886 62.5255 27.7201
v  -17.8886 62.5255 -25.9709
# 24 vertices

vn -1.0000 0.0000 -0.0000
vn 1.0000 0.0000 -0.0000
vn 0.0000 -1.0000 -0.0000
vn 0.0000 -0.0000 1.0000
vn 0.0000 1.0000 -0.0000
vn 0.0000 0.0000 1.0000
# 6 vertex normals

vt 0.7469 0.6197 0.9962
vt 0.4865 0.6197 0.9962
vt 0.4865 0.4359 0.9962
vt 0.7469 0.4359 0.9962
vt 0.7469 0.4359 0.9430
vt 0.4965 0.4359 0.9430
vt 0.4965 0.6197 0.9430
vt 0.7469 0.6197 0.9430
vt 0.4965 0.0684 0.9430
vt 0.7469 0.0684 0.9430
vt 0.7469 0.0684 0.9962
vt 0.4865 0.0684 0.9962
vt 0.7469 0.9872 0.9430
vt 0.4965 0.9872 0.9430
vt 0.4865 0.9872 0.9962
vt 0.7469 0.9872 0.9962
vt 0.4865 0.8034 0.9962
vt 0.7469 0.8034 0.9962
vt 0.7469 0.2522 0.9962
vt 0.4865 0.2522 0.9962
vt 0.4965 0.2522 0.9430
vt 0.7469 0.2522 0.9430
vt 0.7469 0.8034 0.9430
vt 0.4965 0.8034 0.9430
# 24 texture coords

g Object002
usemtl Material__37
s 2
f 73/101/30 74/102/30 75/103/30 76/104/30 
f 77/105/31 78/106/31 79/107/31 80/108/31 
s 8
f 81/109/32 82/110/32 83/111/32 84/112/32 
s 1
f 76/104/33 77/105/33 80/108/33 73/101/33 
s 8
f 85/113/34 86/114/34 87/115/34 88/116/34 
s 2
f 88/116/30 87/115/30 89/117/30 90/118/30 
f 90/118/30 89/117/30 74/102/30 73/101/30 
f 84/112/30 83/111/30 91/119/30 92/120/30 
f 92/120/30 91/119/30 76/104/30 75/103/30 
f 82/110/31 81/109/31 93/121/31 94/122/31 
f 94/122/31 93/121/31 78/106/31 77/105/31 
f 86/114/31 85/113/31 95/123/31 96/124/31 
f 96/124/31 95/123/31 80/108/31 79/107/31 
s 1
f 83/111/35 82/110/35 94/122/33 91/119/33 
f 91/119/33 94/122/33 77/105/33 76/104/33 
f 85/113/35 88/116/35 90/118/33 95/123/33 
f 95/123/33 90/118/33 73/101/33 80/108/33 
# 17 polygons

#
# object Object003
#

v  -18.3977 65.0490 28.1209
v  -18.3977 65.0490 -26.7341
v  18.4162 65.0490 -26.7341
v  18.4162 65.0490 28.1209
v  -18.3977 67.9880 28.1209
v  18.4162 67.9880 28.1209
v  18.4162 67.9880 -26.7341
v  -18.3977 67.9880 -26.7341
# 8 vertices

vn 0.0000 -1.0000 -0.0000
vn 0.0000 1.0000 -0.0000
vn 0.0000 0.0000 1.0000
vn 1.0000 0.0000 -0.0000
vn 0.0000 0.0000 -1.0000
vn -1.0000 0.0000 -0.0000
# 6 vertex normals

vt 0.9554 0.0005 0.8034
vt 0.9554 0.9772 0.8034
vt 0.0408 0.9772 0.8034
vt 0.0408 0.0005 0.8034
vt 0.0446 0.0005 0.8171
vt 0.9592 0.0005 0.8171
vt 0.9592 0.9772 0.8171
vt 0.0446 0.9772 0.8171
vt 0.0446 0.8034 0.0005
vt 0.9592 0.8034 0.0005
vt 0.9592 0.8171 0.0005
vt 0.0446 0.8171 0.0005
vt 0.0005 0.8034 0.9592
vt 0.9772 0.8034 0.9592
vt 0.9772 0.8171 0.9592
vt 0.0005 0.8171 0.9592
vt 0.0408 0.8034 0.9772
vt 0.9554 0.8034 0.9772
vt 0.9554 0.8171 0.9772
vt 0.0408 0.8171 0.9772
vt 0.0228 0.8034 0.0446
vt 0.9995 0.8034 0.0446
vt 0.9995 0.8171 0.0446
vt 0.0228 0.8171 0.0446
# 24 texture coords

g Object003
usemtl Material__37
s 2
f 97/125/36 98/126/36 99/127/36 100/128/36 
s 4
f 101/129/37 102/130/37 103/131/37 104/132/37 
s 8
f 97/133/38 100/134/38 102/135/38 101/136/38 
s 16
f 100/137/39 99/138/39 103/139/39 102/140/39 
s 32
f 99/141/40 98/142/40 104/143/40 103/144/40 
s 64
f 98/145/41 97/146/41 101/147/41 104/148/41 
# 6 polygons

#
# object Object004
#

v  -18.3977 22.0092 28.1209
v  -18.3977 22.0092 -26.7341
v  18.4162 22.0092 -26.7341
v  18.4162 22.0092 28.1209
v  -18.3977 24.9482 28.1209
v  18.4162 24.9482 28.1209
v  18.4162 24.9482 -26.7341
v  -18.3977 24.9482 -26.7341
# 8 vertices

vn 0.0000 -1.0000 -0.0000
vn 0.0000 1.0000 -0.0000
vn 0.0000 0.0000 1.0000
vn 1.0000 0.0000 -0.0000
vn 0.0000 0.0000 -1.0000
vn -1.0000 0.0000 -0.0000
# 6 vertex normals

vt 0.9554 0.0005 0.6026
vt 0.9554 0.9772 0.6026
vt 0.0408 0.9772 0.6026
vt 0.0408 0.0005 0.6026
vt 0.0446 0.0005 0.6163
vt 0.9592 0.0005 0.6163
vt 0.9592 0.9772 0.6163
vt 0.0446 0.9772 0.6163
vt 0.0446 0.6026 0.0005
vt 0.9592 0.6026 0.0005
vt 0.9592 0.6163 0.0005
vt 0.0446 0.6163 0.0005
vt 0.0005 0.6026 0.9592
vt 0.9772 0.6026 0.9592
vt 0.9772 0.6163 0.9592
vt 0.0005 0.6163 0.9592
vt 0.0408 0.6026 0.9772
vt 0.9554 0.6026 0.9772
vt 0.9554 0.6163 0.9772
vt 0.0408 0.6163 0.9772
vt 0.0228 0.6026 0.0446
vt 0.9995 0.6026 0.0446
vt 0.9995 0.6163 0.0446
vt 0.0228 0.6163 0.0446
# 24 texture coords

g Object004
usemtl Material__37
s 2
f 105/149/42 106/150/42 107/151/42 108/152/42 
s 4
f 109/153/43 110/154/43 111/155/43 112/156/43 
s 8
f 105/157/44 108/158/44 110/159/44 109/160/44 
s 16
f 108/161/45 107/162/45 111/163/45 110/164/45 
s 32
f 107/165/46 106/166/46 112/167/46 111/168/46 
s 64
f 106/169/47 105/170/47 109/171/47 112/172/47 
# 6 polygons

#
# object Object005
#

v  -18.3977 -21.0306 28.1209
v  -18.3977 -21.0306 -26.7341
v  18.4162 -21.0306 -26.7341
v  18.4162 -21.0306 28.1209
v  -18.3977 -18.0916 28.1209
v  18.4162 -18.0916 28.1209
v  18.4162 -18.0916 -26.7341
v  -18.3977 -18.0916 -26.7341
# 8 vertices

vn 0.0000 -1.0000 -0.0000
vn 0.0000 1.0000 -0.0000
vn 0.0000 0.0000 1.0000
vn 1.0000 0.0000 -0.0000
vn 0.0000 0.0000 -1.0000
vn -1.0000 0.0000 -0.0000
# 6 vertex normals

vt 0.9554 0.0005 0.4019
vt 0.9554 0.9772 0.4019
vt 0.0408 0.9772 0.4019
vt 0.0408 0.0005 0.4019
vt 0.0446 0.0005 0.4156
vt 0.9592 0.0005 0.4156
vt 0.9592 0.9772 0.4156
vt 0.0446 0.9772 0.4156
vt 0.0446 0.4019 0.0005
vt 0.9592 0.4019 0.0005
vt 0.9592 0.4156 0.0005
vt 0.0446 0.4156 0.0005
vt 0.0005 0.4019 0.9592
vt 0.9772 0.4019 0.9592
vt 0.9772 0.4156 0.9592
vt 0.0005 0.4156 0.9592
vt 0.0408 0.4019 0.9772
vt 0.9554 0.4019 0.9772
vt 0.9554 0.4156 0.9772
vt 0.0408 0.4156 0.9772
vt 0.0228 0.4019 0.0446
vt 0.9995 0.4019 0.0446
vt 0.9995 0.4156 0.0446
vt 0.0228 0.4156 0.0446
# 24 texture coords

g Object005
usemtl Material__37
s 2
f 113/173/48 114/174/48 115/175/48 116/176/48 
s 4
f 117/177/49 118/178/49 119/179/49 120/180/49 
s 8
f 113/181/50 116/182/50 118/183/50 117/184/50 
s 16
f 116/185/51 115/186/51 119/187/51 118/188/51 
s 32
f 115/189/52 114/190/52 120/191/52 119/192/52 
s 64
f 114/193/53 113/194/53 117/195/53 120/196/53 
# 6 polygons

